<mxfile host="app.diagrams.net" agent="Mozilla/5.0 (Windows NT 10.0; Win64; x64) AppleWebKit/537.36 (KHTML, like Gecko) Chrome/136.0.0.0 Safari/537.36" version="26.2.13">
  <diagram name="Страница — 1" id="3oIaud_l_PFFuRhlT5Z-">
    <mxGraphModel dx="1600" dy="396" grid="1" gridSize="10" guides="1" tooltips="1" connect="1" arrows="1" fold="1" page="1" pageScale="1" pageWidth="827" pageHeight="1169" math="0" shadow="0">
      <root>
        <mxCell id="0" />
        <mxCell id="1" parent="0" />
        <mxCell id="6gBzvza-OcvXsySnCAHP-10" style="edgeStyle=orthogonalEdgeStyle;rounded=0;orthogonalLoop=1;jettySize=auto;html=1;strokeWidth=3;" edge="1" parent="1" source="6gBzvza-OcvXsySnCAHP-8" target="6gBzvza-OcvXsySnCAHP-9">
          <mxGeometry relative="1" as="geometry">
            <Array as="points">
              <mxPoint x="469" y="625" />
              <mxPoint x="469" y="460" />
              <mxPoint x="790" y="460" />
            </Array>
          </mxGeometry>
        </mxCell>
        <mxCell id="6gBzvza-OcvXsySnCAHP-8" value="" style="shape=image;verticalLabelPosition=bottom;labelBackgroundColor=default;verticalAlign=top;aspect=fixed;imageAspect=0;image=data:image/png,iVBORw0KGgoAAAANSUhEUgAAAQMAAAEhCAIAAAD011KhAAAgAElEQVR4Ae2d+29TV7r3/U9U2mpDXBqwRQ4IZub9oWrDtGJQKwXUVq9kKVCNlEpUM79U0Ux/6WvnZscNF7ktgRYEh9LQoLCPTBqlJTRKeJtCZaQCOoDbgMqhQF2CIkQJ5iKQKNpn1n3ti+1te1888bN/IGuvvdbzPOu7ns9aaxuIAxpcoAAooGkBEAEUAAU0IAGSABQgCsCe4EMmfPPNN++9996rr776f/D16quvvvfee998840PoYBLpgCQwJTw5OfY2NiLL764atWq50zXqlWrXnzxxbGxMU8CASdGBYAEoyLu3f/zn/9cuXKlCQFdxcqVK//xj3+4FwNYLqQAkFBIGYfr33rrrRUrVuiyvsDNihUr3nrrLYfdg7lSCgAJpRRy4vmWLVtK7gYyFytXrtyyZYsTnsGGXQWABLtKVdzu/Pnzy5YtkxPdTnnZsmXnz5+v2Cl0LFcBIKFcxcpu//bbb9tJfXObt99+u2xn0KFSBYCESpWz1+/BgwfmFLdf8+DBA3t+oFW1CgAJ1SpYvP/09LTlZ6Z2YFi1atX09HRx+/DUKQWABKeUtLazf//+Cl4SCCfLli3bv3+/tV2odVoBIMFpRfX2BgYG7Cz/hdoMDAzo7cGdWwoACW4pS+zu2bMnFAoVSvTi9aFQaM+ePe7GB9aZAkACU8Kdn+Pj42X9TYLMxsqVK8fHx92JC6waFQASjIo4e3/jxo1q3hNu3LjhbDxgrZACQEIhZRyrf+211+SV3n75tddecywIMFRKASChlEJVP5+YmKjggLRy5cqJiYmqnYMBuwoACXaVqqZde3v70qVL7e8GS5cubW9vr8Yj9C1XASChXMUqaZ/P51evXm2fhNWrV+fz+Uo8QZ9KFQASKlWuzH6zs7Nr165dvnx5cR6WL1++du3a69evl2kemlerAJBQrYJl9e/t7Q2FQuFw2MxDOBwOhUI9PT1lGYTGTikAJDilpF07165dS6VSL7/88nPPPbcEX88999zLL7+cSqWuXbtm1wq0c1oBIMFpRW3b+/3333vx9fvvv9vuBA3dUgBIcEtZO3ZT+LLTEtq4rQCQ4LbCxewDCcXU8fYZkOCt3npvQIJeDz/vgAQ/1QcS/FRf7xtI0Ovh7R2Q4K3exbwBCcXUcfsZkOC2wvbtAwn2tXK+JZDgvKaVWgQSKlXOiX5AghMqOmMDSHBGR/tWcrmcqqqkvUxCV1dXLpezbwdaOqsAkOCsnqWt5XI5RVG6uro0TeMkbNq0SVEUIKG0fK61ABJck7aw4bVr1xIYCAkEg7Vr1xbuAU9cVwBIcF1iswNVVRsaGoLBYGtr65///OdwOBwMBvmRydweajxQAEjwQGSji1wuFwqFFEUhPCj4MjaCe28VABK81Zt56+joIDAQDDo6OtgT+OmPAkCCP7rncrmmpiaCQSgUgndlf6ZB8gokSGJ4WyTvzYqiwLuyt8JbewMSrHXxoJa8Nzc0NMC7sgdql3QBJJSUyK0GuVwuGAwqiuKWA7BbjgI1SsKTJ0+mp6cHBgbi8Xj3wr3+A18Ld3zd8Xh8YGBgenr6yZMn5aSlD21rjoSLFy/29vb29fVNTk7Ozc3lF/R1AV8Leoj5ubm5ycnJvr6+3t7eixcv+pDj9lzWFgn9/f0DAwMLOzPqeXQDAwP9/f32MtPrVrVCwu3bt6PR6Pnz5+s5Ueph7OfPn49Go7dv3/Y600v5qwkS7t+/H41G5+fn6yEVYIzz8/PRaPT+/fulktPT5zVBQmdn54J/JQAAZAXm5uY6Ozs9zfRSzvwn4bPPPjt27JgsE5TrQYFjx4599tlnpfLTu+f+k9Dd3V0PEw9jNCvQ3d3tXaaX8uQzCUNDQ6dOnTJrBDX1oMCpU6eGhoZKpahHz30mIRaL1cOUwxgLKRCLxTzK9FJufCahr6+vkEZQXw8K9PX1lUpRj577ScLPP/988ODBephvGGMhBQ4ePPjzzz97lOxF3fhJwvfff//1118X0gjq60GBr7/++vvvvy+aoh499JOETCYzNTVVD/MNYyykwNTUVCaT8SjZi7qpcRLSkUAkLVTMJpsDgTapQjyC0r+lAkACwtPGnqAnQY0EAkDCv2XGFwoaSKiAhHQkEE4mInRPUFkhn88mwubKdBtjRmqZP5sMNyez+XxeqhQtiSlEWyAQCCfPkunDGxGtDATIHsXtkC7EZj6PTOn64thoX2ow3RaIqDQxsolwOIHCKRBPGqPP+pOWPKd4DGiBYDsnWSwCgYAUEnOHBoLKvA01HEnn8aNEMoxraEjIkRQA2YqNTqUGuC/2JVWW2sCBhLJJoPnKM5gXLEk4iyeVTIPU0oIEQ0uWUhIe2WQzp4LtUTwhSK5wuniBuzYZLEGCFI8gHI9RSlBMA41BCg/3xbkojpGSO0YCYUmNcFrymAQBOV0FUHvqFFnGIpidUmC4RFa9iEerP4GEMkngyx5Pa16wIAEnh9XuYSJB31KaKikLpVRDeY9XX0YCyrME22d4d12S0VpuUEpNtGPo9wR9PPoxWpMgtUGLPdsK8MKPQpXclSCB20+3MQD4iNDAJRJkp6gNeyrak1KhetEOSCiLBLTb0i2ez4Fhi+drcFuanjTklnyPZhmsa8Nb0qWRHhrYq3lhEog1bhPNL8q2gicrHIaUmiYSSCQiHt1JhmcqzSOye/DU15/TEPMYWnZgYychdjDTYUNOR+yRIEEnMiNBOnqxjNZnvLkXa2f+CSSUQUKEn/jl87SULny5xfmdpIcZ3oAX8nn9nmBsieywxBI2UZbwrV+3JyTJiV9HAp5rloWWBguTYIwHLbbspULsHjybzBw6syfw4420APFV3+wUxSOTYNWLx2wqAAn2SWAvqUREnta8YDgd8Q+XeANeMJBgaiklLn7noztJARL40shIEMlqQYIwyJMb7SDy6cgUj+BWbsmTydov2Tzx1mTcgkqcjugqgIIn5IucRsrIpyNjPNYkiF48ZlMBSCiDBHouskuC9CkKSWXdZo0OCeiYgSpNLdHaRq5Imq6vpIa1RA1wWaSLtM+I7uwsJ2q4Qf75EvVEM8wiHl3iCmZ4MjESdEsyHyzb3CTwdAYtTkdtdPRccJzKRLE0/dzJ0ikaJt82xcdl4QTrxWM2FYAERMLJkycnJydN4rhbYZFS7josbl3ecIq3dPWpHhJXXemNT05Onjx5EmWD35eff8f8448/joyM6JVx/Q5IsJLYNxJGRkZ+/PFHvylA/v0k4d69ex9++KHVxEBdvSjw4Ycf3rt3r95J0DQtGo3Wy5zDOK0UiEajtYCBz3uCpmlbt26dnZ21kgjqFr4Cs7OzW7duBRKQAlevXoVferfwU77ACAcGBq5evQokUAXi8fj169cLaAXVC1aB69evx+PxGsHA/9ORpml3797t6upasBMOAyugQFdX1927d4EEnQInTpzYtm1bAcWgegEqsG3bthMnTuiSwO8bPz9Flcd+5MiR/v7+BTjnMCSTAv39/UeOHJFnvxbKtUKCpmlnzpyJRqPnzp0zSQcVC0SBc+fORaPRM2fO1ELqG2KoIRJIZNu3b+/p6Tl+/PgCmXwYBlbg+PHjPT09/5pcQ/7Vzm3NkUCkGRsb6+3tjUaj5Pt1+hbo9Ta+Fujg0LD4JI6NjdVO0ltGUqMkWMa68CpT+Fp44/p3HBGQ4OesAQl+qq/3DSTo9fD2DkjwVu9i3oCEYuq4/QxIcFth+/aBBPtaOd8SSHBe00otAgmVKudEPyDBCRWdsQEkOKNjZVaAhMp0c6MXkOCGqnZtAgl2lXK/HZDgvsaFPQAJhbXx+gmQ4LXiuVxOVVXiVSZBVdVcLud1NOCPKQAkMCW8+pnJZBRF6erq0jSNk6CqqqIoNfKdGl4pUVt+gAQf5qOlpYXAQEggGLS0tPgQCrhkCgAJTAkPf6qq2tDQEAwGW1tb29vbg8FgU1MTPzJ5GAi4EgoACUILz0q5XC4UCimK0oAvBV+eeQdHlgoACZayuF65adMmAgPBoKOjw3WX4KCoAkBCUXlce5jJZJqamggGDQ0N8K7smtJ2DQMJdpVyvB15b1YUBd6VHde2AoNAQgWiOdOFvDc3NjbCu7IzglZnBUioTr8qeudyuWAwqChKFTagq2MKOEzChQsXVFX94IMPNsNlQ4Hm5uYVK1bYaAhNNn/wwQeqql64cEFz53KGhFu3bm3durWzs3N4eDibzd6+fRt+pYMdBabwZacltLl9+3Y2mx0eHu7s7Ny6deutW7ecJcIBEnbv3t3X13f16lWYLVDAGwWuXr3a19e3e/duB2GoloTOzs7p6Wlvxg9eQAFZgenp6c7OTqdgqIqEaDR65coVOTgogwJeKnDlyhWnvoukchJ6enp++uknL4cNvkABswI//fRTT09P9TtDhSSk0+mxsTFzWFADCnivwNjYWDqdrhKGCkno7Oz0fsDgERQopED1LwyVkDAyMgK/wbfQlEC9LwocP358ZGSkmm2hEhJisZgvowWnoEARBWKxmNckxOPxIgHBI1DAFwWq/Na2sveEa9euHThwwJehglNQoIgCBw4cuHbtWsXbQtkknDp16ujRo0UCgkeggC8KHD169NSpU96RkMlkpqamfBkqOAUFiigwNTVVzX94KntPsE9Cui0QaE5mi8QOj0AB5xSoVRLOJsPNkUhzOHnWubGCJVCgsAI1SkI2EQ4nstlEONCWpsGfTYYDkWQiHECXRIgawTViA0m3BSIq6ZRNNvNymrWTu0uVyJF0i40iO8gvuSI0FDUSaE4m2/SVXGLRPhAIkC7ZpEA6HeHBi5bMcl5yR/ZDNcIVQJtkWzrPx2uIigaAhswvpkMe9cVXOEF2WV0zFmdeGOe7MXNHO5YZjzQXSFseD1fLXmDW0aL0YMNKns1Lt7i2OflJW4CNFz3lZe5dLtQmCTx10hGaTCxFMBhozGSqUDIRKrBY+KmkPqpk6nNT3Dh6StURdvKYB04amj/SRpzWcHKISs4q0RXtZvRQx0jmHmXjVpYRitR1mswizzyCDfeFabQ6OgpfXAe9XEQQ0QyPF6OIXWC5uJg8HqZemfHoYjCRgHPX7FoW33IpwZVoFshTzDlThmmOJ0OoJI9Xzn9RrkkSpGTiUuK1WdYIlcUc5/F6hlNQdMnrSaAJaikKn3I5WQl+VG4RgDQHuJI1sCIBAyN7ZI5Q2rGOnEMxc2yGaOZhCwmxP6DFm/HGmpKf2WSzyA+e1hT4PEoaq5BwF9mmPEZkmIVdZjx0LvCEJsVeTUNmwWAHZMdDUybPMhmLZSU1ks/jNLAkAYWNLUgZJbrpS7VIAl4q2L4XwEcCemygc8wnxtgSD5tvuMQE3RPOJsNULElWvLozT/IEsLIuIaRs4FkoJzRRFq+szCafSFaBfmLjVpZ1YBNrJPPkP3k9j0E3o+kIq2crAl7gZf9IB0kEli4679K4iMiUJTkSSgV2L1MkxUNikP+UHkp7sshmi8Aso8WV0qisSUDkR9TSR6N8Pl+DJBgOlCz/+MJJqUD5hCaJScAlZhmAFgtxOlIjbF3kWsuOmBdkRSpLCWG9J+gSGocgLz80P7hHyXghyyyP6XBQtiXpMmkj81CQTBCmgyQC18iKBN0+YxwXM1JmPCiGBD0usnhEENXsCTK3chrIZeRJDlh4tijVHglWc4CSGKUOPbILFSQ8+DleUpzNn27ieV4KEpBBdkDXkYCosH5PIFsNcsoyj6prkwRLy4bh8Pdj4sIGCdLY6XJIDw8UMD4cLgKBkx0h6FEe6YbGJcbClESzw4ZsLx70uQH+AEOOjWiFZTe7Zhsy26ws9wSRA1hJPguoXjcjaMgFTpI6HmqOBHNuUb3wIhoxf2JD5gbNDz07SYrT+TOcl/Ceihpjy+gunEiL3QMpyyeDvalL9vHaGYmQj2gMS7j84Q9xg5LAkHbMOGabB0OnhQ+HWJbXhVKZx4eDbZI/qC+hAM0SQ0hUOjQ0crFxGTuWEw+CTFoppHkRKcjtm3ZsjihOZTa5eJ0i0ZJ6PO/S2cxEAn81Ek4tS16TcPLkycnJSctQSlRiEthHqiXaGh6b5oC9SBna2byVdLfZw5tmpg8K5XT3JoQa9KJf1woHODk5efLkSe/+tUU2mx0dHS0cT+EnQEJhbcgTIMGoEN512W5jfGi4Hx0dzWaz3pEwPz+/Y8cOQxBwCwr4rsCOHTvm5+e9I0HTNPifOr7POgRgVsCH/6nz/vvv//bbb+ZQoAYU8EuB33777f333694Q9A0rex/i6pp2szMzN69e/0aM/gFBcwK7N27d2ZmxmsSNE3r7u6+c+eOOSCoAQW8V+DOnTvd3d3VYFDhnqBp2uzsLPxvZu+nHDxaKhCPx2dnZ/0hQdO0L7/8cs+ePZaRQSUo4JkCe/bs+fLLL6vEoPI9gTgeGhratWuXZ2MGR6CAQYFdu3YNDQ1Vj0G1JGiaNjEx0d3d/euvvxpChFtQwFUFfv311+7u7omJCUcwcIAETdPy+XxfX9/mzZsvXLjg6uDBOCiQz+cvXLiwefPmvr6+fD7vFAbOkECiuXXr1t69e//1txs9PT2pVGoXXDYU+Ncvee7p6bHRcCE3+cTGtWvXrlQq1dPTE4vF9u7d6/gX6jhJgiZdjx49mofLhgJJfNloCE3mHz16JKWY88VK/mbN+Sjq1WIKX/U6+toaN5Dg53wACX6qr/cNJOj18PYOSPBW72LegIRi6rj9DEhwW2H79oEE+1o53xJIcF7TSi0CCZUq50Q/IMEJFZ2xASQ4o2NlVoCEynRzoxeQ4Iaqdm0CCXaVcr8dkOC+xnoPuVxu165dpE4moZrf/a/3AHeVKAAkVKJaNX0ymYyiKF1dXZqmcRJUVVUUBWCoRtgq+wIJVQpYSfeWlhYCAyGBYKAoSiW2oI9DCgAJDglZjhlVVYPBYCgUam1tbW9vDwaDDQ0NqqqWYwPaOqwAkOCwoHbM5XK5UCikKAphQMFXLpez0xfauKQAkOCSsCXMrlu3jgBA/ty0aVOJDvDYZQWABJcFLmA+k8kEg0GCQTAYhHflAjp5Vw0keKe1wRN5byYwGB7BrfcKAAnea049qqraiC94V/ZtDiTHQIIkhrfFXC5HDkjwruyt8NbeLEh4+PDhyMjIKFzuK7Bs2bI//OEP7vsBD6OHDx9++PChNQS41kjCw4cPh4aG9u/f/99wua/AIL7c9wMe/nv//v1DQ0NFYNCRQDCYmJiA3yYCCiw8BSYmJorAIEgADBbe3MOIDAoUgYGSABgYJIPbhapAIRgQCYDBQp11GJelApYwBB49ejQ0NATvBpaSQeVCVYDAIP82sQBgsFAnG8ZVXAEDDAHYDYrrBU8XsAIyDIHi40TfwM6+7b14S3gKCtSWAvi7nAP4iqgFQ+MwFCchHQlEIm3h5NmChuABKFCTCmSTzSxvERKRdOEoCQxFSVAjgbZ0nvxJDKmRQHMy2YZB43uFgI/4S0cCLAjRN5tsJnyKTQZtOPSKpPNSA1SJTakR+ryNDARbTpBK5oIEhmIgNdgOaa/vnm4LsLUBEU4sZhNhyUWa+cN1fIB87KQpMm6OFvdlXfDQaIR8mPS75rGGWWyThSQUQ42J5jQs9COc+DrZzIMn0Uh/Cv0DxAUaVFuSCk6ly+tHms/nhVNpiiUF2DCpaFLYzLckAhs4MiVUYg3RT9SYmjqbDNP2eguiHkVL5TKNDkcu1BGqsjo2y9y7mG5eZShMTEwUIyFNdwPJEB4n9oTGgIMQguIJSBeQOJtsS6LpF6NNp+meJWmEpofhq09u5gsnSh7PK1efDMvArak7SzuSBIw0aUpM8yTJZbKGn0nRosgZwGjWw2G8JjFNpMyTUoqFxDQkaSTlLp1mOY2koEgxq6YJVygL8XBw0hMOUVRoXOyRlJHMaR4/pU7TEVJgSxjPyHQbxUzyb5pTa5VomBYknE2n6XEDB/MlJ0SQYB4dTjCxkBGJ0ipd9CXBiV+mgBS3ZbEICekISzU2YbKgOBfb0iizGYv4ZyRNc4LVcomJNUECioevl4xjKbfE5DFf8jKG/DJm2MhwBrBKU3dJI+oFt2dxBihjEqvMLskVpobZDm6H5jLSFkYDOZsMoyUZ5SIfIHGDpo2vmkQvtByQpMQbegLvw9giz0L9FkS3Gik47JE44CQwnEgGW41UWv7lsetJYGpIhw3hmGUIn1OT5qKtYRdlYkpDCyfPCjilsRtHZ0kCcsSFZWOXsJcCsSrevHmzIAlW2hUigSUf9SHGg4IjYaHkwNRy1TBCGOgCe4KFrJJlKxJw2rFEse7O8x7FLOW0JA+PUKqT1lS5l8QtyWYVDRPPYpqTwNZ1Zk4KjC0xeFyEAa4YDo/1lSSSuhOLeNR4CtgjeVyCBJEftJ/FIVaNUI8iDMyAKlZrNgwCvH5OWQDoMIROaHSdxl2kIXCFxRGDzqycdSQS8+isSEDGxX4o/MoTJAI3lG7evDk4OFiIBClu1I+lIAqdpBpqgGNFSwsJGg0Dsc4aS9tuNoEXS/l0xFMZI2GxJ6D6kr6kQZHJ4ypbdOeNmUAWw8ETLFYs1sXaGrMjJEJjx+ciuojiqSUrBdumpXSRSGAnK5GCKJloXsqnI6k7CY6fW1DS8D2BbpiSUwsxpVUDZw87D8vnJVQON/NImCA41+ms2dJcyijeno9FTAS1z8duHl0hEnAwGAlBgoi2UIlgcOLEicDNmzctGqGJ1630NCAccZi8+/J0QY3JxadcJ7EMOmmHJxgHHUCTlxRnUDm3zPsdpq6ZeGMuSPQoMBowSgiiBarEl1Ea4UXExtvweTLoYmFN2OGLBUtHcZzAqxoKg6Y1n358OMTzJ1YTsYua9gQ6FprQUnAssEiCzhpeksJ0Uti4TCM1Llg8TuaIveDKSxtzK6yx1mJ0pIb55T0s3hOQZXzh93u2GqIenAR+5mGjw11Y7vFmLJ5wMkFflrBfeYJYINJPjgH6nrXBwUFrGKQOoiglnKgsVeLh0oZ8Cy7V0fQcqSDrZWoAFUgBTAL+fKIcPdgGRfuIbVxCl9tzbk65Sa8LMgaIhBMnTpQBA5Dg9XxV4s9BEshaa159/t1JMGBAv3uzPBgqmRroAwrUkAJmDMS30AIMNTRREIqbClhiIEjQNA1gcFN/sF0TChTCQEcCwFATcwVBuKZAEQyMJAAMrs0CGPZZgeIYWJBAYIjH48PDwyq+/gsu1xTYji/XzIPh/yI5PDw8HI/HT5w4UcbvOyJNL168+BNc7ivw//Dlvh/w8NOFCxeKYGC9JxTvAE8dVIB/u5SDNsFUZQqI33dUWX/oVY0CQEI16jnbF0hwVs/yrAEJ5enlZmsgwU11S9kGEkop5N1zIME7rc2eLEj4ciP7x52BjV+iHuN/FRXjZhNQ45ACQIJDQlZkxpIEDgAujI9jHjTtSmo5ZaMiV9CphAJAQgmBXH1sJuHKtmV6EpB/vi2QR66GVLfGgQQ/p95Mwvhfl6X+h2Y/yvv/SS0LBJZtuwJ7gtvzBCS4rXAx+yYSxjcuT13BPcb/is9CiISN6PUAIwF7QjE1q3sGJFSnX3W99SSMi5dl+pK8cRy/HqC75anUX8nmUJ1L6F1AASChgDCeVJtIwMs/dX0ltVy+9SSgOnYCJPg5+UCCn+rrfQMJej28vdOT4K1v8KZXAEjQ6+H+XS6X419FLpOgqip8MbP78hf0ACQUlMalB5lMRlGUrq4uTdM4CaqqKoqSyWRccgpmSyoAJJSUyPkGLS0tBAZCAsGgubnZeU9g0bYCQIJtqZxrqKpqQ0NDMBhsbW1tb28PBoNNTU38yOScH7BUhgJAQhliOdU0l8uFQiFFURrwpeALXhKckrcyO0BCZbpV22vdunUEBoJBR0dHtRahf3UKAAnV6Vdp70wm09TURDBoaGiAd+VKhXSsH5DgmJTlGiLvzYqiwLtyudK50R5IcENVWzbJe3NjYyO8K9vSy+VGQILLAhc2n8vlgsGgoijwrlxYJO+e1BAJly9fHh0d3blz57a6uZYuXbpixYq6Ge62nTt3jo6OXr582bsEt+3JfxLu3r370UcfxWKxwcHBM2fOzM3N+fx7Az10P4UvDx367Gpubu7MmTODg4OxWOyjjz66e/eu7UR1vaHPJOzbty8ej1+6dMnnKQL3nitw6dKleDy+b98+13PcngM/Seju7p6cnPR8CsBhDSkwOTnZ3d1tL1fdbeUbCbFYDLaCGkpJ/0K5dOlSLBZzN81tWPeHhN7e3pmZGf/EB8+1pcDMzExvb6+NdHWxiQ8kjI6OjoyM1NZUQDR+KzAyMjI6Oupippcy7QMJsVjMb9nBfy0q4O8ZyWsSRkdHp6ena3EeICa/FZienvZxW/CahM7OTr8FB/+1q0BnZ2epU4xbz70mIR6P1+48QGR+KxCPx93K9FJ2PSXh2rVrg4ODfqsN/mtXgcHBwWvXrpVKWleee0rCqVOnjh49WrvzAJH5rcDRo0dPnTrlSqaXMuopCZlMZmpqym+1wX/tKjA1NeXXf1qqNRLSEf69GagQTp6t3WmDyBxXAEjgkiISIiq9zSbCgeZklj+EwkJXAEjgM6wjIX82GQ5E0uQhKpOL1eSzyWa5ht+iSoqTGgk0J5NtcrN8XnQMYNJ0HdFOlDDQx3cq7BpHlUyQcKRdS2X7maCXd9Ttb2kaDwoS0S5fzckstxMg4XFxaEHqQr2n2wLhRJK6b6OCycOkapxNhnlsWBkyTslgIMC6S5XIi3SLwyV2eKjMrDkSXEP1zCbCJm11owMSuBw6EpD6dGJQPRERpRHWnT9l+maTzSwvOUJ4qkRHbA1ZkMyyLQjxwMo8HooNqaceCZPYAqohSYAqiXfMlbBPuBWx8bBlzkVlPp9XIyy8vJxGNCY0IroW8IFgtIh3ISB/igyS2AqTQBOUu7bygrQQM5LH8RPFxJAtIhHICRFkfeUykMDVkBdRtLJLGyKHfmUAAAnrSURBVIJcZhmP+7HpkYTmUy7NqJx5zJ+c/XKZPc+T+WauSbVI+nw+n47gJEMxsHURZR4tpyO0wGOz9sKGgB3wdMwjEqzgpOHxXiLpRbIKJMjmgOxwWQhvLOBsIky9SK65BNyLkQQxTEwvnqwCkWABZe/cur4AJHA95PkjWYiTXk5olny4DyGHZCpemdhJQ0wtm29BAlnUDS3xkcki7XSusU/UnbMhkcAM4p9s7unmwEnQD5CNW842vIQzWzx41lI+86BG2L68dTBTRBlmh+yo+oEzXPPpNrayCBJ0YvI9ihlH0aAyD49pYhUJ5Zlt3WIk5hKQwDUxJApbQZnQqB0qs5kj/ejixLNNLNU4q1jW0pxGNtlpldlHduQyj6fUnsCCkVNEdFYjkiMSs7UXXXeRjvrTCLYr5x/vJa/ErEwRFcEQ6XjuihU9m2yWJDKc+sQmgyxxj+hGWLDeE1gk5LyXFGdXXUy6GyCBy6EngeUZPoQY3xPEyaEECfSAwSZGIgGxwY8f1jlKXJO9gmYhiooGI/JShIqWQLxYymSKMgtDh7Qxw+hOos88LJLwiPZGsSewk6QQUO8ID1M+n/A8lsBDyW0kQXgxkoB1wMog6fjuZI6EaCg2ED7bpgKQwCXBuostnacpyRvygC1geCZwlVhuRVeSTGi+IxHyEZO8HJJ2bWlpNy9Egsk18huJGD+PIuuiiBAlovEikeO8wY/4YcxIguio3/2QTlyiSJplMxpFW4R+mCU++BKO6NZkJkFoKLlEFiy8GEkg2wLpx7QtEInVqz+fc6kAJEhiOFtkueKkVUwC/6iykGWxZdEW6Yh4uyjUqcJ6iecyLchs4K52TvNFfBSIxOqoZmWlXkg4f/786OiolQKu1QEJxaX1gAS87bD3peLR5EdHR8+fP1/qnwi58tzTf21x+/btnTt3lhADHtexAjt37rx9+7YrmV7KqKckaJoG/1OnjvO89NDr6H/qJJPJ+fn50pJAi/pTYH5+PplMllq73Xru9Z7www8/7Nu3r/5mGUZcWoF9+/b98MMPbmV6Kbtek6BpWldXV2lVoEX9KUC+j7RUxrr13AcSfvnll0QiUX8TDSMupkAikfjll1/cSnMbdn0gQdO0L7744tNPPy0mDDyrJwU+/fTTL774wka6utjEHxI0Tdu/f//evXvrabphrNYK7N27d//+/S7muD3TvpGgadpXX33V29tbV1+YYJ0L9Vo7NzfX29v71Vdf2ctVd1v5SYKmabdu3YrH46lU6vLly/WaD/U47suXL6dSqXg8fuvWLXcT3LZ1n0kgcd64cePjjz+ORqO9vb07duz4z7q5NuOrbob7nzt27Ojt7Y1Gox9//PGNGzdsZ6kXDWuCBHmg+Xx+rm6uXnzVzXDR94bJc11T5ZojoabUcTuYFL7c9gL27SgAJNhRya02QIJbypZvF0goXzPnegAJzmlZrSUgoVoFq+kPJFSjnrN9gQRn9SzPGpBQnl5utgYS3FS3lG0goZRC3j0HErzT2uwJSDBr4lcNkOCX8sgvkOCn+nrfQIJeD2/vgARv9S7mDUgopo7bz4AEtxW2bx9IsK+V8y2BBOc1rdQikFCpck70AxKcUNEZG0CCMzpWZgVIqEw3N3oBCW6oatcmkGBXKffbAQnua1zYA5BQWBuvnwAJXisu+wMSZDX8LQMJXuufy+V27dpFvMokqKqay+W8jgb8MQWABKaEVz8zmYyiKOS3XHESVFVVFMWvL+X2aug17QdI8GF6WlpaCAyEBIJBc3OzD6GAS6YAkMCU8PCnqqrBYDAUCrW2tra3tweDwYaGBlVVPQwBXBkVABKMinhwn8vlQqGQoiiEAQVf8JLggfJFXAAJRcRx8dG6desIAOTPTZs2uegMTNtQAEiwIZILTTKZTDAYJBg0NDTAu7ILGpdnEkgoTy8HW5P3ZkVR4F3ZQVUrNgUkVCxdtR1VVW3EF7wrVyulE/2BBCdUrMhGLpcjByR4V65IP4c7AQkOC2rH3KVLlz7//PNYLLZ48eKlS5fGYrHPP//80qVLdvpCG5cUABJcEtba7MTERFtbW0tLSzQaPXjw4AC+hoaGotFoS0tLW1vbxMSEdU+odVkBIMFlgZn5+/fvd3R0rF+/fnx8nNUZf46Pj69fv76jo+P+/fvGZ3DvsgJAgssCY/Ozs7Pr16/v7++346y/v3/9+vWzs7N2GkMbpxQAEpxSsqCdx48fv/HGG7t37y7YwvRg9+7db7zxxuPHj01PoMItBYAEt5TldmOxWHd3N78lhdOnTycSif+Lr0Qicfr0aUOD7u7uWCxmqIRb9xQAEtzTFlk+ffp0S0uLvLo/ePBg48aNjY2NzzzzTAO+nnnmmcbGxo0bNz548IBH8/jx49WrV5sJ4Q2g4KwCQIKzehqtdXR0DA4O8trHjx+/8MILjY2Nz5muxsbGF154QWZmcHCwo6OD94WCqwoACS7K+/DhwyVLlty9e5f7eOedd5599lkTBbTi2Weffeedd3jju3fvLlmy5OHDh7wGCu4pACS4p6323XffbdiwgTu4cePGU089tXjx4kIkLF68+KmnnpK/im/Dhg3fffcdtwAF9xQAEtzTVjtw4EBPTw93cOjQoaampkIYkPqmpqZDhw7xLj09Pf8ywm+h4J4CQIJ72moDAwPbt2/nDrZt2/b0008XJ+Hpp5/etm0b77J9+/aBgQF+CwX3FAAS3NNW++STT1KpFHcwMDCwaNGi4iQsWrRITv1UKvXJJ59wC1BwTwEgwT1ttcOHD7/77rvcwbFjx+ycjo4dO8a7vPvuu4cPH+a3UHBPASDBPW21mZmZV155RXawZMkSy49QyUbR2Ni4ZMkSuf0rr7wyMzMj10DZJQWABJeEpWZfeuklOZWHh4cXL15s+UHqYnwNDw/zgGZmZl566SV+CwVXFQASXJUXvTR3dnbKPrZu3RoMBg0vDIsWLQoGg1u3bpVbdnZ2yu8M8iMoO64AkOC4pDqD9+7d++Mf/3jmzBm59siRI88///yiRYuampqWLFmyaNGi559//siRI3KbM2fO/OlPf7p3755cCWX3FAAS3NOWWk6n062treb/cnDlypUpfF25csUQxP3791tbW9PptKEebt1TAEhwT1thecuWLW+++eadO3dEVeHS/Pz8m2++aTgpFW4OT5xRAEhwRseSVlKp1F/+8pdvv/22eMtvv/12zZo18t9CFG8PT51SAEhwSsnSdo4ePbpmzZq///3vx44de/LkidzhyZMnx44d+9vf/rZmzZqjR4/Kj6DsjQJAgjc6Cy+HDh3asGFDKBR6/fXXN+Hr9ddfD4VCGzZskP/FkegAJU8UABI8kdnk5MGDB+fOnfv/+Dp37pz8f3RMbaHCCwX+F2yP/E8C7S4GAAAAAElFTkSuQmCC;" vertex="1" parent="1">
          <mxGeometry x="180" y="480" width="259" height="289" as="geometry" />
        </mxCell>
        <mxCell id="6gBzvza-OcvXsySnCAHP-9" value="" style="shape=image;verticalLabelPosition=bottom;labelBackgroundColor=default;verticalAlign=top;aspect=fixed;imageAspect=0;image=data:image/png,iVBORw0KGgoAAAANSUhEUgAAAksAAABgCAIAAACCK6GJAAAgAElEQVR4Ae1991+TWb7//SvuS3e8M3vvzN7ZdesUdVcRxRGkIwGS0Js0qUrvvQdEpTdpoYZeE6QFQigSSAhJCAESEiAESFmnrLOjfPl6vvf55sV43VESDHDOD7wOyfN8ns95f877vE998m97MEEEIAKqRqCiouLChQtnz549c+bMRx995O7uvrq6quqHQHsQAYjAv0Dg3/7F9/BriABE4N0REAgElpaW586dO3PmzGeffUYgEL777rt3NwPvgAhABA6FAFS4Q8EHb4YI/G8IREVFff7557/61a9u3LgxPz//v10GP4cIQATUhwBUOPVhCy2fagTGxsZ0dHTOnTuHw+G2t7dPNRaw8BCBD4TAGxTu5cuXEomEy+WyYIIIQATeF4GZmRlDQ8Nf//rXT548YTAY72sG3gcROO0IsNlsPp//ww8/vHr16l2F8qDCvXz5ksPhlJeXh4aG+sAEEYAIHAIBHR2dL7/80t7e/hA24K0QgdOOgJ+fX0pKytOnTxUKxbuK3EGFk8vlaWlp9vb2aDTaCiaIAETgEAiYmJgYGRmhUKhD2IC3QgQgAlZYLPbOnTtTU1M//vjjOw3jDiocjUYLDAyE8gbrFEQAIgARgAhoDgLW1tZ4PF4qlR5K4chkso+PD1Q4zYkr9AQiABGACEAEMBhMYWGhRCI5lMLR6fSgoCCocLA+QQQgAhABiIDmIGBtbV1XVyeXyw+lcFKpNDc319HREQuTpiIA+h+a6h30CyJwnBCAbDoW0cJgMP7+/jMzM4ddh9vb2+NwOMXFxcnJyYkwaSQCXl5ezs7OERERGukddAoicJwQgGzS/GglJSWlpaX19/f//e9/f6cB3N7e3sGdJuD+H3/8USwWr62tCWDSPATy8/NjYmImJiY0zzXoEUTgmCEA2aT5ARMKhc+fP3/58uXeu6c3K9y724F3HB0CDQ0NOBxubW3t6B4JnwQROKEIQDad0MD+v2JBhTt+8YWcPH4xgx5rKgKQTZoaGdX4BRVONTgepRXIyaNEGz7rZCMA2XSy4wsV7vjFF3Ly+MUMeqypCEA2aWpkVOMXVDjV4HiUViAnjxJt+KyTjQBk08mOL1S44xdfyMnjFzPosaYiANmkqZFRjV9Q4VSD41FagZw8SrThs042ApBNJzu+UOGOR3xfvHixvb394sWLvb09ZU7u7u5+++2373dS5HiUHHoJEVA1ApBNqkZUc+1BhdPc2Ch7trGxUVBQMDEx8cMPPyAKJxaLCwsLqVTqDz/8oHwxzEMEIAJvQQCy6S3gnLCvoMIdj4AKBAITExM7O7uxsbHKykocDjc9PZ2VlfX11183NjZ+9913x6MY0EuIgAYgANmkAUE4Ihegwh0R0Id/TFRU1G9/+1s7O7uIiIioqKjg4OAvvvjixo0b8/PzhzcOLUAEThUCkE2nJNxQ4Y5NoMfGxm7evPnxxx9raWnp6en99re//eSTT3A43Pb29rEpA3QUIqAZCEA2aUYc1O4FVDi1Q6yqB3z//feurq6ffPLJR6/T2bNn//jHP46Ojv7000+qegS0AxE4JQhANp2SQEOFO06BrqiouHDhwtmzZ8+cOfPRRx+5u7uvrq4epwJAXyECGoMAZJPGhEKNjkCFUyO4KjctEAgsLS3PnTt35syZzz77jEAgwD0mKgcZGjwlCEA2nYZAQ4U7ZlGOior6/PPPf/WrX8E9JscsctBdzUMAsknzYqJij6DCqRhQdZujUCg6Ojrnzp3D4XA7Ozvqfhy0DxE4wQhANp3g4IKiqUvhXrx4IZPJNjY2VlZWeDCpDoH5+XkTE5P//M//rKmp4XA4qjMMLfGEQqFEItGod8RAHqm1XkI2qRVeHu/Dc0rFCvfy5UuxWLy0tESn00dHR/v6+ggEQiNMKkXAz8/P2to6Ly9PpVahscbOzs7BwcHp6WkWi7W6uvr999+/evXqg3RyIY+OrDpCNqkV6g/OKVUq3M7ODofD6e3traura21tnZiYWFpa2tnZUcCkUgQWFhaePXsmFotVahUaUwiFwvn5eRKJVF9f39TUNDU1JRAIwLtAj1LnII+Osi5CNqkV7Q/OKdUo3KtXr4RCYX9/f21t7dzcHFQ1tVYaaPwIEBAKhR0dHc3NzXNzc99+++3RKBzk0RFEFj7iQyHwQTilGoVbWVkhEAjDw8NwYPGhag98rjoQWFhYaGhoGB8fPxqRgzxSRxChTY1C4Ig5pQKFE4lEtbW109PTu7u7GgUldAYicHgEhEJhbW3t5OTk999/r9aRHOTR4YMFLRwLBI6MU3t7e4dVOIVCQSAQJiYmtre3jwW40EmIwLsisLq6Wl9fz2KxfvzxRzWJHOTRuwYFXn+sETgCTgGqHlbhhoeHnz59urGxcazhhs5DBN6OAI1Ga2tr29raUpPCQR69HX/47clDQN2cUoHCSaVSPB6/uLh48tCHJYIIHECgrq6OwWCoY2sl5NEBqOG/pwQB9XEK6Ykeagw3NDQ0NjYGd5eckup4yovJYrE6OzvVMYyDPDrlVevUFl99nFKNwlVXVy8sLJza8MCCnyoE5HJ5RUUFn89HyKOqDOTRqapIsLAIAurjFMLN9x/D/fOf/8Tj8Ww2G3EXZiACJxuB6urq5eVl1b7oBPLoZNcZWLq3I6AOTiHydqi9lFKptLW1lcfjvb0A8FuIwIlBoKOjY2FhQbU7KiGPTkz1gAV5DwTUwSnVKNzy8nJfXx+fz3+PUsFbIALHEYHh4eHJyUnVnv6GPDqONQH6rCoE1MEp1SjcwsLCwMCAUCh8S1FZLNaz/0nz8/NisVgul7/levgVRECTEZicnBwdHVUoFMoUOmT+l/AIYLK6usrn8+F7FTS5hkDf3hUBdXBKmZLvvw7HZDIHBwdFItFbihQZGRkQEBD+OkVFRdXU1AgEgrdcD7+CCGgyApOTk2QyWbUK90t4pFAoZDJZSUlJXl4eXBfQ5BoCfXtXBNTBqaNTOC0trZCQkPLXKSkp6ebNmz09Pbuv09ra2ur/pI2NDZlMplD835e70+l0Go22srIC+qpyuVwoFIILhUKhVCoFCK6vrzMYDDqdvrGxAcaFu7u7b7T58ytFIhHSEZZIJGKxGDwdWN7a2hIIBP/j2urm5qayb3Q6fXNzEzzx576JxWI+n4/cKxAItra2EK+QYioUis3Nzfn5+dnZWZFIBOyLRKLNzU0Wi4UUamtra2NjQyqV7uzsgMzu7q5QKATOr6+vgwcp9+s3NjaYTObMzAyXy0Xefw0QmJubA1htbGwoO6mMKggBcuPm5qZEIpHL5TKZjMfjzc7Ozs3Nra+vy+XyrdcJeK6cFwgEc3NzNBqNz+eDYO3s7CAIrK7+fzzX1tbodDqDwXjjyP7nBVlfXxeLxSwWC/EBxAs8cX5+fmtrS6FQSKXS9fV1JL4ikQgUZ3t7GwkriLhUKgWoKnNSKBQixVf+HOTVwcZfqHBcLtfDw0NPT294eBjALpfLRSIRAEoZRrlcvrS0RKPROBwOUvbNzU0QDmV8Njc3kZqAlFoikbBYrJmZGRaLJXmdENxAfdvZ2ZHL5SsrK7OzswsLCxKJRKFQ7O7ubmxsCAQCOp3OYrEOvOFImSnKI9Hd3V0Oh0Oj0ZaXl5GQKZNoe3v7AK9XV1e3trZEIhFwRiAQIJ5LpVIul0uj0ZaWloA1UDNB1QWPkEqlSIhBBsC4tbUll8slEglSWFDzFQoF+KkHGo2mDPL29jaLxZqdnQX1XPlGBCWk/iA8UigUyg0On89XJsv29jYSJuU84O/MzAxSLqlUqsyp9fV1UCUQpgOSIg6AjFgsXlhYmJmZYbPZIEAbGxtisZjD4czOzgqFQmBEoVAc4KZMJnsjp3Z2dhC4NIpTR6pw3d3dAF+pVIpGo588ebK5uclms/Pz87OysnJyctLT09va2kQiEZvNLioqioqKCg0NTUlJmZ2dBY17cXEx7nUqLi5eXl5WKBQ8Hq+8vDw6OjoiIqK8vHx5eVkul3M4HGWbra2tIpHowJU8Hm93d7esrAw55DA6OkoikZRHokNDQ48ePcrOzs7JyUlLS+vo6FhfX2ez2YWFhREREWFhYRUVFSsrK3K5XCwWFxUVAd/Ky8tXVlaGh4cLCwszMjJSUlKys7PLysrGxsYQr/Ly8qhUKmhqa2pqYmNjw8PDCwoKOByOTCarrKwsLS1NSkoKDQ0tLS1dXl6mUChlZWVzr1NLS8vKygqRSCwpKVlaWlIoFDU1NVlZWdnZ2TgcjsPhKBQKgUBQWVkZFxcXFhYWGxs7Nja2vb3N4/GePHkSHR0dHh5eXl7O4/F6e3vz8vLS09NTU1Ozs7PxeLzyYmpJSQmTyQQha29vHx8fl0gkIyMjmZmZERERwcHBJSUlq6urT58+HRwcBO+yQfIMBiMvLw9EMCMjY35+XiaTzc3N5eXlgVinpaX19PRsbGywWKz8/HyAZ1VV1erqqvL0NZ/Pr6ioOFAQPB5fXl6enJwcGhpaWFi4tLQkl8vn5+dzc3MjX6fGxkbQGaqrq+NyuaAI5eXlDAZDLpdPT0/n5uZmZ2enpqYSiUTwK4YNDQ0ATHCxQqFQLj7yIZL5gApXUlKSk5Nz9+7dqqoqsDQgkUjKysoKCwsTEhLCwsLq6urW1tbkcvnY2FhGRkZ4eHh8fDyJRBKLxdPT093d3WD6hM/n19bWAny6urpycnIePHiQmJg4Ozsrk8nEYnFjY2NCQgKYd+nr6xsfHy8rK8vKykpKSgJBZLPZz549y8rKCg8Pj4iIaG5uBuStrKzMycmJjo6Oiorq6+tTPiYrkUgAU8Dj0tPTWSzWzs5OV1dXYmJiaGhocnIyqK4KhYJIJD58+PDBgwdJSUnT09PLy8vV1dU5OTmJiYk4HC4nJ4dCoTx58gQw9MGDB83NzWtrazKZbGBgIC0tLSwsLCkpaWRkRCKRkMnkmpqa9PT08PDw1NTUycnJpaWlJ0+eEInEzc3N0tLS+fl5JpNZWlpKoVC2t7fJZDLgfnJy8ujoKNDXrq6ulJQUUPkJBIJIJNra2mptbQUoZWVlzczMUKnU0tJSHA6XnJyclZX18OFD5fdgtLW1AR4pFIrx8fG+vj7QlQdVNzQ0NDMzE/yIT2dnJyDjzMwMyPN4vLKyspiYmNDQ0Pj4+MnJyd3d3ZWVlYKCAhCOjIyMhoaGtbW15eXlsrIywL6ioqLFxUVEsRQKxfr6em1tbXx8fFhYWERExMDAwNbWVnNzc0VFBeDU48eP2Wy2TCZjsViFhYWRkZERERF4PF4gEAiFwpqaGqREVVVVoLbQaDRA7dTU1L6+vs3NzaWlJU3g1JEqXGZmJolEIhKJdXV1ZmZmXV1dOzs7JBJJV1fX0dExMDDw5s2b9+7dY7FYZWVlDg4O6enpjx8/vnLlSn5+vkgkEgqF169ft7a2trGxMTQ0pFKpCoUiJyfH1tY2LS0tPT3d2Ni4rq5OLBYPDAzcvHkTsenv77+wsIBcmZGRYWJiUltbKxAIdHR0ent7QbMFOIkInkKhSEtLMzY29vDwCAwM1NHRCQkJYbFYCQkJGAwmNTU1Pj5eV1e3vr4eNJE6Ojo2NjZoNNrc3HxqaqqjoyMmJsbMzOzixYuurq5JSUnV1dWIV3p6eqCklZWVWCw2MTExOzvb1NS0uLhYKBQaGBhcuXIlLi4uKSkJPKK9vR2FQqWnp1dWVrq7u/f29lpbW3t5eQEFMjU1RaPR7u7uf/nLX54+fapQKPr6+qytrRMSEgoKCgwNDaOiorhcrjICxsbGtbW1ZWVlERERurq6Wlpa7u7u2dnZyq28trZ2V1cXAMfb27ugoGB/PO3r6+vj45OXlxcfH3/x4sX+/v74+PiUlBTQUMbHx6elpXG53OzsbGdnZ9D0XLx4saKiQiwWEwiEW7duubi4BAYGXr16NSYmhsPhREdHY7HY9PT02NhYXV3dpqYmMAIDz+3p6bGxsQEFMTAwiI6OXlpaQqFQly9fjoqKSklJuXnzZnV19draWkREhJOTU3Z2dmxsrJmZWW9vL5VKtbKyGhkZAaZu3rzZ1tYmk8kqKioMDAzu3Lnzt7/9LSkpaWVlZWxszMbGZmxsDFwJ/mppaSF9MuXPQf5DKZxYLPbw8Ojq6urv779///6zZ8/AaPvq1as6OjqpqamRkZH6+vq9vb1LS0tubm7e3t6PHj26d++eg4PD5OTkkydPAgMD5+bmFArFzMyMpaUlwCcgIMDc3NzHx+fTTz9tamra3d2l0Wg2NjaRkZFFRUV2dnZ37typqalJSkpycnI6f/68vb19YGDgfmN99+5de3v7Bw8eBAcHGxoakkikvr4+LS0tMzOzzMxMb29vLBY7MTGB9FqEQqG2tra1tXVgYKCvr+/vfvc7Eok0OTlpYWHh7++/rwfW1tbe3t7z8/MKhSI8PNzMzOzu3buff/55dXU1k8nMzMwMDAz8+OOP0Wh0YGAgkUg0MjKysLAICAhwc3O7fPkyiURiMpkODg7+/v6PHz/28vLy9PScnZ3Nzs6+fPmyq6trdna2paVleHj4yMhIREQEBoOhUqna2trt7e1xcXHW1tYdHR1bW1sZGRmA+3/+85/z8vLASNHBwSEoKKioqMjHx8fU1JRKpT59+hSLxUZERDx69AgQGXQL7Ozs/vCHPzg4OAQHBzMYDKT+eHl5FRQUrK2tKRSKgoKC8PDw+fn5zMxMFxeX7OzsBw8eXLhwobq6ury83M/Pj0ajKRSK2tpaf39/Go3W1NRka2ubnJycl5f3zTffpKWlra6u7tfDGzdugHAYGRm5ubnR6fRHjx5ZWFgkJiampKTo6uqWlpaur68jPlAoFGtr65iYmMLCQisrKz8/PyaT6eLi8re//S0kJCQjI+PWrVtFRUUCgSAhIcHR0RGHwyUmJpqYmLS3t8/MzNy+fXtoaAhYMzY2bmxs3NnZqampMTAwcHV11dLSiouL4/F4GsKpI1U4AwMDZ2dnBwcHHR2d27dvj46OSqVSEonk4uIC5CorKysuLo7FYnV0dDQ2Nvb39/f19aHR6ISEBB6Pt7i4aGpqOjAw8PTpU2dnZzAGMjAwiI+P7+7uJpFI3t7eQUFBYLneyckJkcCYmJi5uTnlK318fIKCgmg02r9UuMTERDAqSktLS0xMfPbsmb6+flNTE5gPiYmJiY6OZrPZdDrdwsJieHi4q6vL3d19amoK1AA8Hh8QEABq6sDAABaLra+vn5qaSk9P9/T0pNFoaDQ6LCysra2NRCJFRka6u7vTaDQDA4OkpKTV1VWFQhEfHx8XF8fhcIhEopubW3BwsKWl5b1797y9vYFZmUymr6/f3t7O4XCMjIyAwpHJZDweT3yd/Pz8vLy8pqenDQwM4uLiurq6SCSSj49PYGAgEMifSztwXltbG3RKSCQSCoV6/Pjx4uJicXFxd3f30NBQe3v7n/70p9bW1oyMDADm5uZmWFhYcnIyl8utr69vbm4eGBjo6ekxMjLaFzyBQEAgELy9vUGjHBsbm56ePj09ra+v39LSAqaSwsLC9lsZpIeoUChGRkaQgvj6+np7e+/PZ6JQqJiYGLAKBQaU/f39urq6OByur69vv42ztLTMyMggEokmJiZ5eXmk1+nrr79ubW2VyWT5+fmRkZFMJjMsLCw7Oxso3O3btwsKCkgk0vDwMJfL3d3d1UyFGxoasrGxaWhooFKpxsbGTU1N29vbQqHw8uXLRUVFYNrcw8Pj0aNHFRUVt2/fLioqIpFI3d3dV69ebWhoKC4udnJyqqioIJFI5eXlBgYGQOHc3d1LSkpEIpG+vn5zc/Pu7i6dTq+oqOjr6+vv709OTrawsACEmpycxGAwYA1yamrq9u3b/f39crlcKpU6Ojrm5uY2Nzdfv369q6sLzP0aGhoSCARk/lAoFOrp6ZFIJCDMIJ+VlRUUFASUgMlk6unpEYlEuVweEBCQl5e3P+Fpbm5eV1cHZkEVCsW1a9c6OzuBalpaWmZlZY2Pjw8PD3/zzTetra3FxcVYLLa8vJxEIrW0tFy+fLmzsxOHw2EwmMnJSYVCQaFQUCjUyMjI+vq6k5NTbm7un//857S0NAsLi46ODuBqXFxcenr60tKSq6srQIbH45WUlPT09AwODhYVFV27dm1wcDAsLMzLy6u+vp5EIuXl5ZmYmID9R2Qy2d7enkKhILoCMl5eXmFhYftekUikoKCg+/fvz8/P19bWtrS0ALIYGBjk5ORUVlY6OjoODQ1tbW2VlJTsCyqNRiORSHV1dWCQ4OrqGhQUxGKxlMNRWloaEhIyOztrYmJSWVkJhs6PHj3a777Q6XTEk6mpqaqqKhDZqKgoOzu76elp0O8EZ5qLi4v9/f2HhoZ0dXXT0tJ6e3tJJJKdnV1CQsLAwICBgcHjx48Bp65cudLQ0LCzs1NcXBwWFsZgMKKiojIzM4HCaQKnjlThwNQclUolEolYLBb0ZX6ucAsLC729vQkJCT4+Pg4ODr/73e/Cw8OXlpbIZLKjoyOFQkEUjs/na2lpGRkZOb9OVlZWwcHBb1S48fFxLS0tQ0ND5SvfQ+EGBwdNTEwGBgZAdSktLQ0KCqLT6fvTm3fu3JmYmHi7wunp6d25cycoKOjq1au+vr4sFktHR+fWrVtOTk7Ozs5YLNbT0xOIMR6PB3wGtZbBYAgEAgcHB319/QsXLnz99ddZWVlAAgUCgaGhYX9/P5fLRRRufHw8PT3dz8/P2dn54sWL9vb2IyMjBxAAvQEwDo6OjlYevILSaWtrg06Js7Pz73//+6ysLBaLVV1dHRYW5unpicFg/v3f/725ubmrq8ve3j41NbW0tNTMzAyMzNrb22NjY729ve3s7D777LPU1FQ+n/9zhevv7zc3N0e6hAUFBaGhoaD/DnxACuLk5HThwgUHBwegcOXl5Zubm0gPt6KiQltb29TUFMQXDCD6+vquXbuGfHju3LmWlhaZTBYTE4PD4Xg8nrLCXbt2zczMzNnZ2cvLKzExkcFgXL58WdPGcDKZLCIiwtzc3N/fPzw8/NatW8HBwWw2WygUXrt2DZmNiI+PT01N3Z+g09HRsbS0BJjo6+vX19fn5+ffuHEDfIhCoS5dujQyMiKTySwtLRsbG7e3txGFm5+fz8nJuX//vqur6/Xr13V0dMbHxxUKhXKT2tPT4+rqOjExAYIVFRWVkZFRV1dnbW2NDIhtbGyqqqpAsJRVTTkfEREBIgL20ejo6HR0dEilUltb25qaGrFY/HaFw2AwwcHB9vb2Fy9e7OvrS0lJuXHjBhqNBgXX09Pr7u5OT08PCwsDXTqBQKCvrw+EGYfD2dvbnzlzBsyvTE9PA+H08vICEyrKCldQUBAcHOzu7m5kZHT+/PmBgQEXFxddXV1bW1vQdzczMwP9gLconJ6eHrj+6tWrHh4ec3Nz7e3tMTExgCyffvppRkYGmUy2s7OLjo4uLy93d3d3cnKi0WhDQ0MpKSm+vr6Ojo5/+ctfvLy8FhYWlMMB2oqpqakbN2709PSAoLS2tnp4eCB9bjB2z8rKCggIcHFxuXr1qomJydTUlIuLS15eHhhcdnd3u7m51dbWgm8BjObm5omJifvLENra2iYmJuDDTz75pK6ubmdnJyEhAXQIlBVOEzh1pAqHtBdyuTwpKSk2NpbNZhOJxANjuNnZWTMzs3v37rW2tlIoFBcXl/j4+KWlpeLi4oiIiPn5eUThxGKxvr5+cnLy8PAwlUqtqKjo6OgQiUT9/f0HxnD78+O3bt1KSkpCrmxvb19eXn7XMdzExMR+5QZtwe7ubkJCQkxMDJvNfvjwIRh9vl3hTE1NExISwMKhsbExhUIxNzePiIh4+vQplUqtra1tamoSCAQGBgZZWVlra2u7u7uJrxObzW5oaHB3dw8ODgZzMu7u7mQyWSqVEolEd3d3sK6AKJynp6ebmxsej6dQKJGRkXfv3p2YmNDX1z+AAFjFecsYDumUYLHY3Nzc9vZ2IyOjlJQUIpFIJpO//vrr5ubmra2tsrIyR0dHZ2dnbW3t6Ojo6elpIyOj0NDQjo4OCoViaWmJw+H4fP7+gOPAGG58fNzExKS5uXnndYqKikpISFAew3l4eACyUSiUiIgIb2/vubk5FAqVkpKyuroqlUpxOFxUVFRXVxfo/I6OjlIolOLi4oGBgdHRUTMzs4qKCurr9Ne//rW1tXVra8vJyQmPx4vFYmWFQ6FQVVVVVCoVDHdqamouXLiA1FjQWCj//SCzlIuLixgMBlSh8vLyx48fm5mZDQwMCAQCLS2tyspKsB8ETCOXlJRYWFg8efKEQqEMDQ3l5uY+e/asrKzszp07+9PFVCq1sbHR2Nh4ZGRkcXERhUINDAzI5XJE4VJSUmxtbYuKikZHR/Py8iwtLX+ucOPj42g0uq+vTyqVisViNze3vLw8AoFgZGTU09MDNkGYm5u3tLS8fQyXmZkZEhJCp9PlcjmTybx58yaRSFxZWTE3NycSiTKZ7O0K5+fnV1hYWFRUdOPGjZKSkuzsbBsbGzwePz4+3t/fn5uby2AwcDici4vL5OSkXC4HdXJkZITBYIDx7h//+Mf9RsbW1ra6unrjdbK0tGxvb9/fz4UoXEVFhYWFxcOHD4eGhpqamnR0dAYGBu7fv3/37t2Ojg4qldrW1lZWVgbm+d+icLGxsf39/VQqNTo6OigoiEwmGxkZhYWFAbKgUKgHDx4IBILW1lZ3d3d7e3tTU1MHBwcwaXz37t3GxkYKhRIQEAB6qBMTE1gsFgypgcLRaDRjY2MwhpNKpbm5uQEBAWBeGlTg8PBwR0fH8vJysExrb28PFC46Ohqs2BUXF9+/f59IJN66dQuHw5HJZAqFUlpaSiQSJycnjYyMysvLAaeuXbvW0NCwubnp4uJSXV29ubmprHCawKkjVThkyqu5udnW1jY/P396ejonJ8fZ2Xl6elqhUNy+iBIAABNcSURBVIBZyunpadCEdXR0VFRUXLly5f79+729vaCn1tLS8vDhQ0NDw7a2tu3t7djYWC8vr6qqqpaWFkdHx/z8/KmpqYcPHzo6OoJuS05OTkxMDIvFio2N9fT0BFeCqQkul3vt2rWsrCww4vb393dycqJQKMguTTAzqTxLyWazg4ODfX198Xh8TU2NhYVFVVUVmUy+fft2eHh4W1tbZmYmWGIEO5QOzFJaWloWFRX19fWVl5cbGRmNjIzk5OS4urqWlZW1t7d7enqmpaUtLS0ZGBiYmJiUl5fX1tZisdiGhgZQv6uqqoDOjY2N+fj47PdV92v2vXv3gAY0NDRcvnwZ1Ow7d+6Alf/6+npTU1MMBkOj0eLi4hCsAAJgKfstCndgHW5/6djW1ragoKCjoyMtLe2//uu/amtrkcYLzKmmpaWNjY2hUKjMzMzOzs6SkpKvvvoqNjZ2dHQ0KSkJSNT+JnswS7kvZvfu3fP396+tra2qqjI3N8fj8Uh/f7+b7+rqGhkZ2dzcXF9fb2JigsVi93eyoVAoAwOD0tLS+vp6GxubmpoaPp/v5eUVGBjY0NBQX1+PwWDq6urIZPKBdbj6+vr29nZtbe2HDx8SiUQ7Ozs/Pz86nT46OgpmVHp7exsbG01NTRsbGzVQ4YqLi0NCQpB1Hblc7uHhUVhYyGQyL1++DKB48uSJlZUVkUhkMBh2dnbx8fEtLS1A7QYHB8vLyw+sw7W2toKlqbKysv1VtL/+9a9ZWVlCoTA+Ph7EhUAgODs7X7t2DQzLlAcNGxsbrq6u4eHhjY2NRUVFpqam3d3dvb29ly5dunfvXlNTU3Z2tpOTk/IA4o2zlENDQ7a2tjgcrq2tLTw83MPDY2hoqKCgwMzMrKSkhEQiXbt2LSUlBdkGdWCWMj4+vqurq7OzE/TDSCSSra1tampqW1vb48ePsVjs+Ph4dnb2lStXkpOTW1paAgMDo6Oj6XR6bGxsREQEi8UCBvd37ri6uvb29lZVVenp6YFZa2Nj44iICC6XW1xc7ObmVlFR0draGhgYeP78eRKJRCAQ7O3tHz161NHRERUVde/ePRCdtyjcgXW4/v5+CwsLHA4HyPLll18mJCSsrKwg3SmwDre/oxWNRsfFxbW1te33XHV1dV1dXYeGhkpLS9FoNOh8AIWj0+kpKSkeHh4VFRUNDQ3W1tZgphcxGBwcHBQU1NDQ0NTUZG1tbWBgMDEx4eLioqenl5+f39jY6OjouD+bzefzAwIC/P396+rqGhsbbWxsKisrqVTqgXW4mpoawKmcnBwikejk5OTt7T07O6shnFKZwv3LE9/u7u7IvAEKhQJVoaenx8XFJTU1FdkTWFxczOPxSktLsVgsBoOxs7NzdnbOyMjYr3mXLl0CsytYLPaLL76IjIxcWlpis9mhoaEYDMbc3NzX15dGo/X29rq6uu73QIHN2trawsJCHo/H4XDAlSgUytfXd2ZmRiKRuLm5YTAYMOK+ffv2H/7wh7KyMuQn7ioqKkpLS0FtQ/IMBuP+/ftgR0lSUhKXy71///7FixetrKycnZ3RaPQXX3yRkJAAtnr29PSAyT0wvePi4mJjY7M/1WZubp6Wlsbj8fh8/v7gD41Go1AoNzc3oK8GBgZWVla2trYoFCojI4PH47W1tSUkJMzPz4+MjKSkpDAYDDKZHBIS4u/vr6WlZWpq6ujoaG9vf+HCBRcXFwaD0dnZ6eDggEajsVisl5cXWO7mcDhhYWEYDAZBAOywAhAp7zEBZPDw8AB9Q4VCkZGR0dTUxOFwIiMjrV4nHx8fc3PztrY2ZHUE7D8E+0sfP36MRqMxGAxwLDc3F+weysnJAZOrRUVFlZWVYJN0QEAAwBOpCQgbOzo6HBwcMBgMmMLdH8LOz8+jUCgrKytra2tzc3MQAgCvj48PBoO5ffs2WBxlMpnh4eFg2U+hUHh7e+PxeBMTE21tbRsbG2dn5/118vPnz7e3t4M+rLW1ta2trYmJCZjrdnNzA2sqiDPKGSqVOjo6KpfLlSl0yDyTyXw7j5KSkpqampD6CX4rNScnB0xMmZub29raWlpalpSUgOmmjo4OUCfNzc3z8vL4fH5nZ2dOTg7otC0sLISFhWVmZt68efPWrVv29vbOzs5aWlq6uroTExPj4+OAs5aWlmBmDAgVg8GIjIycmZkBaIyMjHh6elpZWaFQqMLCwv3R5NOnT01NTc3MzLBYrLW19X7XTXkv5cbGhq+vL2iRkbxMJistLbWxsbG0tLS3tycSie3t7bdu3dLT0wNeXb9+/erVq8iylqen58jICJhODAsLs7a2dnJywmAwDg4OYHW/rq7O3t4ejUaDUaxQKMzOzraysrp9+7alpaWnp+f4+DiXy/X39x8YGNjd3QUGNzc3g4KCUlNTb7xOoPG5devWn/70p6GhISaT6efnB2zeu3fPzMxsdHRUIpE8fPgQg8Gg0WhbW9vu7m5Ah2fPnu1vNJudnVWuM2DzWlNTE9j3QSAQcnNzORzOw4cPAVmcnJzs7Ozy8/MBR8C9vb29oA1paGiwsbHBYDA2NjZubm4xMTG1tbWenp77e7VAQNva2h49erS4uLi0tBQeHg64EB4ezmKxlN0YHBx0cXFBo9FWVlY+Pj5gQwD4BNAwKioKLMjNzs4GBAQAO6GhoUwmc3FxcX9LEdJluX//Ph6PNzY2RjhlYmLy+9//vqWlZXJy0sXF5YNzSpmS73/im8fjEYnEt5/gZjAYYGA7MTGBHOYQiURMJhPZO8fn81dWVsCYgMfjMRiMjY2NtbU1Lpdra2ublJQ0MDAAjISEhIDOFzj2tLi4iJz6Wl9fZzKZCKn4fP7y8jKwKZVKla+Uy+V0Oh0YBH8BS5EDA6urq8hpPOX87u4um80Gs2QKhcLa2jotLQ3Mf1KpVH9/f2S7hFAo5HK5YDwnFotnZ2epVOrk5CQ4qwCqnVwu53K5yMGU/cbawMCAQCCwWCzkJBmHwwGP29jY4HA44IAO0NrAwMDu7m7g/4MHD1xdXUGbvr8+T6fT19bWwNE65IiYMgLAAWWIlJmwP4eDDKe4XO7a2ppUKt3d3WUymcBbLpcrEAiQIa9CoVhZWVldXQXbRrhc7vz8/ObmpkAg4PF4y8vL4FgVeMTy8jJy5c7OjnJhlX0AJx8OFASFQtXW1jKZTMQCuAXYQQ5UgYNKSO2an5+nUqnKcyxUKvXq1auNjY0ikQiEhkqlstlsUFuUi3/AJYVCMTw8PDEx8fz5c2UKHTL/dh7J5XLACGVnxGIxm81eWlrS09Pb32G7uLiofJhJoVBsbW0tLCwgYRIKhUtLS6BCAnxKSkpcXV2bmppAFWpqajI0NBweHgYnNefm5lZXV3d2dhA0JBIJm81GUAXnulgsFtimr1AowCICmUzmcDjIEVXEZ6lUCmoFYC6SB0evWCwWOBNJIBD21+DBhhoqldrZ2fnNN98g69/KOIDdFlQqlcFgbL0+ygaetbm5ub9FEPEKbLKdnp4G9AGrgGw2GwgSYnB5ebm+vh6FQtXU1ABAyGTypUuXwBqnRCKZm5sD5GUymchRMz6fz2KxkNOxAPYDKAGvlCkDeAHOFC4uLoI3PfH5fB6PpzwvIhKJkDZkdXWVwWCIRKL19XUOh8Pn85lMJvLctbU15F6pVMrhcBAuIPiDjEgkotPpfD5fIpGA1tLFxaW0tJTBYCCtJbgStHVIe7Wzs7OwsIC0rkwmc2pqysDAoKysDMBFpVJ1dHTq6uqEQqEmcEqZku+vcLu7u+p+83JWVlZPTw+CbHNzc2VlpfJY/kAI3+9fPz+/yspK5Z21v8ROamoqiURChjK1rxMyo/JLLBy4Bo1Gd3R0IOdeD3yr/G91dXV9fT3StyCTyeAsi/I1Jy/v4OBAIBAQwH95AZeWlhISEsAeVHBXdHT0yMiIskj/QmsdHR37Y0TV/gjqe/NIJBJZWFgMDg7+QueVL+vv7y8sLNyfLgYfcrlccCRO+Zp3yg8PD3t7eyPd/He6F7l4ZGQkNzcX+bkSPp8fExODDByRy355Jj8/Py0tDYx13n7XzMwMDodDtjvt7OyEhISATZhvv/FYf+vr61tVVfWuTR/o1MbFxSmHJi4ubnBw8Jc0XwcQUwenVKNwJ+ZXP+rq6sbGxt6j6TwQqkP+u7+kQaPRwBTiIU2dyNvLy8unpqbeg0IqRKOmpmZlZeXly5fKFDpk/r15JJFIwGqcCgv43qYWFhbwePzPJ73f26BKbgR78cHWKpUYPGFGamtrwVH3D1gudXBKmZLvP4bb29vD4/FMJhM51/kBYYKPhgioGwHZ6/fOCAQCZf6oJA95pO7YQfuaiYD6OIUQ81AKNzAwQKFQlGfnNRNH6BVE4PAIcDgc8OYLhDyqykAeHT460MJxREB9nEK4eSiFk0qlDQ0NbDYbDuOOY/WCPv9yBGQyWWNjI4PBUO0iHOAh5NEvDwS88sQgoFZOqUbh9vb2SCTS4OAgsvvuxKAPCwIRUEaAwWAQCASxWIwwR7UZyCNltGH+NCCgbk4Bhh5qDLe3t/f8+fPm5ubx8XGwF/k0BAaW8bQhsLKyUltbu7i4+M9//lO1woZYgzw6bZXqlJf3CDilGoXb29sTCARtbW2Tk5MffDviKa80sPjqQGB5ebm1tXVycvK7775DBEkdGcgjdYQP2tRABI6MU3t7e4cdwwGqLywstLW1jY2NiUQiuCangVUKuvQeCOzu7i4sLLS3t4OXRKtD1Q7YhDx6jzDBW44RAkfPKdUo3N7enlAobGtrGxwcnJubO/CGhWMUAOgqRGD/XV/b29scDmdqaqqxsXF6evr7778/IEXq+xfyCNbAE4nAh+KUyhRub2/vhx9+IJPJBAJheHiYRqOBH6dmsVgcmFSKAOt1UqlJaIzDZrMZDAaotODHbMHPxP/000/q07M3WoY8OsrqCNmkPrQ1gVOqVDhA12+//fbZs2etra1NTU0EAqGjo6MbJpUiUFRUlJOTQyAQVGoVGutuaWkhEAiNjY37v/wnEonUt6/kjcJ24EPIo6OpkZBNasX5g3NK9Qp3gKh///vft2FSKQJlZWUJCQl0Ol2lVk+7sZ2dnQ8raQeIc+BfyCM1VVDIJjUBu729rQmcUrvCHSAq/PfwCDQ0NOz/tOPa2trhTUELEIFTjgBk08muAFDhjl98ISePX8ygx5qKAGSTpkZGNX5BhVMNjkdpBXLyKNGGzzrZCEA2nez4QoU7fvGFnDx+MYMeayoCkE2aGhnV+AUVTjU4HqUVyMmjRBs+62QjANl0suMLFe74xRdy8vjFDHqsqQhANmlqZFTjF1Q41eB4lFYgJ48Sbfisk40AZNPJji9UuOMR359++kkmk/344497e3vKnJTL5f/4xz9evXp1PIoBvYQIaAACkE0aEIQjcgEq3BEBfcjHSCSS6urq2dnZFy9eIAq3vb1dU1NDo9H+8Y9/HNI+vB0icHoQgGw6PbGGCnc8Yr2ysmJsbOzu7j49PV1dXY3D4WZnZwsLCy9duoTH47/99tvjUQzoJURAAxCAbNKAIByRC1DhjgjoQz7m1atXoaGh//3f/+3h4RH7OsXFxX311Vfa2tp0Ov2QxuHtEIFThQBk0+kJN1S4YxProaGh69evf/zxxzo6OiYmJufPn/+P//iPlJSUra2tY1MG6ChEQDMQgGzSjDio3QuocGqHWFUPeP78uZOT08cff/yr1+ns2bPnz58fGhrS5PcFq6rs0A5EQLUIQDapFk+NtQYVTmND8wbHioqKvvrqq7Nnz545c+bcuXNOTk7Ly8tvuA5+BBGACPwrBCCb/hVCJ+F7qHDHKYorKyvm5ubnzp07c+bMp59+WldXB/eYHKf4QV81CQHIJk2Khrp8gQqnLmTVYReskP/mN785e/Ys3GOiDoShzdODAGTTaYg1VLhjFuWhoSFtbe2PPvoI7jE5ZpGD7moeApBNmhcTFXv0BoV79eqVVCrl8/k8mDQPgbm5OUNDw1//+teVlZVsNlvzHIQeQQSODQKQTcclVBsbGy9evHgP9TuocK9evVpeXm5oaEhOTo6CSSMRuHnz5pdffnn37l2N9A46BRE4TghANml+tKKjo3NzcykUyvPnz99V5A4qnEKhyM7OdnBwQKPRVjBpJALGxsYGBgYoFEojvYNOQQSOEwKQTcciWlgs1svLa2ZmBryb95fr3EGFm5ubCwoKgvKmyVG3fJ002UPoG0TguCAA2XRcImVjY1NXVyeTyX65vO3t7R1UODKZ7OPjAxXuuEQd+gkRgAhABE4DAmg0uqCgYHt7+1AKR6PRAgMDocKdhhoDywgRgAhABI4LAlgsFo/HH3YMt7Ozk5OT4+DggIUJIgAROBwCGAwGjUZjMJjDmYF3QwQgAlgfH5/Jycl33VF5cJZyb29vbm4uPz8/Pj5e8/fYQA8hApqMgLu7u6OjY3BwsCY7CX2DCGg4AtHR0cnJyZ2dnXK5/J2mKN+wDgfuf/78+crKChMmiABE4BAIZGdnh4SEPH369BA24K0QgdOOAIvFkkgk7/eK+TeM4d5VJOH1EAGIwBsRQH6N/Y3fwg8hAhABdSMAFU7dCEP7pxcBqHCnN/aw5JqBwP8Bs6WVS96a6WkAAAAASUVORK5CYII=;" vertex="1" parent="1">
          <mxGeometry x="500" y="500" width="587" height="96" as="geometry" />
        </mxCell>
        <mxCell id="6gBzvza-OcvXsySnCAHP-12" value="" style="shape=image;verticalLabelPosition=bottom;labelBackgroundColor=default;verticalAlign=top;aspect=fixed;imageAspect=0;image=data:image/png,iVBORw0KGgoAAAANSUhEUgAAAn0AAABcCAIAAACUfpQgAAAXfUlEQVR4Ae2dz2sUWdfH82fUYpjACDZkkWc3f4G8G19mMbwJGTD6LgR3z+Di3SRGkkxgRp7HHzHJ4CSdH5vxKdLpdEAwGsfMYiYuQsZfMUMiBLQxRlBDB0FQxHq5v8691VWtXZ2q7qrqby3Gmup7zz3nc873nqpKR1scHCAAAjEmYNv2F1988eWXX9q2HWM34RoIgEC1BFqqHYhxIAACjSBQLBZbW1styyoWi41YH2uCAAiETID13b29vStXrvwfDhAAgVgS+Oqrr9ra2mLpGpwCgaYmcOXKlb29vaBtueX9+/enTp3q7OzswAECIBBLAv/Fj1i6BqdAoKkJdHZ2njp16v3794Fab8vS0lJ3d3dTk0PwIAACIAACIFATge7u7qWlpWB9d3Z2tqa1MAkEQAAEQAAEQKBjdnY2WN+dm5vDS2YUDgiAAAiAAAjUQKCzs3Nubi5Y393Y2Dh+/HgNi2EKCIAACIAACDQ5gePHjz969ChY33UcZ25urqur639xpIjAN998k6JoEAoIpJAARJqCpHZ1dQV92HUcR/7+7t7e3gaOFBGwLCtF0SAUEEghAYj0gEl91OhjY2Ojhl8i0n030DMyBsefgGVZ8XcSHoJAMxOASJs2+/j7qtKZekg6nXlFVCkiAJGmKJnBQkHfDcYrKaMh6aRkCn42LQGItGlTj76bztRD0unMK6JKEQGINEXJDBYK+m4wXkkZDUknJVPws2kJQKRNm3r03XSmHpJOZ14RVYoIQKQpSmawUNB3g/FKymhIOimZgp9NSwAibdrUo++mM/WQdDrziqhSRAAiTVEyg4WCvhuMV5xH27ZN/zQ6SbpYLNq2HWe34RsINA8BiLR5cv2JSNF3PwEnYR99++237e3tovWKvlssFo8cOfLdd98lLBK4CwIpJQCRpjSxwcJC3w3GK86jV1ZWLMsSrdeyLNF0LcvC826cswbfmooARNpU6a4ULPpuJTLJu14sFi3Lam1tbW9vtyzryJEjFj+SFwk8BoGUEoBIU5rYYGGh7wbjFfPRfX19lmUdPnxYdFzLsr7//vuY+wz3QKCpCECkTZVu32DRd32xJPVisVg8dOgQNd1Dhw7RN62SGhL8BoF0EYBI05XPWqJB362FWpznHD16lPouvlEV50zBt6YlAJE2bepF4Oi7aSuAlZWVTCZjWVYmk8E3qtKWXcSTCgIQaSrSWHsQ6Lu1s4vnTPHFDfHIG08P4RUINDkBiLTJCwB9N4UFIL64gW9UpTC1CCktBCDStGSyljjC6buvXr26d+/ejRs3crncH3/88R8cDSUwNjZmWdbY2FhDvcDi//nhhx9yudyNGzfu3bv36tWrWgQawZzt7e2FhYXR0dF/4WgcAdF3+/r6GucCVv7X6OjowsLC9vZ2BDr7lMmD9t3Hjx/btj08PFwoFP7888/19fUNHDEgcOHChRh40ewu/P777+vr6ysrK4VCYXh42Lbtra2tT8kxys/evHlz8eLF3t7emZmZtbW13d3dEo6GEpienm7o+li8tLu7u7a2NjMz09vbe/HixTdv3jh1OWrvu6VSaX5+PpvNrq2t7eMAARD4HIG1tbVsNlsoFEqlUl3UrReZnJzs7+/f2tr6nI/4HASalMDW1lZ/f//k5KSWTWRnNfbdYrE4NjZ2+/btJk0RwgaBWgncvn17bGysnr9Xffbs2aWlpVr9xTwQaCICS0tLZ8+ejazhSsO19N1nz55duHABj7lNVIwINVQCa2trFy5cePbsWdTydhynt7cXj7mhZg/GUk5ga2urt7c3Um0G7rtv374dHx9fXV1NOXuEBwJRElhdXf3ll1/evn0bqbz7+/s3NjaijAO2QSCFBDY2Nvr7+6PTZuC+u7i4eP369RSSRkggUF8C169fX1xcjE7bhUIhn8/XNyasBgIpIZDP5wuFQkTyDNZ3nz9/Pjw8nBKuCAMEGk1geHj4+fPnEWm7t7e30fFhfRBIMIHo3jYH67s3btxYXl5OMEi4DgJxIrC8vBzRI2+hUIBU45Rq+JI8AsvLyxE98gboux8/frx06dLu7m7y+MFjEIglgd3d3UuXLn38+DH0R94zZ87EMmI4BQJJInDmzJnQtek4ToC+++zZs2w2myRm8BUEYk8gm81G8cXmgYGB2IcOB0Eg7gQGBgYa3HcfPHhQKBTizgn+gUCiCBQKhQcPHoSr7SdPnszMzCQKA5wFgTgSmJmZefLkSbjyDPa8e+fOnZs3b8aRDXwCgcQSWFpaunPnTrjCXl1dxS8dJLYi4HiMCFy/fn11dTVceQbruysrK7du3YoRErgCAskncOvWrZWVlXCFDakmvy4QQSwIRCHPqPpurqulpW3oYSy4wQkQiDWBKIRdRd/NdbSYR2boXqwpwTkQaAiBKOQZTd+9N5Rp6+hog5IbUidYNGEEohB2lX23w5asHg5mcKOcsLqBu3UhEIU8I+m7DwczmcGHTMldOUXm4VBbS8fgUIbfYWcG1ZPwPXmlpaVDDrU7aJZhgU2nw7VZyKusx7Px5iEeuG11W0/P33ZHS9vQUJcYqtZVju5rl/gACsFrZ998YuA3GTRGutGRc1nTa7H3AfxQKLx8eMjcZ+LAZwkjnqWZ/wYlCta4yLmZE5kHBJMDIAvkKl2hFxjGFXM6xa6WznW1ZAaHJH2J8eEQ3Y3xLIg6yHWRG9q4dIzdw6kXJzTFKBLGROXIQ5WSyk/IQ3K7QiV47ZR5qKCZMOVdpjFSrM4iUuPd/qj/i0LYQfsuL3uVdANUS0uLKlEjWAV83ysBHpQHoE4rr3q1kFaHumJklrlEqVesyLJQj3xG99rZd+8GzGHDf+GEvW9aU2HuGzuA4VX5jsGtcQ68zh9K9XGHXRsRsTKo6nqgi96JLaQ4FTyFSTbNoMRFGsPFTfsvRarC5GVZviF/Tp7auEFGOWNuUypARkmda9rKBxUX/9OAph7Y0ivPKPouJS/XQd1U7v48Wyx5gqzOCisLoTFDeJRIXtOefY2VrEw/m+5JP8smLxSeeK58MYbXusi9OVFWgal2csbXDit64QCFzG1QexAOqL2DwmEn4mKZWWFN85Fm1URabp9vIuVLG7G4weqoVUEzz+lcxs36trpVEndObBkNlmwawTJXy3KqObO55Yk25hqUqFfp5ViOuIdl6SgrEg5QpN6Pqg6NV4IMWY/0qwT9qc4O46C2D75hycdEyoiOyxgpVjfHG/4Yp3Hou5R65heVPS8JrhQWhdwudX3616EfQM3HKF2qKF5mZZl1a4doGXjJJrOj5WzITTpshMNX15VvWCNFVPDKXEJuNTL7su8ahUry0SQNaG4+whmtGlOGFDU/oUKiwP2S4najsjT4ij7iVXB85FmBjGfjJaosUtV33VGTmlSIvpt5euUZQd81Ek8JEDeDUgZ8N2fnBmu+LfId3BAJS5VM6sOhNtFmzB1Q5cxoGOVVa1SPXs53XTJm+K9l42tnP9chRU5K4FbMwYY1pUZDLYSC35eU81E7oOBg0OD7ne/SMgqSqJaKSIFqHrTLUNiuE/da4iOyaQSromPj1X7HoPFz3UR1goy5apjo7twxP2/VEswJmiKLhFsbFC9IfKm6gtL/Y9qRd07iFq0jVyERZZWsMXqyYIws46bXLztrYN/lD37iP1JfzDe3Bqksldtm8Xgl4JsII+90t+orQ2NptidQUdHarhsg3iRYS1POu9ubTJNp033HaSRL3UJV8sq1hFxOKFr0XfXUyxx9OJjxW1rFoMrPVzXlO5iaZPxJSjSuUVwGtOAbjpEm5aSWZyUylfou92RI5su3Kkz/9bnefHxW9Ldj5NGE4y1Ob/swx2sfzLMo5Bl+32XUzEM3Tn2PI2uUYTUPrqKyi3I6ETTBMWT68KRfVjBJl/RplJTu90TaKFzagFwKITv3hjI6OnWfaLYH9cCtnBRydbvdIp7UXekv07CcrgJknvouzRzTB3UyfUnds5fd9VPo/IQ1P3qRwPloA9ymy3+xv5QnnW9S5VEw/z8pbLZ3uA6247uDcr0UEfup3FVdXjErJi4RmHq3zz4VVeFTCf52+LO79k3uqn5ZcI2UIevKd6OW/xeFsGt6z6xq2GhUau/mzVgDUCN9CPgCNPLu6rvaony9YSzNUk/iVeDcOyztGKrvUvthd7TKSdOmMUB0FPJA3l6U7T/ipYtPnUiHKN3m3Ynv0jSSrcjj8lXNZ/qucI9q2+Utj9ell6AbjpEmI2TJ3LWWepVVdpE7Jsab/xU3/YSanVAIEqS7bMSnhg98H5C3xV47LrbqCZtNkavouFwj2adsXSlnVWNlf0Yhz9D7rvnIwh/L5JtGFp4qTXVuYqVYDZGwuhTgNEHdd81eqEfqRytu0VyClQgvRDoRPZLuZIUPptrJmQp2jIiUyL19l/YOacQ304oJ80Gfi9Ylo3P74FlazzKKyXw0IcRmXsyLxrnhqrGQKFBdxNS/Tf5khZW4rHuWNX5uzDXCUZupn7dl6aB+2TUkf1Qsc+RLlXwRbUPtzrS0TyX421EeyuxIododBhxZAJ6R/gYNz/ajEHbgvmtuQFT2XE08RlPXRpp8CPjGa+Td7LskDcJhLF1t36X7YHmbKxKh35DR3TNfxHCev21Se65ym2qDXCrbJXTNyCkukbJZfkvrWfq1ja9qPtN3RQzsmxMPufqoZ6i4fPSiQjMjMjYZY8Mx0mRwkCVtXNGWjHxROGz8oLxnUnLw9UGbYXNVMZAdljjanOW5vx21SmLkGXbfNUkxqgwTLxF2IskynQhtaDEz1tQU1WZNCTCw+vZd/pzkmcXW53d/XFrcATGGOSnrVfUDXQEutVNV+dgxapSFWX3f5T9GlUXGPK/IR0nIw8Fcjs4JtXw0ERuKDlCHULHvas5SY742aUXDjs4pb7E8Ora0lA0l2phryJjW9fFWQWAZoik8g7KpqxwxSuVUjbTqyjRK0a8SfO2Qh8Y9jRGLUQCekWw5tbkb/hinsei7RgbNRqWedymD4vtK1Nuo7DUNP4D6U94txA1QmU11T6yE7FKiwuXGq7cRLiJde2YIrnPP865KDaWpglfeHUMVnnqvo2JU15nLdO5bfgZzVvnexqOi5n+qN+H6h1NlrnIafnqpkBG1onZDhWBqTd+dlC1Xni+2Cs8dF77eYAVhPx90eGWfaml7sJeNpLx78mjEEj95htx39b6pkDJMbPPlZd0l3yMqRrIv8vcGSsBUqerJlVtwvVowv63DP+jI0Y6sZqn1ZRNiw1RZMzGwX3PiU+kiTSgrXNoFxF6v7IjacrvleZxSjZ+GUeB6urTv5aPrhhGQw9hd7fH/Jnt0ojQgLnTl1F4gb33EZVGjPFB1d0xRixOmQDlWflOUotY2mav68PJRt6jMh64OYVAt7Z6rrVBn0gPklLJ0iHzpXczY2vgGIU2SVzpAspwZstVPBCtUgic7+m6P+q4eo6NgWXBdZ26wdSnv2h3jrIF9V/uuNjghN5Uv1mXFOckwM5gTEbkilYakBPRHjADbr9UdmLhXU0r5RL0pz8gTAcyv75rbCLeszSorFX7Cov1Uumar6OnGplS+Y3i7oJj4jy/0mvKMh+BXfvJJWgxTTLw7mCoVSgFtZXSFkmI4z8xS4elIpTR4WZZvyORkeQzSji8ZpTXmDD9na6mLRr4MaahPVWSiKhQH2szTK89gfffXX3+dnp42YFV/+vndp5ItUr4aoBuSuhLwT8prwHnmcLOe+HWtQ3NY1ecB+IS9dNU+Bhxo9P6AM+s2/ACVEGIWpqenr169mri/rypEApUS7tF+pYHu6+a9Gv+kRjtktfo6CX1p8iHkkwAbTsgrV2+ueuwemyEWZxS3xcH67gH+0tfa0+zRDPquvo3l9XbAlu+p2ZAuoO9WCXJxcTH0vwD2wYMHCwsLVTpQ27AQt7ZKDni0X2mg+3roza/6BhD60u7Iwvu/2jfk8Hz4nKXqsXsshVicCwsLof+zJcH67ubmpm2rv+HGEyougAAI1EDAtu3Nzc1wn3f39vZGRkZqcAZTQAAETAIjIyN7e3vhyjNY3339+vXly5dNn3AOAiBwQAKXL19+/fp16MLGv3t/wLxgOgjs7+83/t+9dxxnenp6c3MT+QABEAiFwObm5vT0dOhN13GcoaGhUqkUipMwAgLNSaBUKg0NDUUhz5ZARldXV/P5fHPmAFGDQOgE8vl86D/cFYpeX1/PZrOhOwyDINA8BLLZ7Pr6eqAWWeXgYH333bt3o6Ojjx8/bh70iBQEIiLw+PHj0dHRd+/eVanVoMP6+voi8hxmQaAZCPT19QUVXZXjg/Vdx3Hu378/NTXVDNARIwhESmBqaur+/ftVCrWGYU+fPh0cHIw0BBgHgbQSGBwcfPr0aQ26q2ZK4L7rOM7i4uL8/HxacSMuEKgDgfn5+cXFxWokepAx+Xx+cnKyDuFgCRBIE4HJycl8Pn8Q6X16bi1913GcQqGAH/Smqc4QSz0J5PP5QqHwaWWG9enU1NTExEQ9o8NaIJBoAhMTE1NTU2EJ0NdOjX3XcZybN2+Oj48/evQo0YjhPAjUk8CjR4/Gx8dv3rzpq8aILl67dq2/v//Fixf1jBRrgUDiCLx48aK/v//atWsRKZHM1t53HcfZ2NiYmJi4evXq3bt38UsLiSsyOFw3AqVS6a+//rp69erExMTff/9N8qvbycuXLwcGBs6fP7+9vV23qLEQCCSFwPb29vnz5wcGBl6+fFkHVR6o7wr/1tfXZ2dnz507NzExYdv2b7/9Noej0QR+/vnnRruA9ed+/PFH27az2ey5c+dmZ2cj+p2E6reJnZ2dkZGRnp6egYGBkZGRLI6GEvjpp58auj4Wz46MjAwMDPT09IyMjOzs7FQvpQOODKHvCg/evXu3s7OztbX1N44YELAsKwZeNLsL165d29ra2tnZie6XhWrWf6lUeoGjoQQsy2ro+lj8RalUqllBB5kYWt89iBOYGzoBy7JCtwmDIAACIRKASEOEmSxT6LvJyle13kLS1ZLCOBBoEAGItEHgG78s+m7jcxCFB5B0FFRhEwRCJACRhggzWabQd5OVr2q9haSrJYVxINAgAhBpg8A3fln03cbnIAoPIOkoqMImCIRIACINEWayTKHvJitf1XoLSVdLCuNAoEEEINIGgW/8sui7jc9BFB5A0lFQhU0QCJEARBoizGSZQt9NVr6q9RaSrpYUxoFAgwhApA0C3/hl0Xcbn4OwPFhZWSFTpqTN6zQAJyAAAvUnYIoRIq0//5isiL4bk0SE4MbRo0fb29uFIZL0EX6EYB0mQAAEDkwAIj0wwjQYQN9NQxZFDLZtW5YlWq/ou0eOHLEsy7bt9ASJSEAgyQQg0iRnLzTf0XdDQ9lwQ8Visa2trbW1tb293bIs0XTpwbfh7sEBEAABiBQ14DgO+m6qyuDkyZOWZR0+fNhSx8mTJ1MVIYIBgYQTgEgTnsAQ3EffDQFifEwUi8XW1lbVc61Dhw4Vi8X4uAdPQAAEIFLUAPpu2mqAXi+LV81pCw/xgEDyCUCkyc/hgSJA3z0QvhhOtm07k8lYltXa2opvVMUwQXAJBCDSJq8B9N20FYD44oZ41Zy22BAPCKSCAESaijTWHgT6bu3sYjtTfHED36iKbYLgGAhApM1cA6zvfvjwYX5+/iccaSHQ09NjWVZPT09aAkIcIJA2AhBpOjI6Pz//4cOHoPcQrO+ePn362LFjHThSRODrr79OUTQIBQRSSAAiTUFSjx07dvr06cB9d3l5+cSJEymIHyGAAAiAAAiAQJ0JnDhxYnl5OVDrbZmdna2zl1gOBEAABEAABFJDYHZ2NljfzeVynZ2dqYkfgYAACIAACIBA3Qh0dnbmcrlgfffu3bt4z1y3DGEhEAABEACBNBE4ceLE3bt3g/Vdx3HGx8e7u7uP4wABEIglgf/hRyxdg1Mg0NQEuru7x8fHAzVd/e8ibG9v/4EDBEAglgT+yY9YuganQKCpCWxvbzvBD/y9GcGZYQYI1JfAv/lR3zWxGgiAQFQE/h+A2gTWZaZCEQAAAABJRU5ErkJggg==;" vertex="1" parent="1">
          <mxGeometry x="-20" y="850" width="637" height="92" as="geometry" />
        </mxCell>
        <mxCell id="6gBzvza-OcvXsySnCAHP-17" style="edgeStyle=orthogonalEdgeStyle;rounded=0;orthogonalLoop=1;jettySize=auto;html=1;entryX=0.5;entryY=0;entryDx=0;entryDy=0;exitX=0.389;exitY=1;exitDx=0;exitDy=0;exitPerimeter=0;" edge="1" parent="1" source="6gBzvza-OcvXsySnCAHP-15" target="6gBzvza-OcvXsySnCAHP-12">
          <mxGeometry relative="1" as="geometry" />
        </mxCell>
        <mxCell id="6gBzvza-OcvXsySnCAHP-15" value="" style="shape=image;verticalLabelPosition=bottom;labelBackgroundColor=default;verticalAlign=top;aspect=fixed;imageAspect=0;image=data:image/png,iVBORw0KGgoAAAANSUhEUgAAAXMAAAH+CAIAAADh9nnDAAAgAElEQVR4Ae29348cx3X3PX9Gw1jsJFh4RhoodGRbQYzwJsDehArwvBAyyEKBXuhikzxJHmCTxwmg7C8uB0NK8ixlQ1bEV1yKlmRTHmtASaa4lOENJRNUmxJFcs01RYKUQ4ktibIBx8bQ8oXhi3lTv05VT/f87p6p7v72Bbe2u+rUqe8559PVvcvZ3N/gSJQCZX4kymU4m0UFcj/AkSgF/jc/EuUynM2iArkWjkQpsM6PRLkMZ7OoAMiSsKiDLAkLWFbdBVkSFnmQJWEBy6q7IEvCIg+yJCxgWXUXZElY5EGWhAUsq+6CLAmLPMiSsIBl1V2QJWGRB1kSFrCsuguyJCzyIEvCApZVd0GWZES+Xq8LR02yeJ6XDO/hZfYUAFkSEHPXdUulUq1Wa7VaRBbXdR3HcV03AQuAi9lTAGRJQMw9z9u9e3ehUKjVaoIsAiuO4yTAe7iYSQVAlmSEvVar5fP5QqHwwAMPLCwsOI4zNTUldjHJWAC8zJgCIEsyAu553szMjOM4+XzeUQfesyQjeJn0EmRJTNhnZ2cVUtjX+fn5xLgOR7OnAMiSmJi7rksblnw+j3e3iYlcJh0FWRITdvEel7YtifEbjmZSAZAlSWGv1WrT/MC72ySFLZO+gixJCrvnedPT047j4N1tksKWSV8TQ5arV69u4djaKhaLX/rSl6DE1tbW1atXM1mzyVh0Mshy9erVgwcPvvLKK2czf/x//Mi8DGdfeeWVgwcPAi7WYiYBZBFYuXbtWhNHs3n16lXIIBS4du3awYMHr127Zm11Zdkx28kCrIAjXRQAXKyFl9VkAVa6FBUuCQUAFzvhYi9ZgBWwo08FABcL4WIpWShX+swtdMu4ApQwFtZYNl2ykSyUJRmvFix/IAUobbJZybat2jqyUH4MlFXoDAWazSYlj21llkF/7CILZUaXOmnM5dRRrG5Tx0ZZnc3lzPPUAY3EK6BDX6rudFgNpVAGi9mqJVtEFsqJDjnDTrPcoqyqlwkijTnQpItsqbhUL+fmGmIljblcsdKJLdi5WEEYW8jSD1aa29Wifz/CQMOyrVEuVatqL1Ou8/RjneXhz8KdakldyInhzWaTThKhjE2QmMIYlCtVX6+QeTJCQ4QRZrNckW5Ir5rUR47aqRRlwejVGX1yvITqZcVTdkmZklVWJk2o9hhz5VGuMxyrIY1yrsyrk9ZLpA5MyszTSTFKzBgqb/fFSlX1YpngxknpLD+jFyum0z1p+p1K0R9TuiIblE5WFFkmnbCCLNeuXfv3f//33r9lywrGn+IyC1kByFRT9blTb8ibWkimqkpTpagI1WzqKRplcYdUfVjObleLasdkFIkoV15aAmpyRl69on9ns8qOKHVRbFT/TVlCagnicUBhQlRRI0iWRl3e24XxELJsNxryQZKGBybltBWqMjtq4WLWgLzBxQYFYctR+w7Ni51KmT/VqjNqsRISBoPk1AFnVE/fV5FU//AP//DvXY9/+Zd/+e///u9M1n68i7aCLB999NHa2tq7777rS43gN7o+1TWZhboqxBOTrD3atviqwp/xDB/GGXaX5uW9XS32JIvaF/Dyo9u7OFusbvdlVhYb41dV3cb1cnxk4Vyr6g2IEME/r/C5KRDJPZlrGPWsLQe2afqS2hEoKQRS25guT/IpmLzBxfod46oyT/Qh9yzqSdYgC/WRlmVPtuB27qhMCHx9991319bWDh48eLTr8Td/8zfr6+vxFlkmrVtBllar9dFHHz3xxBM94KL2I5RFaq+hq4LIwm/vfIPTnotGDcj9iHGGyFIvy01Q7z2LKAmjDqV/fZnlZS+YokqL+SC3ZiZZBFOMDYiYxpjXWI7YYiimmEWuNJFPVTQ8MClJEUaWgLzBxZJlClfonmWnWhKLVcs34sXfpzQUcJkdRT1tM7T17rvvPvHEEx999FHPoqa/stKzJzoMpIAtZOkTLiyhaQPCtjB03zOfhlim0ks+3xCenOz1Bz228Js860M7FF7V6kbKb5K0EQh/GhIlwUrLbyR4phk0K27jnGKqtELJol4J9UkWvkDDAVl/Ch9UvVpDdUlXLxve6WkoIK8xl9xaBs+EkYX2hvTUQ77JIPrIEsqRtpP9Y8X8+00DlQ0691TAIrL0CRdjR21sklk1ykNTg5/g71DlFoCnIMt43UdSg5cB689s8huyMieM0FthxTXDDQUU7YNwjNksluT+X7xJ9RnluwZux7xp84UYs7Da1vVvvo4VBWVsDdT2SvlWrFbo1S91FnMpudgjWK5cD5uUjVDd1B5KWGH/MpfYoeRtXyzvScNlpJhjWvBi9YR+yy6VKVV3lGV2JvA01HPPMhBWQJaegBi6g11k6RMuOr/jabXtC3YqRUmiwabjxWb8cDQis4M5Ma7e7Yvta15jD8j7s5/xdfxhch8WB8UKyDI0OHoOtI4sNsAlIgS0F1tEZvuosAl0aV9sXy5ESpYhsAKy9ATE0B1sJIsNcOmrMNDJGgWGwwrIMjQ4eg60lCyAizU1mwBHhsYKyNITEEN3sJcsgEsCatoCF0fBCsgyNDh6DrSaLICLBZVrtQsjYgVk6QmIoTvYThbAxerKnqhzo2MFZBkaHD0HJoAsBJdDhw6d4MdrGT6+y48MC/CayIFDhw71+Vu23WsAv4PbXZ+hryaDLAIul3BcuvRVfkCJS5cu9fPL+z0LA2TpKdFwHRJDluGWl75RqIRoYwo9o9WTrIEsJEUyGqiEaOMEPaPVk6yBLCRFMhqohGjjBD2j1ZOsgSwkRTIaqIRo4wQ9o9WTrIEsJEUyGiGVcOJB+R+Fc7kHT7BVbD6kT2wmY1kT8zJEz4n5kqqJQZaEhTOkEk48SEDhjc1NzpdW6+b6PZI1CVvkGN0N0XOMs6d4KpAlYcENVsLNr93tJwtbEW1bxKWELXKM7gb1HOPkaZ4KZElYdIOVsPnQ3evvs1VsPsR3KO+v353L3f21m9iz9BPaoJ79jEKfngqALD0lsqtDoBI2H7xn/Sb30SDLg+z1CkcM9izd4xfQs3t3XO1XAZClX6Us6eevhE398la+tH1wk79eYd/ds77+kNi8WOK7jW749bTRw4T6BLIkLHD+Sth8MMe3J3IRN9fvMb9N2NIm4q5fz4m4kM5JQZaExdVfCSDLqOHz6zmqNYwnBUAWkiIZDVRCtHGCntHqSdZAFpLC3obneU8//bTwz6wEz/PsdTohnpl6JsTlZLgJsiQgTq7rlkqllZUV85OKXNd1HMd13QQswGIXQZaYggOyxCRsxGZ3795dKBRWVlZEJQisOI4T8TTZMweyxBRzkCUmYSM2W6/X8/n8fffdt2fPnoWFhXw+PzU1Va/XI54me+ZAlphiDrLEJGzEZj3PKxQKjuMUi8WpqSmHH3jPMrrKIMvoGoZaAFlCZbHx5OzsrACK+Hd+ft5GL5PmE8gSU8RAlpiEjd6s67q0W8nn83h3G4nEIEskMgaNgCxBTew9s3v3btq22OtlojwDWWIKF8gSk7CxmK3X69P8wLvbqPQFWaJSss0OyNImiNXfep6Xz+cdx8G726jiBLJEpWSbHZBFC3Ljxo1Tp059+9vfft7i4/Of//wXvvAFix18/tvf/vapU6du3LihlbW4BbLEFByQpXXlypVKpbK6uvqd73zn3LlzN27c+JnFR4MfFjv4sxs3bpw7d+473/nO6upqpVK5cuVKTLkbiVmQJRIZg0YyTZZms7m2tvbMM89M9M8Tp3zyZ555Zm1trdlsBpPPhjMgS0xRyC5Zzp07t7y8fPv27ZRXtgXLu3379vLy8rlz52JK4lHMgiyjqNdlbEbJcubMmf3791tQdBlyYf/+/WfOnOmSixO5BLLEJHsWyXLz5k2xP89QWdux1LW1tZs3xYf2xpTPA5sFWQaWrL8BWSTL4uKiHYWWRS8WFxf7y8wx9QJZYhI6c2R5+eWXX3/99SzWtB1rfv31119++eWYsnkIsyDLEKL1MyRzZMGGZeKEmfi2xXXd++67T5SHSZaFhQX8b6x+qNFPn2yR5dq1a88///zESyvjDjz//PPXrl3rJztj6uN5nuM49957r/kZfffffz9+uTlCwbNFlsOHD//sZz/LeGFPfPk/+9nPDh8+HGESD2FqdnZ2amrq3nvvFXsWgRV8MMUQSnYaki2y7N27d+J1BQf+57fm9u7d2ykjx3Pedd18Pl8oFD7/+c9/8YtfdBwHH0wRrfLZIgtesljCtYm/avE8T3wkhfgfnuKzKaItrYxbA1ksqbVsuTFxsrRarVqtNjMzI5gyMzNTq9UyzoJolw+yhJX0drWYy5XrYZdwLgoFbCALfbSwgAs+mAJkGV6BPp+GGnO58lw5N9eIoohgI0QBG8jSarXoo4Xx7nb4ouowEnuWYN43yrlyo9ko54rVbXW1Xs6VqtW5HD/KhJyGPJMrVnZ4151qiUaZFhplMZT9a3ZQZ4MUq2u07VSKCnM71ZIaUqruNJs7laKautmYk24wMsoNF5uXtzs4Vtd+qSHNJt+y8WnYStns5sHn1X3Et03DsVxOeavUC3y1hCzio4Wnpqbwaywd+DD8aZAlkPWqpM2ibfIKFDXMaMJBwErOKLNuBcw4JXhEFc5KUUKBVTLhRvmj3GiK2uYz0tRNZpAhw3QySBYBhY6OGfPqtSjLzSZDlVyg4QP3T0NTTsrJK+DKtAqCUi1LfLWELJ7nlUol/EG44fnReSTI4k95Xk7y7r1dLcobcpOTRW1VWEGWG/wuHdgvEDhYYRq7nkZZ39sDEPH1VP4Y9cnKvr1WGZh6kIX7X5X7l06OGdMJDxlD21bK+vh8MDkiDLRp1e6tmkV9tYQsrVbrAX50LhBcGVIBkEUlu/xqPrYYTy5mLRlkMZ8SePH7HwpoJ7JdLcpiMyrceBIxHpGUP76r6vmCTa0PRkDDsbY9i3gmUk9G4Y7R0xwzqsmipyDHTLIYGxzlbdN8hlLeGhfbmvaQZYUfQ1YPhnVWAGTx5XxbzehyMu/ksi13Db7xbCNDWxJjz1Ivq90NdaA3IG27G2UvZM/CZjTsyJcpJh3EVUaTitxwGWQJONa2KCKL3F4pT/hXLUXThzPqpJ/LDM/palvDHrKY/2+oc5ngysAKgCxmzpuly89T7bGGUcl8A2JgiGGCVzWBw+SFeZLamizMDu1uyB2jPlVVG+4Z/tAIc89ietvxPQutTrx/lUBpc0w+GSkf+GzGCxr16odeJHHuJOdpCGQZmBn9DQBZqDDFfp5u7OK8QgZ76CiXxc9ljFu63i8EH3bU2xPdRz9ksHLlQGGnipWGeGliuOKrT13VHChszFyDOEKj6Iyqdnal255F/0CnWK2Ll0fcmH7m0mpoH8R85AlXg6ZmFw0mir7Bf7Fn6a88E9wLZAmmfdgZ43VG2OVu51RtUx/j9k7nMtYAWRLMjP5czxZZlpaWhixhkGVI4cKHLS0t9ZefsffC01BMEmeLLPv27QvPdJwdrwL79u2LKaEHNQuyDKpYn/2zRZYXX3zx8uXL4y0izNauwOXLl1988cU+EzTubiBLTApniyy3b99+8skn2zMd349XgSeffPL27dsxJfSgZkGWQRXrs3+2yNJqtYZ/1TLe8kvxbPa8ZDE/rbLPgkG3PhXIHFneeuutF154IcV1a/nSXnjhhbfeeqvP7BxDN+xZYhI5c2RptVpra2sffPCB5RWYSvc++OCDtbW1mFJ5OLMgy3C69RyVRbL8/ve/7/ODWlJZ3hNc1OLi4u9///ueSTnODiBLTGpnkSytVsvzvKWlpV//+tcTLLNMTf3rX/96aWnJws9tA1lAlogV+OUvf7m0tHTmzJlMVfhEFnvmzJmlpaVf/vKXEYcwCnMgSxQqhtjI6J6FlNjY2FhdXX3nnXcmUnKpn/Sdd95ZXV3d2NggwW1rgCwxRSTrZBGyHjt2bGlpad++fUeOHDl+/PirFh91fljs4KvHjx8/cuTIvn37lpaWjh07FlPiRmUWZIlKyTY7IItPkNu3b1+5cmXH4uPf+GGxgztXrlyx5xfhfNEN+wZkCVMlgnMgSwQijtMEKiFataFntHqSNZCFpEhGA5UQbZygZ7R6kjWQhaRIRgOVEG2coGe0epI1kIWkSEYDlRBtnKBntHqSNZCFpEhGA5UQbZygZ7R6kjWQhaRIRgOVEG2coGe0epI1kIWkSEYDlRBtnKBntHqSNZCFpEhGA5UQbZygZ7R6kjWQhaSwulGv14V/ZiVY+B/8rBYxzDlTz7DrODekAiDLkMKNc5jruqVSqVarmZ+B5rqu4zhEnHH6k6a5QJaYogmyxCRslGY9zyuVSoVCoVariUoQWHEcJ8ppMmkLZIkp7CBLTMJGbLZWq+Xz+UKh8MADDywsLDiOMzU1tbCwEPE02TMHssQUc5AlJmEjNut53szMjOM4+Xze4UehUMB7ltFVBllG1zDUAsgSKouNJ2dnZwVTxL/z8/M2epk0n0CWmCIGssQkbPRmXdelDUs+n8e720gkBlkikTFoBGQJamLpGfEel7YtlnqZNLdAlpgiBrLEJGwsZmu12jQ/8O42Kn1BlqiUbLMDsrQJYvW3nudNT0/n83m8u40qTiBLVEq22QFZ2gSx/dtSqfSnf/qntnuZHP9AlphiBbLEJGwsZq9fvz4/P//Xf/3X169fj2WC7BkFWWKKOcgSk7DRm71+/fr6+vrp06ffe++99fV1wCUSiUGWSGQMGgFZgprYeEZg5b333hN/oghwiSpIIEtUSrbZAVnaBLHx2zasAC4RBglkiVBM0xTIYqphYzsUK4BLVKECWaJSss0OyNImiF3fdsEK4BJJqECWSGQMGgFZgprYcub69eu1Wo3erQiUBP/FO5dRAgayjKJel7EgSxdxJnmpT6wMsXOp1+v4RTsKLchCUkTbAFmi1TMaawNhpU+4uK4rPtjFcRyQheIEspAU0TZAlmj1jMDaEFjpDpd6vb579276r4yu60bgZVpMgCwxRRJkiUnYIc0OjZUgXGiTIj4ySpAFWGkLDMjSJkhU34IsUSkZgZ3r168/8sgjPV/ZCoh0+ve99977q7/6q0KhQJsUavzd3/3dGg6/An/5l3+5vr4eQfBgwq8AyOLXY6Lf3bp1a2Vl5eLFi52o0c/5ixcvzs/P/9Ef/dE0Pwgrf/AHf/D3f//3h3AEFJhozFM7OchiV2hv3bq1vr4+NFwuXry4vr5+69atVqvlum6tVtu1a1exWBR8KRQK+CQ6u+KdXm9AFutiOzRcTKyYq3Jdd3Z2dmZmZmpqCn+iyFQG7fgUAFni03Z4y0PApRNWyAnawjiOg/e4JAsaMSkAssQk7KhmB4JLT6yY3gArphpox6QAyBKTsBGY7RMuA2ElArdgAgr0oQDI0odIk+vSEy7AyuSCg5m7KQCydFPHhmtd4AKs2BAg+BCqAMgSKotdJ0PhAqzYFSR441cAZPHrYet3bXABVmwNFPySCoAsiUkFgguwkpiYZdhRkCVJwb9169a/8kP8lm2SXIevGVMAZElYwFf4kTCn4W72FABZEhZz/K//hAUsq+6CLAmLPMiSsIBl1V2QJWGRB1kSFrCsuguyJCzyIEvCApZVd0GWhEUeZElYwLLqLsiSsMiDLAkLWFbdBVkSFnmQJWEBy6q7IEvCIg+yJCxgWXUXZElG5Onza02y4A+SJSN4mfQSZElA2F3XLZVKtVqt1WoRWVzXxYfaJiB4WXURZElA5D3PK5VKhUKhVqsJsgisOI6TAO/hYiYVAFmSEfZarZbP5wuFwgMPPCD+PPPU1NTCwkIyvIeX2VMAZElGzD3PE39ENZ/P0x8PwnuWZAQvk16CLIkJ++zsLP3BQ8dx5ufnE+M6HM2eAiBLYmLuui5tWPL5PP20KDELgKNZUgBkSUy0xXtc2rYkxm84mkkFQJYkhb1Wq03zA+9ukxS2TPoKsiQp7J7nTU9P5/N5vLtNUtgy6WsEZLl+/fqbOMalwF133fXlL395XLNhnjevX7+eSTKMuuhRyXL9+vVarfbSSy/9CMdYFHj66af37ds3lqkwyY9eeumlWq0GuAyBmZHIIrBy5cqVJo5xKXD16tVxTYV5mAJXrlwBXMZKFmAFlZcRBQCX8ZEFWMlIUWGZQgHAZVC4DPM0BKyg3jKoAOAyEFwGJguwksGiwpKFAoBL/3AZjCzACmos4woALn3CZQCyACsZLyosXygAuPQDl37J0hdWtqvFXK5cRwZCgQQr0JjLyaNU3emwDsClJ1z6IktfWGk2dyrF4ly5ONfoEA6chgLWK1Av51QCN+ZyxUontuD3XHqwpTdZ+sRKs7lTLRWr2+JfkUA71VKuXGEbmZyxl6F7ggjbTqWoYmmMrZfVjUNtgviGSJxkA40OuZzIADYdP4rVbeYAt1yVJ1W6CM+YD+IMsyP6+4dvV4vqlsWIKTJM+1BuCPvkpbFAPgVZy+WUHe2zcoakEBu9cIdppXxUY04J0myUc8oNaVALyEwJLQK1QZfk7pLsyyUYntOi/AvnsW6PLHee31S0dI0y19Z3iZ3xTZHLlRv1slZJRMj4l1RiPdl5brYiMkTGmp+UKzaiL25yIbLIoOt5mUtt220dd8MZs4mdSxe69CDL9evXH3nkkb5+y3a7KnYrRjx4Aom6YunbVgaBtJNs4rGrl0WYqZB26g15+9DZwHdJqnL8sFBzSWo02PS+xzSRbTrn2ofr8qBZpMOKWXJrRh6aOcdqb47vpckOK06NMAVHXirsUgeHA6OM6TqTRakt6s2/cDmqqRxr1OVCVP0bNSZv4MGFd42ssiwRsC0Qz1DMKW+ygC+/2WTMJf76dWw2Gw0ZOHKMRVPcGJjPbCBd0qbUcli4+D2P2d2plDl36IyhhsSWnF5Zbvem7fsrV6488sgj//zP/1yJ4jhw4ECXWk3WpR5kuXXr1vLy8sWLF9sEDX67UynKDNaJZcRb3Ge2m8b9h91hipUdFkJ9yLQja0YhNVkxiJ4qC9sopkooyCw2r9x3aNdZgqqTQVd95cS60ezSW1kVPg9N48JJUsMoHpH0RurLYeYZ6XC3UQZZ/AKG2NGOsRaPAlU4r0Zhge19mBTq4H1CFh6Ui/DBwyQD5A8E41SVipxzxyCLmlJtYH0eU9rwEOvQ8KCUGyy7zIO5zUTQh1xsY040iCxMCmbTeAhiExuy+/wIfHPp0qXl5eX9+/f/RxRHmj4yvQdZWq3WrVu3arVaL7iEhFbkaFu1ByvcKAMz3pQKcq/Bc4snohH1kcgiCkY/R9CmxqgHlZqKLKoSjAwLJ4vawdHWwExWsWRj4dKceaYTWYxtP3vElA9lehWqqOSZUKTy6STyOEc4CNTsBjVEHyZU28KNPuqeoYZ3Iotgig5xO1kkjEzLyk/jabczWWTCUGS0P3rPslMtiYUYbnCmtAXRyCuyF9K4dOlSrVa7detWVLuJbJGlL7gY1W48LPCsFSmu9ucs3jJNGYzKdeNepzOgUZZ5pm4p/DYr9hcMMeqqmQHsfK+5jOyQuUUpFRxOndUseo/DVqF8IAvUXyggkUp7FlafdMPkeyWlCb/xKiL4xaFLAtNqhyWmMvYsfrIwirXZIedMf9gSqJIpWHSGGBFcOHUW+x0/4GgKEzqaDoQA9STi2yMYswufiWv8TqDIIjebKhBd/aG8ItzTGTbFTnWuGEAn6dWxETlWWq1W5shCcLl06VKo0u07EZkNLN7FktyUqs2L2IqzzYCok8C9pW37I+/MvFrYKP5KWN5CVc0Lp3h6ccP6HV6pKKdX93DelTumX8rqgud7FEp9uVY9C09u3kffw4Nk4fTkvdQ/kgis4PmhnKGeWoqgw4FRKgSdyWK8XfbDiA3luz/mhoiI8qFYrYiXHSSj7sMBJ1yne357ZJUd0Y3+bSOmsVlg3FEy0hrVCxS1Rl754umsVK3KR1pOOplXFCxKG3mG+WMC94R6lCbX1L3B6BmIuOGH2YwDKxklS0+4mLqrtlHA6lQfX42EY71pB9vHUH8XljEqe/xX4v1Ok0jMUy8HyzvUg0k5HOpM15PDRbaryQEuMojQjarfcXonJUbQvpitZSBrAisffvhhVA9BZCeLexaxePHOpdPOJRDj4fIPZAkIad2J4SIb1TIiJAvf6Qxy+4kPK9ndswwFl6iSCXagwOQViBUrWSfLUI9Fk88JeAAFRlQgbqyALGzvMuBj0YgxxXAoMGEFxoAVkEW+bwJcJpzsmH5cCowHKyCLJEur1frwww9rtVrfL3THlQiYBwpEp8DYsAKyaLIQXI4cOXLKOF7HEZsCr/IjNvMw/LqRyKeOHDlSq9Xi+AGzr4rUN9n9qbNSwPf1ww8/PI9jXAr8Cz/GNRvmOT82rGDP4sMKvhmzAuv8GPOkmG48CmDPMh6dMUuIAiBLiChpOQWypCWSCVwHyJLAoPXrMsjSr1LoF7kCIEvkktpjEGSxJxaZ8ySELCcepP++++AJJsjmQ/rEZuYUSvCCQZYEBy/proeShYDCG5ubnC+t1s31e3LiUtJXnRH/QZaMBNrGZQbJcvNrd/vJwtymbQvIYmMUO/gEsnQQBqfjVyBIls2H7l5/n028+RDfoby/fncud/fXbmLPEn80Ip4BZIlYUJjrX4EAWTYfvGf9Jh9vkOVB9nqFIwZ7lv61nXhPkGXiIciuA36ybOqXt/Kl7YOb/PUK++6e9fWHxOYlu3Ila+UgS7LilSpvA2Th2xO5xJvr95jfpmrhWVgMyJKFKFu6RpDF0sBE4RbIEoWKsDGUAn6yDGUCg2xVAGSxNTLp9ater4vFmWTxPC+9K87iykCWLEZ9gmt2XbdUKtVqtVarRWRxXddxHNd1J+gYpo5WAZAlWj1hrYcCnuft3r27UCjUajVBFoGVNCViDwmycTlNAe39d52zEVPbV1mr1fL5/H333ffAAw8sLCzMzMxMTU2JXYztrsO/vhBrJQsAACAASURBVBUAWfqWCh0jUsDzvEKh4DhOsVicnp52+IH3LBGpa4sZkMWWSGTKj9nZWQEU8e/8/Hymlp+FxYIsWYiydWt0XXdqakpgJZ/P492tdREa2SGQZWQJYWBwBcR7XNq2DG4AI2xXAGSxPUJp9a9Wq03zA+9uUxlikCWVYU3AojzPy+fzjuPg3W0CojW4iyDL4JoNO+J3v/vdxYsXT5w4UcfBFSgUCn/8x38MMYQCJ06cuHjx4u9+97th88uucSDLOOLx0ksvLS4uHjhw4Pvf//6FCxfew8EVeJEfEEMocOHChe9///sHDhxYXFx86aWXxpGXcc4BssSpbqt16tSppaWlM2fORPfHedNj6erVq+lZTKQrOXPmzNLS0qlTp+LNzjitgywxqnvgwIFjx45FmnIwliEFjh07duDAgRgTNE7TIEtc6q6trbmum6E6wFJjUMB13bW1tbhyNE67IEss6j722GNnz56NIdNgMnMKnD179rHHHoslTeM0CrJEr+6bb7559OjRzFUAFhybAkePHn3zzTejz9Q4LYIs0au7uLgYW47BcEYVWFxcjD5T47QIskSs7g9/+MOTJ09mNP2x7NgUOHny5A9/+MOIkzVOcyBLxOqurq7Gll0wnGkFVldXI07WOM2BLBGru3fv3kynPxYfmwJ79+6NOFnjNAeyRKnuxx9/fOTIkdhSC4YzrcCRI0c+/vjjKPM1TlsgS5TqXrhwAS9ZMl39cS7+5MmTFy5ciDJf47QFskSpruu6W1tbcWYXbGdXga2trQR9RBbIMnay1MvyzxbncuV6dusEKx9UAZAlylodxNbkP7u/955lu1rMlRsypxrlXLG6PWiCoX9GFQBZBqFBlH2TQBZ/UTTmaNuyUy2prUypusO6GWfYFc4jDqZqpci7GlSifZAcy8fLbrlihdvzTd3QGyeDbo056YM5hE6KHVZjLlesVOXwOQVJw1vqpnZkbCG8vVMtkc8GVdmixKGYq8/QQNUjuMujztoZY3XiJPVhZtQszSYtTa2Xu1qR/hgnldv1ck4prGOnjSvL9XJOObNTKcq2cZLNKzpQ4JhjahZfpPQ3IEuUtBjEVtLIwjJSJpNOtSarirA6JLLIpGQpK7KcZ7YaYqSsrAGjhnWWNsqywHS1M4OaXxJ5ujDYLMwHXo3CbXKVnxTTsVJhV3Xhcego96h4yCtmRNQws0wrks4zj/V5ZVyvI8Q4o4OEAim8XS0qg7SijgJqEYS3WqJmCFk6iNCFLDxenCzEXHEjIXGM9RlNkGUQGkTZN0FkYenIblIhuwnKNiOhGW6ILJR/qjiNdGepr+o/zDjlaaMsK03PwjcjcnejSEfO0EBe5+1lY3Zj7WJlp1+yKGCxCcJAIPZuHExyH9dhXaYP5K2SyE8WbkH6KbqqtXc6qTQ3pJYLVIIr/3mYjO0JgYyFhunGBa/ITY1fJTULue9vgCxR0mIQWwkii0wZldCiqDhs+D9hd3giC28wA7Js9L1XFme5we/kHSqQT71dLUo6EFl8RaXqQd+QKcm1z81maDfRQV2SOFAr0muUm3+zMtWKGGLUFoMvU26gxP4lZF3MiNqsNZscrzQRL1exTZDnhIBsvb5Dln1wLpKIW1aOGWQxzfDphD90WkgtyGL+yzXle0DRFWQZpNzH2Dd5ZDHuY7R/YRmv6pBSLWzPQnd440ba756lXlb1qcvGREafe5awbkQoX+mGrYhqXrGSVuQjCwnSfc/CNlN8USYNQ/YsTCJGB9MsYZOcN+fSEqmxrL8mi2INWVFhZSc0YRlTqvJNk9y/iNsDkY7CrS2ZLexZxggT31RJIIvvFk15TA15vw2rQ55//N4roMBSVuQ0P6mGBN7C6Bc3lKVGqYjNOf/5FDOon7nkrVuxQz+q8HusKAZdw+ykcIYtsK1CqIbNeVXNc/fEirQRH1m6v2dRzOWl3kYWviLFL6p/BWItoPaBuWqoKhZiuK3GarIY8moBNTj8ZKGNleqwUymKtcunpK4/KARZfOU+xm+SQJa2vbp8JDE28HMNde81EpqlL5GlXJY/wRHlzXlB22+qH/mqlW2zVe5KsnA00E5dNKQpumQM4cXGe3F48a3BXFn+dEq/J2rvRhgzXpS0rUgBiJNRzCB/1OQni7AgHQ38bIjXM7+o1k5nipWG3ADqKVhPsRBBB2FW/qRGbGTm5A++VDe9NNlZfZEdtHG1IgWO9j2LCKLIgbkGf69EQTTFMcQzmiDLGGHimyohZDFyZeAmS2LKxYFHiwHGW0N5Qv2cqC+DCnx9dU5aJwYRBRTrfAdZfOU+xm8mT5bt7e0TJ07EmJIgS4ziyncr1pLlxIkT29vbYyyokabCb/ePJF/b4F/84heHDh2KN/lhPasKHDp06Be/+EVbyln7LcgScWhWVlaymvlYd7wKrKysRJyscZoDWSJWd9++ffHmF6xnVYF9+/ZFnKxxmgNZIlb33Llz3/3ud7Oa/Fh3XAp897vfPXfuXMTJGqc5kCV6dZeWluLKL9jNqgJLS0vRZ2qcFkGW6NW9fPnywYMHs1oCWHf0Chw8ePDy5cvRZ2qcFkGWWNQ9fPjwK6+8En2KwWL2FHjllVcOHz4cS5rGaRRkiUvdxx9/HHDJHgciXvErr7zy+OOPx5WjcdoFWWJU98iRI7VaLeJcg7nMKFCr1Y4cORJjgsZpGmSJU91W66c//enS0tKxY8cyUw5YaAQKHDt2bGlp6ac//Wm82RmndZAlTnWV7fPnz1cqleXl5aeeeur48eOncHAFTvADYggFjh8//tRTTy0vL1cqlfPnz6vcSepXkGWskfvVr3515cqVd3FwBf4vPyCGUODKlSu/+tWvxpqOcU4GssSpLmx3VWCdH1274GJSFQBZkhq5FPgNsqQgiJ2WALJ0UgbnY1cAZIld4slNALJMTvvMzwyypDgFQJYUB9f2pYEstkdoBP9AlhHEw9DRFABZRtPP6tEgi9XhSbdzIEuK4wuypDi4ti8NZLE9QiP4B7KMIB6GDqWA53linEkWOjmUSQyyTgGQxbqQpNsh13VLpZLruq1Wi8jiuq7jOPV6Pd1rz9TqQJZMhXvyi/U8r8AP13UFWQRW0pSIk1fZAg/SFNDJ/70hCwKaABdqtVo+ny8UCgv8cBxnampqYWEhAa7Dxb4VAFn6lgodI1LA87yZmRnHcfL5vMOPQqGA9ywRqWuLGZDFlkhkyo/Z2VnBFPHv/Px8ppafhcWCLFmIsnVrdF2XNiz5fB7vbq2L0MgOgSwjSwgDgysg3uPStmVwAxhhuwIgi+0RSqt/tVptmh94d5vKEIMsqQxrAhbled709HQ+n8e72wREa3AXQZbWxx9/fP78+TM4xq7AXXfd9eUvf3ns02LCM+fPn//4448Hx8UAI7JLljNnzuzdu3d1dfXIkSOnTp16E8fYFfiP//iPtbW1sU+LCd88derUkSNHVldX9+7d+z+FMAAw+u6aRbKcP39+cXHx+PHjEfz5BpgYQYGrV6+OMBpDo1Hg+PHji4uLkf+1gMyR5Zv8iCYmsAIF0qKAqIu+dyS9O2aLLAcOHNjc3ExLMmAdUCBKBTY3Nw8cONCbGf31yBBZnnrqKWAlykyErdQpsLm5+dRTT/WHjh69skKWCxcuPPnkk6nLBCwICkSswJNPPnnhwoUe2OjjclbIsri4GHEEYA4KpFSBxcXFPtDRo0smyPLWW281Go2UpgGWBQUiVqDRaLz11ls9yNHrcibIsra2FrH2MAcFUq3A2tpaL3T0uJ4JsqysrKQ6DbA4KBCxAisrKz3I0ety+sny85///JlnnolYeJiDAqlW4Jlnnvn5z3/eix7drqefLJcuXXrttddSnQZYHBSIWIHXXnvt0qVL3cjR61r6yeK67tbWVsTCwxwUSLUCW1tb4u8r9AJIx+sgS7PZbJRz/mMOP0hKdd1gcb0UAFlMZIZ/dn8fexZGlnKdxN6plsxv6TwaUCArCoAscZCl2ZjLFSs7zWZzp1JUm5lidVtl1XZVni1Vd5qss6KSiSTWFge/2r4tUkNCbeqxwoJwpjEnDYpv2V5LT01w5GO5Y9w0n5e+ravNGZ1pNpu+5YT4GTaLclvMIR3TEoXrJgZtV4tqdtZNtY2dY5nvGNtEECebzeASyH8hj9hv1su5wMZTCaj9DFpTfZgt0ll3ozuQYZ+tIjCpPsnDZMaRy6BX154JTWONuZzSh/UvV2TiaceaATtcDd2ByyW/Jen44nQ++4IpvwFZ4iCLqlIWCZnQLOFkpjbKOZmaAkBG4fHw872P7s+MUCrrsf5o6vMEtSZPGko7XqvcGZ464jxNza8KwO1US8ViSc0okklUrx7I07HDcrhj2h+TX8Yshvv1ssx+KrZw3dQQTRaTelo6VZNsISr7G2URiNAlaIO8JgNFLicO+hlmjSTlpOMOsG7SE+abEJMWK24/gUnVKsTNKSRwGkbKuBLIWAWnEueCIAjZkf6EpBlTo0jsFqAkCyqdTG31tGYLZImMLOKuEri3SLUpUdjtS99m2VUjF6k8FJvYdTopXuhQtRhxDNjk18yBehslZhR5KafmpVWV+xeeNJWyuE2xDnPKYXMWKn7zpPYojCy+WXRX3QozpXWjfgoEzLeK2r+w6pUQVx3N7FdkMaegJSiDbCAVPDWUOf2VjFBDbhOYA0Y01aR6JLc/IFmMWwUzzgPXKT3UTIbzyh+WDHLroXETZkeGSaQZW0JZbcCVKZGTYXmo5m82myBLZGRRODfUNbaajDj8vqTvWqqjUTzEAn43NlilcsJXscoAv635acUvkTWJJ2WE9+fOiFwx/+UgK1bromJ3qqVyQ9WPz3NVyb6T5BB7pa0zz7RvZKfuLehpbM2Y5/oQ93PqLkBg/msUNvWSC5FPoLLIfd6qJbCnOVKPalJs1oQTdFUGVC4t1Jq4yYtxJLh5Uu9Z9ArVftacVCaMjwhsRqZGp/RQqzftSOfNZKDbTJgdrkajUmTOb1eLc412tEm3dXzVrL6vIEuMZDEzT+WEcdfSgfAVEieUrzJ1R3/F6vOq+PUZ1gpNJnZB3fr4DVbd9lXNi1s9/7fOEktvssxZ6IZvntTT+/xnlttn0V11S5V6uG7Uj6e+3GERFNRY6hVKFr0WE0ZkpMOexSwtZp/mMteuBFEyGvqrS2wsDSGE9XoaMmdXgfPJayxZNUOMm4SidpgdoQb/t1EpluuEIbFlFhtDcz+oJvV/BVnGQxZ+cxD3XpaXkvcqUSgmmgX6EutPr3jDUkHmetCmtsbSnL1LpsdsaZDNooyrkpBJs1Nhb1vYjYuKQXvCLIstGC+z4NQ+P8NmoSUzx+S9XVWsQRZDNxrB3ZB3fg0F1lNsG9VwM/vVg0mnJdCuhGqSGurZIegnXzu9nJKCKBlDycJ1E3MZ9pnDIjfCTnYMnE4nSg+lUYgdY2omQiBkpIyUlKknXrcR2rQC7KYlLagp27+CLDGSxdi16mcKFgHarFJCy7iYLOCpwHeetKnWLwXb4xhq07TGBogKN39mofnFr/LKVEnDnOTZQ2Tp5HnIcgJkEWWgZzEXoPfk6omSzvh1E4OMwmC1TRry2uCCBe+riizBJQjnlXssNFTkcttPP14hr4xKDqydRGajpW8USv6YKfhOE/Xas4QGTj0/skmM9FCqklf8On+NzZNhTv5oT+ks8ScWqvnO3WYLUQ12ickrhBWjQBYTHT3aQ/8+i4oovkIBSxVov83E7Sb2LCZswsly8eLFkydPxh0J2IcCcSowbrKcPHny4sWLZnUN2k7/b/ffvn17Y2MjzqjDNhRImwIbGxu3b98elCZm//STpdVqra6upi3yWA8UiFOB//kjZyYmhmiDLHHGB7ahQDIVAFlMmIa/Z2m1Wm+88carr76azBDDaygwbgVeffXVN954wyytIdqZ2LO0Wi18dv+40xPzJVYBfHZ/G0k77llarZbruvjMysSmOhwfnwLPPPPMiJ/5JMoyK3uWVqu1vr5++vTp8YUIM0GBpClw+vTp9fX1tjv2cN9miCytVqtSqbzxxhtJCzf8hQLjUOCNN96oVCrDcSQ4KltkabVajz/++LPPPjuOQGEOKJAcBZ599tnHH388CIihz2SOLK1W680331xcXPzBD36QnLjDUygQlwI/+MEPFhcX33zzzaEhEjowi2QRQpw8eXJ5eblSqdTr9bNnz17AAQUyo8DZs2fr9XqlUlleXj558mQoGkY8mV2ykHDXrl3b2tp6DcfYFfg7fox9Wkz42tbW1rVr16gE4miALHGoCpt9KbDOj766olPSFABZkhaxFPkLsqQomO1LAVnaFcH3Y1MAZBmb1OOfCGQZv+aYUSoAsqQ4FUCWFAfX9qWBLLZHaAT/QJYRxMPQ0RQAWUbTz+rRIIvV4Um3cyBLiuMLsqQ4uLYvDWSxPUIj+AeyjCAeho6mAMgymn7WjfY8j3wyyWKepw4JanT7fJYELSM7roIsKYv1/fffPz8/LxZFZLn//vvvvffeRK8UZElY+ECWhAWsl7tPP/204zgCLoIs999/v+M49Xq911Crr4MsVocn6BzIEtQk0Wc8z3McJ5/Pz8/PO45z//33F4tFx3HwNJTosCbDec/z6A5mkqVeryc9/5IRgJi9FJuUfD7vOI7ACj0fxTxzjOaxZ4lR3KhMu67rOM7Kyor4/FDx2Yj1et1xnEg+fjUqP2FnOAVc1xVYcfixa9euFIQVZBkuGcY9anZ2VsBF7FkEVnbv3j1uPzBfPAqI+Aqy0HvceKYak1WQZUxCjzhNvV6fmprK5/N79ux5+OGH8/n8zMwMPSKNaBzDJ67A008/PTMzI8iSjrCCLBNPqr4c8DyvUCg4jjPFD5GCfY1EpyQoQPFNwbtboTfIkoS84z7Oz88LuAisLCwsJMZ1ONqHAuI9bgre3Yq1gix9xNyOLq7r0oZ5ZmYmBS/57NDVFi/Ee/rUhBVksSWx+vGD3vPh3W0/ciWuTzre3QrZQZYkpZ94jzs9PZ2Ol3xJkn4svoIsY5EZkwQU8DxP/OJD4ApOpEEBkKWvKLqu+zyOqBX4whe+8MUvfjFqq7D3vA0vOECW3mRxXffZZ5+9fPnyDRyRKvA9fkRqEsZuXL58+dlnn504XECWHmQRWPn000/j+uOXsAsFolbg008/nThcQJZuZAFWos552BuTAhOHC8jSkSzAypiKANPEo8Bk4QKyhJMFWIkn22F1rApMEC4gSwhZgJWxpj8mi1OBScEFZGknC7ASZ57D9gQUmAhcQBYfWYCVCSQ+poxfgfHDBWTRZOmBle1qMWccpepO/Akxnhkac3pdxUpqljUe8ayYRUewc1qOGS4giyRLD6w0m01GlmJ1W2TSTrWUK9etyKpRnaiXQZNRNZzs+Ho5N9cQLjTmcl2iOU64gCyMLD/+8Y+fffbZHr8O14EsOxVzK1PmEWbckYe6hxjdJJ70GZkWjbIalMup/NAbJWG5USa6bVeLyrhKbJqXCGjYVMlH84oUbMwVqxU1s+hTL+dK1arYyMgpDDvKAbpPMjt1ZYEvwZ/c5FUupxxu86HZbJI1zmu+TOkVrYXs8DP+cmKjuNtix9WYU9wnxwLLp2oMqCek1i7lcvwMmcrphZDbYslsXXNVGX1DTO5VoyzsNNlCxG0pbLhgxE61xJbJDfIzRvq1jVL+s687laJffPMia48NLiBL67/+67+WlpZ6YEXuWXTpU/yMWKrU2W405NZGg2CnUub7HZkxRhlQnqnhOj/M4UVeCfoM20OpQhXpwxKOslkmcaNMZ6hBl3Isv9koaYd5wtbFS4invjyj85tVhT/jm9olQwozoXeqc/zJkRxm9gmUvMboDKufcoPZlGthU3P32lfXD1l0NRpLMxYrylv6qgyqVTQack+qAqTJ1VEE5q0kL1uCn3cUX2nQUFVqaJxpm4INEZaNPlp5sQR2yZ8SZhio/emnny4vL//5n//5X3Q9/uzP/uw///M/9cuCAVsgS+uzzz47fPjw1tYWSR/e0GnK7g2yCDUF2H1X3ZRkB3H/Fg9QbGvAcGNkjMaUqCI9XCY3m9E8RMkJO/zpzJdGqgCY9yrntqtFAgpvGHnJmFKs7Ojbe5Pf9ucaBvXUPVNVHflPt03hH92xCbiGho2y8FORJeiDeYYPVP5LoJcbxn1eru6EYBBfrdihmHuK9qqWC2ETmYcQR/vKiWaoSsuUjKCxfCBdJRHMhcgHE80jiq+MVPhwmoITShpk+lcF04OjpPt6Ir2e0NbW1tbhw4d//OMfX+p6fPWrX63VagPyRHcHWZgWn3322XPPPdcDLj6yqJILJYu+51OF7FRL4i5tkCUkreU+3CCLPKNShAz2RxZ6h6LQEEz9vsgioCOTnqEt9Hle3e2Vs+Ir0S1asnAfqAz9uwPmXtsZsXBz+X4v9XeG+OKZVCHbKF1hPyiCab8fsrSB2Bhu5olgijwTnFS4Hi6+XpZsbW1tPffcc5999plmQIfW+vo6yCK0GemTn3rDxUeWrnsWSkGGGL7FoOpSexb+xEG7GJHBdE+jp2V2C6XtAN/odiELf64RtFIPF2qjpDYjEhCBJxF5lzZKSG7paZkyrWnPwmqg7YnGB1md0TuVIitysfsQEyn3+O5DIUBYkyIHFx6yOpojyBF5RodMLYQiYuw6hR2qTIMsXChmRDmptjPCflCE4BljA0jxlToHO7Mz8n5jkEXmgHnGH0ESolejf6yIvwYFskRAlt47F55hdJMUD7Q8OXjasaBS6vBNNXtTwF7mlb/R9lAj32uIscwgSybfPpyynP9ASsypk0n7oLijMoqlLD/ktsLsmRPlwetfdlI/YNYbbA2mYlGY4rVk3CcJMbzUxWTKjnabHGp7+lAO09rppu0/w8lSEk8ugr8hD5hqkpAdiiSLudWSFcs3m2L96oyyo6ImianE5C+zmZ+MSuowECNOGTeAonzi0mKqUcZXQVtSXg+XXgU50k15pk6vd7cDYQVkMXdyI+1ZhKHeOxeVhgN8VU8Baoh676C+H/pr92TS1cUn0HuHnvPpPUXPrj06tHtIT2c9xrEilzudHj3tusz4qKBjlWeDYgVkiZgsvXcuQ+QLyEKigSwkxRgbQ2AFZImeLLHAZYxphKmggKnAcFgBWWIhC+BipibayVVgaKyALHGRBXBJbjnBc6HAKFgBWWIkC+CCEk2uAiNiBWSJlyyAS3JLK8uej44VkCV2shBcHn300Y2NjaM4olPgEX5EZw+Wjm5sbDz22GN9/patWTzBNn4HlzSJ4PdZyFZb47PPPruNI2oF9vIjaquwd7ufX95vy/DgtyALaRIjWWgONCJUYJ0fERqEqQgVAFlITJCFpEhGA2SxOU4gC0UHZCEpktEAWWyOE8hC0QFZSIpkNEAWm+MEslB0QBaSIhmNELKceJD+P/CDJ9gqNh/SJzaTsayUeAmyUCBBFpIiGY1QshBQeGNzk/Ol1bq5fk9OXErG2pLvJchCMQRZSIpkNIJkufm1u/1kYQuhbQvIMs64giykNshCUiSjESTL5kN3r7/PnN98iO9Q3l+/O5e7+2s3sWcZf0RBFtIcZCEpktEIkGXzwXvWb3LfDbI8yF6vcMRgzzLOuIIspDbIQlIko+Eny6Z+eStf2j64yV+vsO/uWV9/SGxekrG0FHgJslAQQRaSIhmNAFn49kT6fnP9HvPbZKwoTV6CLBRNkIWkSEYDZLE5TiALRQdkISmS0fCTJRk+Z8dLkIViDbKQFPY2PM+r1+vCP5MstVrN8zx7/c6eZyALxRxkISnsbXie5zjOysqK+Gyh9fX1Vqu1sLDgOI7ruvb6nT3PQBaKOchCUljdmJ2dFXARexaBldnZWaudzp5zIAvFHGQhKaxu1Ov1qampYrG4Z8+e2dnZYrE4MzNDj0hWu54l50AWijbIQlJY3fA8r1AoOI6T54fDD6s9zqRzIAuFHWQhKWxvLCwsCLgIrCwsLNjucfb8A1ko5iALSWF7w/O8mZkZgZVCoYB3txYGDGShoIAsJEUCGuI9ruM4eHdrZ7RAFooLyEJSJKAh3uNOT0/j3a2d0QJZKC4gC0mRgIbnefl83nGcBPiaSRdBFgp79GT54IMPvve97z366KNra2vij+Pg3wgVuIcfERqEKaHA2trao48++r3vfe+DDz6g8hi0AbKQYlGS5cUXX1xcXNzY2PjJT36S5b/jGevar169urW1FesUWTb+k5/8ZGNjY3Fx8cUXX6Qi6b8BspBW0ZDlnXfeWVxc/NGPfpTlpMTa06TAj370o8XFxXfeeYdKpZ8GyEIqRUCW559//utf/3qasgprgQJCga9//evPP/88VUvPBshCEo1Klm9961svvPACEhEKpFWBF1544Vvf+hYVTPcGyEL6jESWM2fOfPOb30xrSmFdUEAo8M1vfvPMmTNUM10aIAuJMxJZlpaWkHxQIAsKLC0tUc10aYAsJM7wZDl06NDFixezkFVYIxS4ePHioUOHqGw6NUyyDPGhXGn6TaXhybK8vIyEgwLZUWB5eTkUKJ7n7dq1S3CEyCI+rGvQ/9sFsrTeeeedl19+OTtZhZVCgZdffjn0h9ACIqVSyfM8QRZxZghMDDEkFHY2nBxyz/KNb3zj9u3byDYokB0Fbt++/Y1vfCO0aOfn56empkql0go/hv6YC5Cltbq6mp2UwkqhgFBgdXU1lCz0ARd/+Id/KLAyMzMz6KNQq9UCWVqLi4vINiiQNQUWFxdDydJqtegDLgRZdu/e3alnl/MgC8iStZrCepkCXchSr9fFf0N3HGfojygGWXqTZadSlH9oWH8pVreRoFAgwQp0IQt9ULHYs3TZmHS5BLL0RZZiZcdIop1qCWQx9EAzgQp0IUur1ZqfnxfblqE/ohhkGZEsO9WS3MmU6yq/6mW9uSlVd5q6jzjPONXeR4zVPaW17WoxV67KTZPAI2YFEQAADvFJREFUGe/DzDbZZmqu0Ww2G3O5XK7MWs2GMTfhL2CWuURXG+Ucb29Xi9xsU1hW7SbzQRxiCrVM+TV0RuESG2VCmXZ/4mRjLlesVKXDfCHCJF+OHrtTKZIRPoRRvjGXU4Kz1Zlt6asMh167oZU27l8MdaaV0plcTglC7vlWRwFV3ViIS9UqCw1Fx3CbR5aHjMXRXKAYoM70HynD1VxOLNa/Ot933cnied40P4Z4dys2MiDLSGRhSSYyiSWWqtV6WcbVqNUm54sqgCZLO1VLZrXIk2RNVDXvycpSZq3MNkWWRlliRZBFVIXOSOakmIvM9iALh4Wci7WF23qxvhSl2fWMnCDcDe6/XDWvNL73kyzjJSpE07MEx7YVHlFJickqqt3D8JVyFgutTMfUcpSeutS1dBzZNIua2oCyjD4vb622BCvZ0UAMIwtzQMiu3dOq8ttG2z3AiJSW15ddanHtX7uTpdVq7dq1q1QqdXne6X4JZBmFLDqnBTjkfaZelo2+ycIzVVeXxhDLMAUsltyqzcEkKoHqgedOo+ynj9jFqEogh7vlK8v+itq/sBJVN3CjGIw8Dc7I7szqlss3L7zSzJNiONWb3CUFuokOfZOFVsfsVUvCB3Ol4Y4Za5FNv6TipDau6cAiwsTRRGjyqhYhCJNOjzXEVAskn9mMSi7Tf5UAKq98kVIn2WDjviWXFPjSkywP86M7PrpcBVlGIYvJAkoFlmeyks1gB/csYtebU7se34MMu8aK08g/fcviWcKyWRziDilSZ7talN9SRvLbGs0lH09YEhuHcScUPpPnrDzMQ6GNMjVkRl+FqCr1nRSjVfGw70K7yZPG3ZiGMOgYRwDNFA7SwcSNOSOtRDrFF2zCVE8jwmpOLQCqYyH78uGG2xTHnmTRk8knmr4j1Wwaz61ql9q2OOPbnmRZWVmp1Wpd2NH9EsgyCllY1M3tgMizxpwqP6pPFlGzs++uoopK3ZGM8PNcMaypPYsosGDhNWm7pJ93wszqq+IBSpOlKt5fkOdmeZiOUTtkRqpq1ok2JgQFGkqXOnWjDsFi1iWqhTUVZm0eDpMs4Y6RP7ohV01GfOELTq0iqA2wlrlnUW091rhnmHsWlU5kyvRfhZJHpz1SnM4iAyPZs9T40R0fXa6CLKOQhZeN3vrq+pQ/SaL6ZHli5n0oWXQRipsPSzKWf/LJgqUvPYTzBiW0ylczC3Wb6lOb7UQW2kBpz/W+jE1HT0Yy8/UsfIESgron919Ui/ZfvbPgvBC7g7BZjLFUZ4QntWSfsMxgWzh8K+U7o87vWbTNIFn43k0sRHejmDJX5dr9PhgvgNSznmQHGyJ3Roos5lMVEyRARoMs4ZFSW60onoZAFuLmkP9vqOfv4FLgVX63lZPaAbMfRrQ/erBr+vGENjjihkY7X5mUgj7irLz58Pwr+36+oGcnsogHpf/3L8kgNUSqMaj5zPrqzcxX5Ykmi7nHVleVEBwNNJdoyOSmS3IhfEjbSYaJubJ4qOvSTc3GvnYniymgLGDfSqUFvxSGec4yflWtlB4G5xrm1HrNAmRyh+JTgG0cSuWyUF51IwW0BTGf+rUG3UGnjXKGZRdvGyBjdwtunNxj6wFZiApRNOIii5F6PZv0gxLVs48Yq65hX407W9hl3znjXirOB5zxdY/gmxFn9BVDBO5YZqLng+RE/e35ngV7FoLSkGSJ9NPkAsUMsnSuH5ClszaxX+n5yXIgy6hk2b9/f+xhxARQwDIF9u/fT5UT2gBZSJYh9ywnTpxwXdeyuMMdKBCjAq7rnjhxgiontAGykCxDkuW3v/0tti0xZjFM26fA/v37f/vb31LlhDZAFpJlSLK0Wq21tTX7og+PoEBcCvzP3ymnsunUAFlImeHJ8v7779dqtbjCCLtQwCYFarXa+++/T2XTqQGykDLDk6XVaj3xxBNnz561KQHgCxSIXoGzZ88+8cQTVDNdGiALiTMSWVqt1vLy8o0bN6IPJixCATsUuHHjRqe/B0JVRA2QhaQYlSwCLhcuXLAjDeAFFIhSgQsXLvSPlVarBbJESZZWq3XgwIGNjY0oQwpbUGDSCmxsbBw4cIBKpZ8GyEIqRbBnEbbOnTu3tLT03HPPffrpp5NOCcwPBYZX4NNPP33uueeWlpbOnTtHddJnA2QhoSIji7B45cqVWq22uLi4urparVb344hagf/Nj6itwt7+arW6urq6uLhYq9WuXLlCFTJQA2QhuSImC9lFIyYF1vkRk3GYHVEBkIUEBFlIimQ0QBab4wSyUHRAFpIiGQ2QxeY4gSwUHZCFpEhGA2SxOU4gC0UHZCEpktEAWWyOE8hC0QFZSIpkNEAWm+MEslB0QBaSIhkNkMXmOIEsFB2QhaRIRgNksTlOIAtFB2QhKZLRAFlsjhPIQtEBWUgKexue59XrdeGfSZZ6ve55nr1+Z88zkIViDrKQFPY2XNd1HGdlZaXVahFZ6vW64ziu69rrd/Y8A1ko5iALSWF1Y/fu3QIugiwCK7t377ba6ew5V6vV1tfXh143/vrq0NJh4JAK1Ov1qampfD6/Z8+ehx9+OJ/Pz8zM0CPSkEYxLGoFsGchRbFnISmsbnieVygUHMeZ4ofDD6s9zqRz2LNQ2EEWksL2xvz8vICLwMrCwoLtHmfPP+xZKOYgC0lhe8N13ZmZGYGVqakpvLu1MGAgCwUFZCEpEtAQ73Edx8G7WzujBbJQXEAWkiIBDfEed3p6Gu9u7YwWyEJxAVlIigQ0PM/L5/Np+tlkAkQfxEWQhdQCWUiKZDTuu+++r3zlK8nwNXtegiwUc5CFpEhA49y5c//GjyE+Vj4By0u+iyALxRBkISlsb5w7d25jY+MTfmxsbAAuFgYMv89CQQFZSAqrG4QV8Xd0PvnkE8DFwoCtr6/XarWhHUvTGzSQZeg0GN/ANqwALuOTfsCZsGchwUAWksLSRihWABc7o4X3LBQXkIWksLHRBSuAi4UBA1koKCALSWFdoydWABfbYgayUERAFpLCrkafWBkULq7rLiws4JPoYgo2yELCgiwkhUWNgbDSJ1zq9br4b0e7du2yaKnpcgVkoXiCLCSFLY0hsNIFLmKT4jiO+H/SwEqsYQZZSF6QhaSwojE0VoJwoU2K+OAFx3GAlbhjjN9nIYVBFpJi8o33339/aWnpk08+EZgY7t933313z549juN87nOfI6aID6P7XzhiVuBLX/oSflNOFBLIMnmgkAe/+c1vDh06dPr06eGYIkadPn360Ucf/ad/+qe7776bPinKcZzp6em//du/fRtHzApQNIdo4HdwhxANQ/pS4De/+c3Ro0eHhsvp06ePHj16584dMZnrurOzszP8cBwnn8+LPy3SlyvoNHYFQJaxS56lCe/cuTMcXNqwQpp5nler1Xbt2iU+2wVwIWVsa4AstkUkbf4MAZdOWDGlEVuYUqmE32cxZbGnDbLYE4vUejIQXPrBCikFrJAUtjVAFtsikk5/+oTLQFhJp1JpWRXIkpZIWr+OnnABVqyP4QAOgiwDiIWuIyrQBS7Ayoja2jYcZLEtIin3JxQuwEr6og6ypC+mtq+oDS7Aiu0BG8o/kGUo2TBoNAUILsDKaELaOxpksTc26fbszp07/8QP+i3bdK83a6sDWbIWcYvWu58fFjkEV6JTAGSJTktYGlCBdX4MOAjdk6EAyJKMOKXSS5AllWEViwJZUhxc25cGstgeoRH8A1lGEA9DR1MAZBlNP6tHgyxWhyfdzoEsKY4vyJLi4Nq+NJDF9giN4B/IMoJ4GDqaAiDLaPpZPRpksTo86XYOZElxfEGWFAfXxqV5nlev14VnJlnq9To+xsnGgA3rE8gyrHIYN5QCrus6jiM+v5bIUq/XHcdxXXcokxhkowIgi41RSbdP4g+nrqysCLIIrOzevTvdq87a6kCWrEV88uut1+tTU1P5fH7Pnj0PP/xwPp+fmZmhR6TJ+wcPolAAZIlCRdgYRAHP8wqFgvhTh1NTU+KPHw5iAH0ToADIkoAgpc/F+fl5AReBlYWFhfStMeMrAlkyngCTWb7ruvTXVKempvDudjJhiHNWkCVOdWG7swLiPa7jOHh321mkBF8BWRIcvES7Lt7jTk9P491touPYyXmQpZMyOB+vAp7nib/NHO80sD4hBUCWCQmPaVut++677ytf+QqUSKUCIEsqw5qARb399ttf/epX//Vf//Xtt99OgLtwcUAFQJYBBUP3KBR4++23Dx8+/Ak/Dh8+DLhEIapdNkAWu+KRBW8IK01+fPLJJ4BL+uIOsqQvplavqA0rgIvV0RrBOZBlBPEwdEAFQrECuAyoYjK6gyzJiFMKvOyCFcAlBfFtWwLI0iYIvo1FgZ5YAVxi0X1yRkGWyWmfmZn7xMqgcHFdd2FhAZ9EZ2cegSx2xiU9Xg2ElT7hUq/XxX872rVrV3qUStdKQJZ0xdOy1QyBlS5wEZsUx3HE/5MGViyLts8dkMUnB76JUIGhsRKEC21SxOe5OI4DrEQYqThMgSxxqAqbrRs3biwtLX3yyScCE8P9++677/7FX/yF4zif+9zniCniw+j+Hxx2K/Anf/InqSmDXGpWkoKF3Llz5+mnnz59+vRwTBGjTp8+feDAgX/8x3+866676JOiHMeZnp6en5//MQ67FUhBGoslgCx2hfLOnTtHjx4dGi6nT58+evTonTt3xKpc152dnZ3hh+M4+Xxe/GkRu9YMb9KoAMhiXVSHhksbVmhhnufVarVdu3aJz3YBXEgZNOJTAGSJT9vhLQ8Bl05YMZ0QW5hSqYTfZzFlQTsOBUCWOFSNwOZAcOkHK+QTsEJSoBGfAiBLfNqOarlPuAyElVF9wngo0J8CIEt/Ok2oV0+4ACsTigym7aEAyNJDoIlf7gIXYGXi0YEDnRQAWTopY9H5ULgAKxZFCK4EFABZApJYeaINLsCKlVGCU1oBkEVrYXmL4AKsWB4puNdqtUCWJKXBnTt3/g8/6Ldsk+Q9fM2SAiBLwqK9nx8JcxruZk8BkCVhMV/nR8KchrvZUwBkSVjMQZaEBSyr7oIsCYs8yJKwgGXVXZAlYZEHWRIWsKy6C7IkLPIgS8ICllV3/39a3SpO/STARQAAAABJRU5ErkJggg==;" vertex="1" parent="1">
          <mxGeometry x="640" y="596" width="371" height="510" as="geometry" />
        </mxCell>
        <mxCell id="6gBzvza-OcvXsySnCAHP-22" style="edgeStyle=orthogonalEdgeStyle;rounded=0;orthogonalLoop=1;jettySize=auto;html=1;entryX=0.5;entryY=0;entryDx=0;entryDy=0;exitX=0.999;exitY=0.064;exitDx=0;exitDy=0;exitPerimeter=0;" edge="1" parent="1" source="6gBzvza-OcvXsySnCAHP-18" target="6gBzvza-OcvXsySnCAHP-21">
          <mxGeometry relative="1" as="geometry">
            <mxPoint x="560" y="970" as="sourcePoint" />
            <Array as="points">
              <mxPoint x="570" y="967" />
              <mxPoint x="570" y="1160" />
              <mxPoint x="797" y="1160" />
            </Array>
          </mxGeometry>
        </mxCell>
        <mxCell id="6gBzvza-OcvXsySnCAHP-18" value="" style="shape=image;verticalLabelPosition=bottom;labelBackgroundColor=default;verticalAlign=top;aspect=fixed;imageAspect=0;image=data:image/png,iVBORw0KGgoAAAANSUhEUgAAAkUAAAGCCAIAAABhGSAHAAAgAElEQVR4Ae2d+48U17Xv+88oRZgxGWUa+vhY8pH9my9SFJQfgmR0pbQyxrJOfkDKla6iOUp0cs/pHmagpwnmYTuAgQnmmYlNkx7H5jEgGDvGPm7zmISZaUwc8IBN83TkiHT8VuL09X7vqq7uqX5V76r61g9MTdXee631WXuvb+/qAmIVHCAAAsYT2EwP492EgyDQTQKxbhqHbRAAAW8EoGfeOKFVpAlAzyKdfgQfFALQs6BkCn52kQD0rIvwYRoE5iGwY8cO1kLXs1KpNE833AaBSBKAnkUy7Qg6CAQKhUIikVi9enWlUpF6VigULMsqFApBiAA+goCvBKBnvuKGMRBoiMCjjz7a19e3evVqpmdMzCzLamgQNAaBiBCAnkUk0QgzkARyuVxPT88jjzzyve99b2BgoKenZ8GCBblcLpDBwGkQ6DAB6FmHAWN4EGiBQKlU6uvrsywrHo8vWLDAoge+P2uBKLqGmQD0LMzZRWwhILBs2TImY+zPVatWhSAohAACnSAAPesEVYwJAm0jUCgU5M6sp6cHb4K0jSwGCh0B6FnoUoqAQkfg0UcflVu00AWHgECgbQSgZ21DiYFAoEMEcrncQnrgTZAOEcaw4SAAPQtHHhFFmAmUSqWenh7LsvAmSJjTjNhaJgA9axkhBmiKwOzs7FEcngnE4/F/+7d/89wcDY/Ozs42NTHRKcAEoGcBTl5wXZ+dnd26devJkyfP4/BGYA89vLVFq/MnT57cunUrJC24JaI5z6FnzXFDr+YJMDGbm5sr4wCBjhGYm5uDpDW/SoPZE3oWzLwF1muIWccKOAZ2EoCkBbZONOk49KxJcOjWBAGImbPi4vcOE4CkNbFOg9sFehbc3AXMc4hZh0s3hncnAEkLWKVowV3oWQvw0NUzAYiZe63FVV8IQNI8r9RgN4SeBTt/gfAeYuZL0YaRegQgaYGoFS06CT1rESC6z0MAYlavyuKejwQgafOs1eDfhp4FP4cGR+BFzPL9MXHEs9OyvOWT4mospl+XDXACAjYCaiIlskXbHfULJM3gatEG16BnbYCIIVwJeBUzWX1ySSld+X5omKrCOJufQC4Z68+zZvn+WDxTS9HKkDTX1RqOi9CzcOTRuCi8iFl5Ohu3773IR2xSlfLJRDYr9m3JHC1TpDE/HNWqmJF3YrFYkla1YjbBGktdlFdiMaKg+v6PXDmhD8Iro2zDBiEjJDPcDe6VPg7tRZxh3VV0chziEnU+nxSBi5BVxZbhcBNE5vlBr2iBxGKsjewiajodP8M6MudtFlUv6TOzoAIX3LhO2LprAbJujLkKoezmc210Gl6Za/EpR4XGiOWSNH3SVjGbEK6Ka8VM3DFDxB3+E5JmXL1ok0PQszaBxDAagdnZ2VQqNf+/AEKqnr0U8mpFBICXJKEKxVyef+R2VrSykhCiLmRAJRLKRDHbTx9DTWfjolYSQRXnVYNQ9WLllVukQsLaq2HzSaYBYn8gxmGqI7WEhylKrZAHVve5irBqy0OQvuVzfNuhj6ykrj9PxINHIX2mCiq1itwVFikcm565dxci4dAz5bAaUDimVMPVZ+4kRyddLQv/tSu2vCTpU2ihW8pbZk5cF8aJMyKn4prLz7m5uVQq9cQTT/xfHCEiAD3TyjBO20Tgww8/fOqpp95++22XQqJfUqogrvJqJWo6vZzv57sQup+jGwJ7wdLqKeuoVUZVx8mejyiiViv1czKIOMQWSvxOfsaz027DTmfjrnpGZCArtg4qHLue0VqcUQ/KBAWqx2IDRy4yFYmxzStxQxxEdXTPyXXijxIbCi2Z165Inoxbje7Cgm1AzWFtu0yb2j+XuPnMNZh7YtuzSrzKqkixePIsdEuiiLF9trjO2DnVThJ1nrz99tvr16/fu3fvOI4QEYCetamEYxg7gQ8//PC5556bR9LE3ksWG7GvUgJQFvsJcott5qpqFqvLdJDaeiaFp46e8X0SK5GaJHD/3PQsl+T7SNv+jCmZLLUqHJueMSUTHSUEfsL9pOpFi7sIU3ODtiFPSrnncgzNeQJ5Pj2r013fn+kO82GlRf2krs9Kz8QWkHd1xkW348VsgimlgKlln35PlhcfGsgoAq/ujMv522+/vW3btg8//NA+Z/Fb4AlAzwKfQmMD8CJpRKXEJ3G6C+E1Tn2lL+qmvGLrQouVKPRE+2o9byxm4nx/4FXPaFFmhV57RMaVQ+wsxe6BbqFoY7bdoSInSrDwSiu4bHdCK7VDz6R7mp5Rz6U/VXWfOMO4kVtyc8mElvhDCCuFc+zPNOx6dyE2Ss+0zxMkUvVMWJiQyiE9JCeUmDxhe81kvux+xZkj+SmEtKcu1dUz6UGdE4iZsRWjdcegZ60zxAg1CXz44Yfbtm2rv0tjAkAfNIkaSqqReh7Fa5x40ERfK7A93SIj8B2G3AnRckkGJWNqJvgDLb6pkuJBP9qrh11qNHaNOUbGjCf4Y8lkjj0VVJ1Ivc8xW/qWggYiNFtsIJQYEDnh5ngRpjtRMiwLXDgfz2bY92QytOo2TDw4PeEqc17xtHlMTQsTeneRC03PODTpMPmowQ5bOphs0xs2n4U/4umxSrHCa9MzNb5wOZEtimlALhGqQucoPIG3ppwxMbt7927NKYsbQSYAPQty9oLguxdJq1l+2nTDWebkQ8LGxqd6pr0ILjc6bBi1BWxs2E60JurFtaETwzc8phOdpwG0Txu0vfgG1FNnl0YQsyAUjJZ8hJ61hA+dvRDouqRBz1yqu6+Xuq9nEDMvSzXobaBnQc9gMPy/e/fuvA8efS2wMBYlAhCzYJSJlr2EnrWMEAN4IwBJi5KCGBQrxMzbAg1DK+hZGLIYlBggaQaV+Wi4AjELSnFoi5/Qs7ZgxCBeCUDSoqEjRkQJMfO6LMPSDnoWlkwGJw5ImhHFPuxOQMyCUxLa5in0rG0oMZB3AkzSnnnmmTw9XsIxH4FReszXCvdfYjPqmWee2bZtG/6emfclGY6W0LNw5DF4Udy9e/cSDs8E/h89PDdHw0sQs+AVhZY9hp61jBADgEDnCWymR+ftwAIIBJgA9CzAyYPr0SEAPYtOrhFp0wSgZ02jQ0cQ8I8A9Mw/1rAUWALQs8CmDo5HiQD0LErZRqxNEoCeNQkO3UDATwIuenZkpfhn52MrjxBfJp5UFyb8dA62QMAMAtAzM/IAL0CgLgFXPZMyRk8mJqiqVSrXNj/AFa7ukLgJAmEjAD0LW0YRTygJVOvZtY1L7HpG4pZbNHYrlCgQFAjUIgA9q0UG10HAIALVejbx5JLN7xEPJ56ku7H3Ni+JxZZsvIb9mUFpgyv+EoCe+csb1kCgKQJVejax8oHN1+hQmp6tJF+bUWHD/qwpzOgUbALQs2DnD95HhIBdzybUqyD8FZCVE/RrM/LbA5s3P8k2ahFhgzBBgBOAnmEqgEAACFTpGd2KccevbX5A/zUA4cBFEOgEAehZJ6hiTBBoMwHoWZuBYrgwEoCehTGriCl0BOx6FrrwEBAItIMA9KwdFDEGCHSAQKlUyuVybGBdz3K5XKlU6oBBDAkCwSYAPQt2/uB9iAkUCgXLslavXl2pVKSe5XI5y7IKhUKIA0doINAcAehZc9zQCwT8IPDoo48ySWN6xsQskUj4YRs2QCBoBKBnQcsY/I0SgVwu19PT09fX973vfe+HP/xhT09Pb2+vfAgZJRKIFQTmJwA9m58RWoBAtwiUSqW+vj7Lsnp6ehYsWGDRA1+edSsdsGs4AeiZ4QmCe1EnsHz58kQiwZTMsqyBgYGoE0H8IFCDAPSsBhhcBgEzCBQKhd7eXqZnCxYswJsgZqQFXphIAHpmYlbgEwjoBNhbIZZl4U0QHQvOQcBBAHrmAIJfQcA4ArlcbiE98CaIcbmBQyYRgJ6ZlA34AgJuBEqlUk9Pj2VZeBPEDQ+ugQAnAD3DVAgSgampqd9E8li8ePHDDz8cydB/MzU1FaQ5Cl+7RwB61j32sNwggampqdHR0UKhUIzeMUaP6MVd/PofSRkdHYWkNbhWItocehbRxAcubCZmpVKpjCNiBEqlEiQtcAu2Kw5Dz7qCHUYbIwAxi5iEOcOFpDW2YKLaGnoW1cx3Je4j6v9VXnmEeDDxJP//lWOxmv8jJcTMWd0j+fs8knZkZeyBzdforJ54MsZmlz7Blmy8VpH/hbf6T727sgxgtFMEoGedIotxXQgcWSlljJ5MTFBVY4VG1iC9I8QskuLlHnQ9SXPTs2sbl8SenKDTaWJlbMnm99jMmlhZ+8OTPvdwHjgC0LPApSzADl/buMSuZyQWuUWr1jOImXtdj/DVmpKmbf1jMb4/k1OL7cfoFo3MOOhZgItIXdehZ3Xx4GZbCUw8yT8j8ydC721eEovJB0EOPYOYRVi26oXuLmlu+7OJJ9nsckxi6JkDSHh+hZ6FJ5fGRzKx0vENB9Ez+rUZFTZdzyBm9Sp65O+5SJqbnpHnjfzR4sRKsWnD/sz4QtG8g9Cz5tmhZyMESEGxHysn5PfzD2zerH2U9iRm09l4LJbMRb60hxFAvl/MlES2WCNAp6S56Zn+NFs8bMTzxkZWbdDaQs+ClrGg+ut4yHNt8wPuLzR6ErNyuZiJx/uT8f58jXKHy4ElkEvGRFrz/bF4ppailZ2SFtSlAb/bRgB61jaUGKguAU965lHMyuViNhHPTrM/WeHOJ2PxbCZJP9jHs9PyIvukz64UswmxpZvOxvlnf3KRH2I3oPYHsaRDMIuZOGvMt4Y5ZpFco1fy6vcYd0N2EWW62lV6hfqc7+cekl79+XIuGeNekZGZUTUgNUs9rI5CXmFuKBMuQueMokwJs0AFTLohJpeYP9SxLNtICW7EW3ZQQZKxlMv5JCXJgyIeqNzJcKqli3xqqa1n5TIkre6ai95N6FmEcv6Tn/xkpcHHihUr0um0p38BZDrLdmZavaNCQssoqY+kwmrqxVVBu6LrWT99qKWu5PP8MabWnosAr8tl0Tif43onKrWSDe6bEiQ5WrWrqpfUAD6g6M4kVuqZqPLSn3xeSThRIAGhLBRRmXDVMzaytE7MsU0SkahknsJkRvmeiUoX7UXiIreI4DHx41fkaPX0jI9fpm3Epw3qogrBxWN1qVQqpdPpFStWGDy1V/7kJz+JUKHpXqjQs+6x992yZVmvGXwcOXJky5Ytp0+fVrWqxlkxE2f1V+oKrYb6TiKZJ3sC/WD7Oe2K3PewEyFRzKbconFDmif0lrBVpoKhNiW6UbK3I0VZP4hIaNJCNIC5ygeUGmDTM+pbVtu6OfWMuEdUhB5kqKondU7HtICIk3Y9k9LLZCaendZ8Zj2F0BLDzq0kv8Kvk/ba/kzRIH5qbew+a+Prrlafnz59esuWLUeOHDF4ar9mWZbvyz2KBqFnEcq6+Yvq3r17u3btmk/S9NIci/E9gVZwq0RCFEGtTEv1Els9JY30wRoVDK29GIL/5N2phFA5FHVZc4N+DySu6/21NlWuuuoZUzL9llPP1G6JD+6mZ1wyq13K9zvUVA+cDaj5zELR9IYPWH3F9pFCqDvb9onnjbozus/azltH5zw/ffr0rl277t27Z/gyNn/pGQ7Qo3vQM4+gwtAsEItqfknT6qbaHNDSyao8KZHieWP1QzPHxk5uTex6Rr82o8Jm25/pKihM0AZU2Bx7L/ZeA1EaphakDfWQ6LHdVaUWumjx789i/NGffstFz9guU5gTENj20bYF1CWE6kM+yfqWyQ5JbtSq0TGj/FGkMMT2heQWweWIVMqPtj+z6xn9yo19SUmw2GjL3jVOgiJmlUolEEsvBDUOehaCJHoNISiLqr6k6Z/iSaFTW5xYPMEe7vHdBvtKRj6CY5WXV0yqTCccDwO5zFBxoi8+ZKver3M8hyTaQA76KgpRBX3vyN0QbcQ3Ukx6ba7qvdTzOKFnfBwmNmw0UffF92fSbn9WvvNid1U3wfSDqYR+nZlmdwUELlH8+y3agjagehZnTziFHDreB9FkqLaeaY9khUiTfvPuzwIkZtAzrxWq5XbQs5YRBmeAoOhZpVKpL2laoZSnpC6LKi8vznPiLJq5pF5S5+nc/O1mXG3e2jw9pSKydsVsQle72p2JnnlrWXuMpu8ES8ygZ77VSOiZb6i7byhAeta4pDUjEtAz+aaGkJYA6FngxAx65lvtg575hrr7hoKlZ41LmqjJ+BleAkEUM+iZb7UPeuYb6u4bCpyeQdLCK0zNRBZQMYOe+Vb7oGe+oe6+oSDqGSStmcIfxj7BFTPomW+1D3rmG+ruGwqonkHSwihPjcUUaDGDnvlW+6BnvqHuvqHg6hkkrbHyH67WQRcz6JlvtQ965hvq7hgqFAqlUonZlnpWKpVyuVx3HGrBKnuJf9OmTWNjYy/giACBsbGxTZs2BeJfAKme12FaetXRmXkFemZmXtrm1fLlyx988EEmaUzPSqXSsmXLHn/88bbZ8HGge/fuXcMRMQLm/3NWrisgZEvPNUbTLkLPTMtIm/0pFAqWZTFJsyyLiZllWUHcn7UZDYYDgU4SwNLrJF33saFn7lxCc/Xr//PQsqyenp4HH3zQsqxly5ZZ9AhNgAgEBMwkgKXnf16gZ/4z99vi6tWrLcvq6+tjSmZZ1sDAgN9OwB4IRI8Alp7POYee+Qy8C+ZKpVJvb68Us97eXvmGSBe8gUkQiAwBLD2fUw098xl4d8zJx4yWZQX0TZDugINVEGiNAJZea/wa6w09a4xXQFsXCoV4PG5ZVjwex5sgAU0i3A4iASw9P7MGPfOTdtdssa+m8SZI1xIAw1ElgKXnZ+ahZ37S7qYt9tU03gTpZg5gO5IEsPR8S7u7nt27d+/ixYuvvvrqyy+//D//8z+/wRF8AqOjo1/vz0ZHR4MfCiL4zbp1637729++9tprFy9e9P+vG9+8efPEiRPPP//8VhweCIyMjFiWNTIy4qEtmmx9/vnnT5w4cfPmzSZU0KlnV69ezefzTz/99Pj4+Jtvvjk9PV3EERYCmzdvDksoUY/j5MmT09PTb7zxxvj4+NNPP53P569evVrp8PHll1/u2LEjlUr98pe/LBQKH3zwwYc4vBHYtWuXt4Zo9eEHH3xQKBR++ctfplKpHTt2fPnll97ntdKzjz/++MiRI6Ojo+fOnQvXP2eKaEAg5ATOnj07Ojp65MiRjz/+2Pvib6jl2NjY8PDwxYsXQ44S4ZlE4OLFi8PDw1/PPY9zlevZrVu3RkdHT548aVIs8AUEQKABAqdOnRodHb1165bHxe+92fDw8LFjxxpwBU1BoH0Ejh07Njw87GW6Ej27ffv2li1bzp8/3z4HMBIIgEAXCJw7d27Lli23b9/2svg9thkcHHznnXe6EAxMgoAg8M477wwODs47Y2NffPHF7t27z549KzriJwiAQIAJnD17dvfu3V988cW8i99Lg0wmMzMzE2AccD0sBGZmZjKZTP1JGzt16hSeJIQl44gDBAiBo0ePnjx5sv7K93L36NGjhw4dAlMQMITAoUOHjh49Wmfqxp599tl79+4Z4i7cAAEQaJ3AvXv3nn322bt379ZZ+V5updPp1p3BCCDQRgLpdLrO1I299tprbTSGoUAABEwg8Nprr506darOyp/31pEjR1599VUTYoEPICAJvPrqq0eOHKk1e2O3b9+WTXECAiAQDgK3b9/eunVrrWXv5frg4GA4UCCKkBGo82JILGShIhwQAAFG4Pnnn2/l3f01a9aAJAgYSGDNmjW1PpBBzwzMF1wCgTYQ+O1vf1ssFmut/PrXr1+/vm/fvjY4gSFAoN0E9u3bd/36ddcJDD1rN2yMBwJmEDh58uSZM2dcl/28F6empiYmJsyIA16AgI3AxMTE1NSU6xyGntlI4RcQCA2BycnJQqHguuznvVgoFCYnJ0ODooOBTGfj/flyuVzMJLPTHbSDoSWBOhO7vp7lk7GqgyZPDo0TEAABMwnUWfbt0DMUB572fD8tkols0cx5EDqv6kzsefUsST57yCOXjEHPJA2cgIDBBOos+zbpGYqDwekPr2t1JnYLepYTmzf5wSSXjCWyWfZpJabmOv/8EovFM/wTjLwS0y6WqwcsF7MJtUFM5qpTpBrwu9PZuOoRE+qrmtGbwjdpMRYj3bVfRbNiNhG3P0bIJ2OOK+WyNKrEXvv0qi4K/7WPBQSFaFDMcN85KLs/1fSqr1C3mXvVnpOHIoKnIKCuUAJlLRYylkuzmEh3vl90oYNQ/rpRDZTkowbUDUkrgo/mFXGC5Z0MksxyRFoKJCXNsSrPmQkZPuUksAurtruaUdqY/SG6yEzFtMmgXVQ5VZNKuKeu0DFZEjWYwp3pbFx2KeeTFF2+Xy2iYiYuJ4DoY/tZZ9l3XM/ckhLPZHnJEBjL5bIsBSIWtyyUtbVpYyJTo80HxkBNOdpGWKwyp42s0lFjGmvTUk0P4Q/JvjjX0qDC4V20QahBt5kpl4nE2FqBklFr9VY5prlhoyEcLrtPbEVYrF91RTH3eWI3q2fEdVk3xeql9OX6ZGVapZlGyxhpQYqqp+5S0Hz+qYmldVGzheSJzSFimvqjVwElG2qcsigNVIT4MlBOspWj5qXekdkVDisviMM0LtmYXOHrU4FSHUhFYwHSqPk5/TRABV+YkM3I03levOjcohNIESNFQUw+3QfnIid9qV05Wn2Asj1pxjNCdLoqidUESKUSwk+6qFnB2drGqSoEMgomeype6T/vovCqaUOKfiLOgTDCrEAownTd8ohkXmoYlZNBpoNMNr6GNTIqR/b8ui0TYVpPhMig8EefyXLSqhA0b0UPx8+u6VmNpAjtV6lX605NZi0uclGlnvJRWVYLmSiEc6qT1V2VONe1o5KlVpk+oJzGVHrZmC7VhgRVNY3duti85R9T6AdNGYK4qDBSRdHDkee20Vj+lcNyPmj1Qd51xCg5czdUahQWfdWoJKoa4sZcMy3c0Zu1e2I3qWd6tGRCqDTzdU7VIpmnH0bEJy+SXVnXxOoVyZOD8M9ibJxiNsEHdOFCBxfjCAnRYckCZMu6sCjwkp8O6w1OFzGSLOviAvkpJ5B2kTtGp1SGa5uEo9op/1Wt1JvJYqrBkdNUnqjx5BlJHympusMuAGW1lR31LnajDkXXApdViW/+6ILRJEFMFc2Ini+ZUG15S6qu85A4lpHf0sfj/UlVFmVmNbbCsEZMN1qvCy00mjjx2SgGd3XPrYDqn0iEO9IHckFOWnFiuyu62H92S89co5Zzlb46oaZfVXFwy4JjefIPE/kkT43WRRLQ+Yh0uK4dt3ToA8r1W2+x8Cknpwp3w62LPrdVWh0WRRWV4TgIKEN6R9ZaOiw767NLzB93N1QXvSQWM+LToSBJ7oqPdGr91mAuSrQYXG+mCAjHbHdFF/vPOhO7BT2je0rxB02ADp1XMZJR20EXP5nc4mAT2rYGVAWUU1ZPiQxOfUYgK56JpY5D0q+RPN0N9dlKj4J0FI7yTYbLdCEOkQTLTYz4lXeVn7yE58wx/U9qSK5t3k75L/WM+CObEWiCp5g0cn7bPBd3WWWUDxJrAFQRi3VFMqIONpqNHt+02Yzyz+P61JfqznCpIR2IbONw59WsUGJJCNgO4jAVWr488v3xbE58zHc8TRU6JLJSw6isHSodtpZi51omttgbbqKlq3tuBZT4LA+eX30mq2XPF4LbRw0Rh/hZZ9l39Hmja9S6loh5a8fIl4/tIks9aS+zIKeBeLHQvrkRwev0eDrIyNVrxy0dNh+qt5XOasNs6Ra5F27ry70WyWXL5jZfd/qsUAQaL1D6OIJAAxarJzYvd3LK1n425mLaBkrIGF+2stCJPLr9rDOxW9AzZzlgRVxUQF7FyMzQiqnIs+35GG2gJ0lWQDVl+TK2R6cPLiarDkuUFfuMFwSlFa/7M6ZkNfSMeiYWrT6P3doTx7L8IYlwUvTVQhS32EdaNhH1ZmSu1NMzUV5lCZBjc9oeAJI6ItiS7qpLq/szWaGkV+rEsdhoICQKPSJyLiqj6slqTTInVC2RLWrhKxnQ2IrONYxKP0UXvbxqDqhnCbJEaneFETbZxNqR/mgwxYTRZ7KmZ3RwMXm0UatP6yz7juuZCFB6JecqS1DV4wHZ0C0LrsUhl3QrzWIcnZ5InOvakcnSVpmbD9rMZ6uAWKdWsqya6Ra5F2qxqC7e9ax9BUqbXdIlR4y0brtbdJnYBJpcFwI5o8FfkdCYi/rvx8RuUs/oHpMXFzJTWWwEh/pyhZVabfGTKi+LsghS8CVFRz6zqi7TrnpGLmqmRdWToAXT+fSM+KDSY0uVI+vx7LTIisyiVmvEglF6RsKXVVh2oaD453rhpAMU4SNuaSuNVnDnlwo6HOmwPFFfQalpLWKcHyCBSfjw2mFPsTOJzrXKZogt74KzA5H4GKQKAZ9d8tEinXLcDcVKEzkZCw8zl4wn6P5V6Zn4KGMXFZEWjZjcR+pFSqRDWSfNxKZc3CWjyXM399Rd7ZsJlRpX09oco0C06Sq8r/7ZLT1zLQ4kO/I5oagSDpJ0jtXIgrM46M30c4GhVuKq1o5bOvQB1XqXE4x0kTsS+bWZblF44dLFuUbYzHdYdKhLiwXKUR9kmdWXWG2LcjLrE5vOfLb8SRIl1ara6/PEblbPWGx8vymKEamSySR7QCcD015h4hVcvyJngz4g7UsxqQ0tPZMJEPOFllrWiNdWfVbxTNCiw9eSvp2ns4R0tj+SErWe2pBtaDvyfqaa38oJ+dRLRC2dj2fyLjtUsh40aOLDLF3z0pBWFrXCxz/e0pjF+qch8L/LKReGzXMFh3bUJFY1q2pDmvKLTIBp7Raa7WWRiHzRDyvUsoja9uhPNJNAtbSSXowPlaVk1duztLiwqPjgfAlRo8R/2pE9h+SqbFuZ0qpCwY2yqEV2tMLHZhQt0Gy2qACZJ+RP/RMAvUrcYxNDuqHvz2RPfrd6TFprOL0AACAASURBVOGJTIF03fWka3qmr2Uxz4nP5ItMjQx1Ws55URyqssBikzOQLjHVS1IThjgKlzpA7siODHKNdMhFxMqFnJ/KN22xiLu6Re4Ef57BfORdXPSs4wVKRk08IQA9W6yehHJiq1uUQI3Fopv2YWLX1zOVFk9nNiXw1KNOI7nURRt9kolr+BkdAmT9aHJoVOBVtaxq9rbsrvqY7PKJynX03bt3j42Nzfto0bVB2/99EI8a7BpI9UXtUz+7qe28q1vjStMEjJzYdT6oQc+aTjU6+ksAetaf1x+6zkv/xIkT586dc5WreS/OzMy88sor85rw3gB65p2VQS190zO625PPLeoTeOWVV2ZmZlzncFv1rL4XuAsCIOAjgUOHDr377ruuy37ei3/5y1+ee+45H52FKRDwSuC55577y1/+4jqHoWdeIaIdCASLwLZt2z766CPXZe/lIv4/z2ClOzre1vv/PC9fvhwdEIgUBCJC4PLly3v37vWiW7XajIyMRIQVwgwWgZGRkVqTNvbyyy8HKxh4CwIgMC+Bl19++ezZs7WWvZfr09PT+/fvn9cQGoCAnwT2798/PT1dawLHtm7dOjc356dDsAUCINBRAnNzc1u3bv38889rLXuP1/HIsaNpwuBNEKjzsLFSqcQuXLiAT2FNYEUXEDCWwP79+y9cuOBRtOo0m5uby2azxoYJx6JGIJvNzs3N1ZmxsUqlcuzYsfa+mxs1yogXBMwh8Morrxw7dqzOmm/oVi6XGxsbMyc6eBJZAmNjY7lcrv7sJXpWqVTGx8chaZGdKAg8NARefvnl8fHx+mu+0bs7d+48cOBAaBAhkCASOHDgwM6dO+edulzPKpXK8ePH9+zZ8+677wYxWvgMAhEn8O677+7Zs+f48ePzrvkmGoyPj2cymXv37kUcMsL3n8C9e/cymYzHT2lKzyqVSrFY3Llz56FDh2ZnZ/33GxZBAASaIDA7O3vo0KGdO3cWi8UmtMpjl5s3bw4PDz/33HM3b95swkl0AYFGCdy8efO5554bHh7+eu55nKU2PatUKl999dXMzMyLL764cePGffv2jY+Pv/rqq6/gCAWBffv2hSIOBPHKxo0bx8fH9+3bt3HjxhdffHF6evqrr77yuOZbaXb16tXNmzenUqlsNrtr164xHN4IbNu2zVtDtBrbtWtXNptNpVKbN2++evVqQ9PVqWey82effXb9+vVLly4VcYSFgGVZYQkl6nG89NJLly5dun79+meffVbp0nH37t33cXgjYFmWt4Zo9f7du3ebntE19azpEdHRWAKWZRnrGxwDgRATwNLzJ7nQM384G2EFi8qINMCJ6BHA0vMn59AzfzgbYQWLyog0wInoEcDS8yfn0DN/OBthBYvKiDTAiegRwNLzJ+fQM384G2EFi8qINMCJ6BHA0vMn59AzfzgbYQWLyog0wInoEcDS8yfn0DN/OBthBYvKiDTAiegRwNLzJ+fQM384G2EFi8qINMCJ6BHA0vMn59Azfzh3zUqhUJC29UWlX5cNcAICINAJAvrS68T4GJMRgJ6FfCYsX778oYceYkHKRbV8+fJly5aFPHKEBwLGEJBLzxiPwukI9CyceZVR5XI5y7KYpLFFtXz5csuy5v2fhOQIOAEBEGiRAPSsRYAeu0PPPIIKarNSqZRIJHp7ex966CHLspiYYXUFNZ3wO5gEsOL8yRv0zB/O3bSyatUqy7L6+voscaxataqbDsE2CESMAPTMn4RDz/zh3E0rpVKpp6dHaJnV29uLl0G6mQ/Yjh4B6Jk/OYee+cO5y1aWLVsm9QxvgnQ5GTAfPQLQM39yDj3zh3OXreRyuXg8bllkc4Y3QbqcDJiPHgHomT85h575w7nLVthbIWyL1mVXYB4EokcAeuZPzqFn/nDuvhX2VgjeBOl+JuBB9AhAz/zJeSD17MaNG6+//vpLL730GxyeCYyOjlqWtW7dOs890PA3L7300uuvv37jxg1/ViOshJUA9MyfzAZJz+bm5tatWzc4OLh79+7XX399dnb2Io5GCPznf/5nI83R9uLs7Ozrr7++e/fuwcHBdevWzc3N+bMsYSVkBKBn/iQ0GHr2xRdfjIyMbN269c9//nMZBwh0g8Cf//znrVu3joyMfPHFF/4sTlgJDQHomT+pDICeXbhwIZ1Ov//++90oYrAJAjYC77//fjqdvnDhgj/rE1bCQQB65k8eTdezM2fOZDIZW0XBLyDQbQKZTObMmTP+LFFYCQEB6Jk/STRaz27evDk0NNTt2gX7IOBCYGho6ObNm/6sUlgJOgHomT8ZNFrP0um0SyHBJRAwg0A6nfZnlcJK0AlAz/zJoLl6duTIkaNHj5pRuOAFCLgQOHr06JEjR/xZqLASaALQM3/SZ66epVIplxKCSyBgEoFUKuXPQoWVQBOAnvmTPkP17MqVK3v37jWpcMEXEHAhsHfv3itXrvizVmEluASgZ/7kzlA927Nnz5UrV1zqBy6BgEkErly5smfPHn/WKqwElwD0zJ/cGapna9asMalqwRcQqElgzZo1/qxVWAkuAeiZP7kzVM/w5VnN8okbhhHAV2j+lKpAW4Ge+ZM+6Jlh1RHuBI0A9MyfUhVoK9Azf9IXVD0rZuIx/ejPB60Mwt+QEICe+VOqAm0FeuZP+oKsZ4lskZfEfDIWS+ZCUh8RRrAIQM/8KVWBtgI98yd94dCzcr4/Fs9wdcv3842bvFLOJdklfkX8Si5yUSxmE7FkJss2fdUdY0wv9Y6kc9KxK3QxXSa+sSOZKzu3ldS6djGenSae6AdxJpeM0Q0oackdJhLOD7e9qRyTxUL5ZHkX1V7Zkp8GZEcyuGw5zclQ65pp6kEyp2KMxVQiNFnSurAxyYDJLN9kx7PToq0kLD6s5PvlJxWaI/6pRRswJrtrF4kV7VfhZ7lcFXK1J/SKyGw+WZVl4Sv/CT3zp1QF2gr0zJ/0hUPP8klR1Gg5pjJDSzAt0/KuqE1CHspUbGjFZ2VOdqQlkozAa6UmJGWiLqLa6qXNzTQVMK2CsypJWkqpIBWc6yJRPn5dr93UIi/QrCW5y0VXc1I5ozzksVNNZbGQKs/US5kjPqhI+ciKkgSof25QFxlGoYi269QlN29pdpwirWKh6aAoauuZRME8d7NCzNv8ISGz3MmQXTwhQ/FwFARF13EGPfOnVAXaCvTMn/QFWc/49oT84CVY6ROtZEoeWAkSpU0rUqJcatXQPggvXkohauqZc49IyrFWGbUqaNMz9+v2jtThYiYuw9Q6iaD0S9pulV1W0lWWEquETfezmIk7S7keu7JisyswMv3g8qzaqjPRS0mXkhzXDw3ayDqTfJJ/pChmE1yJlRGbhgmL5LY+AjknPGt4wlBr1rXh7afQM39KVaCtQM/8SV+Q9UzbJIl6LYoUrTi6bJBzKXvyoZbjeaP4Bk4qExlWHtKce313Na1rhqqCumP6EzBiqtb+TN2i4+ghiK2VMGDzhF2UEZGizneHzsdxooILeRCqT9rL2IUNl32PAOUiutXeEhWRssclh+VIDMMf59pSIHaWRIQUKM1h1VlcdGqb2HjJTy1unpDxSchiQ6+idjmDnvlTqgJtBXrmT/pComfyGaBeuIXIyRpECj3ZfIhKrRV3XQPEOanCoubqGqafy7FlfaRXhGlhUWumGSVXdbUQSkMuq0deZeGwcluXSX3/wc3oENgl4Q/5TZy7dKR2tZCZZrjHa+uu7WPsnlOD8gmnUkF9VyTOtfB5IMxb8SRTGzmXFKop92e1mOh+aiNQwmQQYZ2YVOd02Az/2lJ543YGPfOnVAXaCvTMn/SFRM9EjabywESI1CaqXvyztiYSShjkZoVUOr4LkUVN6Zl2l6mLy37FzbQSD71WSqOkOmp6RjdMatuhdhJSgIVsqNpNujv3Z84xxfsaTKhUXwmN1nGn0kujWpWXWqgeErIKLxzTIKvSrywqb2l2mCYpApI840Yhu40sNYyZY1sxNyvEB13PqP8sdyS5tKOrJywvcjuoYnE5g575U6oCbQV65k/6gqxn6uGSkCJabUiZpof4CE+rGLskNxy8CXkGSV+uo5/c+/kLgPqGgI2UzWnPx9z3K7R2VpnWHyeKYW16Rgsu8yaZVyPrOwmxP+MbCCJLVBhIr3gmb9vJiXrrgEB2bP1J59ubdI/CbIudCvtN/ckZygeGSsirdEJ2Um24Ny7eEhVJJjkusSNknxX4OPxitZ7J0KRBto12sUJzIt8Vot7Qjya0J09HLU/odfGWo8Dq9hN65k+pCrQV6Jk/6QuqnrkVllau2fWjlZGM7Fv9BNLFTbWR5TdrvIHi0rXhS57VonpkTeHYTU/fclWPw6/U8ISoI98r1+zKbkDP/ClVgbYCPfMnfYbqme//MzX0jD4RtW+tIqtndAuo7RrrKhr+l2p/SlWgrUDP/EmfoXq2du3aujUEN0HAFAJr1671Z63CSnAJQM/8yZ2hejY2Nnbx4kVTKhb8AIEaBC5evDg2NubPWoWV4BKAnvmTO0P17MaNG9u3b69RQ3AZBEwhsH379hs3bvizVmEluASgZ/7kzlA9q1Qqvn+FZkqJhB8BIoAvz/ypU0G3Aj3zJ4Pm6tnp06dfeOGFAJU2uBo1Ai+88MLp06f9WaiwEmgC0DN/0meunn0d//Dw8M2bN6NWJRFvIAjcvHlzeHjYn1UKK0EnAD3zJ4NG69lnn32Gp46BKO4RdDKdTn/22Wf+rFJYCToB6Jk/GTRazyqVytzc3ODgYATLJUI2mcDg4ODc3Jw/SxRWQkAAeuZPEk3Xs0qlcuvWrVQqdfbsWZMLHHyLCIGzZ8+mUqlbt275sz5hJRwEoGf+5DEAesZAbNu2be3atbOzsxGpmwjTNAKzs7Nr167dtm2bPysTVsJEAHrmTzYDo2eVSuXzzz/fs2dPKpXKZrO//vWvJyYmTuBohACINUKLtJ2YmPj1r3+dzWZTqdSePXs+//xzf5YlrISMAPTMn4QGSc90IlevXp2amjqHoxEClmU10hxtz01NTV29elWfeDgHgSYIQM+agNZEl6DqWROhogsWFeYACHSFAJaeP9ihZ/5wNsIKFpURaYAT0SOApedPzqFn/nA2wgoWlRFpgBPRI4Cl50/OoWf+cDbCChaVEWmAE9EjgKXnT86hZ/5wNsIKFpURaWjKiTl6NNUVnbpPAEvPnxxAz/zhbIQVLCoj0tC4E3Nzc//1X//13//93/hHSRqHZ0QPLD1/0gA984ezEVawqIxIQ4NOzM3NbdiwoUiPDRs2QNIa5GdEcyw9f9IAPfOHsxFWsKiMSEMjTszNzT311FPFYpH9aynFYhGS1gg/U9pi6fmTCeiZP5yNsIJFZUQaPDvhEDNImmdyxjXE0vMnJdAzfzgbYQWLyog0eHPCVcwgad7gGdcKS8+flEDP/OFshBUsKiPS4MGJOmIGSfPAz7gmWHr+pAR65g9nI6xgURmRhvmcmFfMIGnzITTuPpaePymBnvnD2QgrWFRdTEOhUCiVSvM64FHMmpA0jw7M6yEaNEEAS68JaE10gZ41AS2oXbCoupW5Uqn04IMPWpa1evXqOqrWkJh5lLRSqTQwMJBIJCzLqmO6W2QiYhdLz59EQ8/84WyEFSyqLqahUCj09fVZltXb27t8+fLq3VITYlZf0nK53LJlyyxxFAqFLoYfcdNYev5MAOiZP5yNsIJF1d00SEmzLCsej+vbtabFrFrS5IaM7QiZnEHMupt6LD1/+EPP/OFshJVvfOMbG3B0lcCPf/zjnp4esWUiP++7775//dd//fd///fJyUkmTs39WSwWv//977Pnivr4lmX9+Mc/7mrQML7hG9/4hhElIOxOQM/CnmEtvmdwdJvAf/zHfzjEZuHChY888sj3v//9mZmZ5pSM9ZqZmfnhD3/4L//yL5Zl6ZLZ09MzPDzc7bhh/xltIeK0UwSgZ50ii3FBwEGgUChIMWPPGwcGBtg7GteuXduwYUPTkjYzM/PUU09du3atUqkUCgX2AohUtb6+PrwJ4sgFfg0lAehZKNOKoIwjIMWst7f38ccfz+VyDhebljRdzPQxC4UCex+ECRskTYeD81ASgJ6FMq0IyiwCpVKJ7czkhszVvyYkrZaYyfHldg3v60smOAkrAehZWDOLuMwiUL0hc/WvIUmbV8x0E3jFUaeB81ASgJ6FMq0IKsAEPEpaQ2IWYBxwHQQ8E4CeeUaFhiDgF4F5JQ1i5lcqYCdIBKBnQcoWfI0OgTqSBjGLzjRApA0RgJ41hAuNQcA/Aq6SBjHzLwGwFDQC0LOgZQz+RomAQ9IgZlFKPmJtmAD0rGFk6AACfhKQkgYx8xM7bAWRAPQsiFmDz9EicO3atZ/Rg/0LINEKHtGCgGcC0DPPqNAQBLpHIE2P7tmHZRAIAAHoWQCSBBdBYDM9wAEEQKAOAehZHTi4BQKmEICemZIJ+GEwAeiZwcmBayAgCEDPBAn8BIGaBKBnNdHgBgiYQwB6Zk4u4ImxBKBnxqYGjoGAIgA9UyxwBgI1CEDPaoDBZRAwiQD0zKRswBdDCUDPDE0M3AIBnQD0TKeBcxBwJQA9c8WCiyBgFgHomVn5gDdGEoCeGZkWOAUCdgLQMzsP/AYCLgSgZy5QcAkETCMAPTMtI/DHQALQMwOTApdAwEkAeuYkgt9BoIoA9KwKCS6AgHkEoGfm5QQeGUcAemZcSuAQCFQTgJ5VM8EVEHAQgJ45gOBXEDCRAPTMxKzAJ8MIQM8MSwjcAQE3AtAzNyq4BgI2AtAzGw78AgJmEoCemZkXeGUUAeiZUemAMyDgTgB65s4FV0FAIwA902DgFARMJQA9MzUz8MsgAtAzg5IBV0CgFgHoWS0yuA4CkgD0TKLACQgYR6BUKjGfdD2TF41zFw6BQFcJQM+6ih/GQaA2gUKhkEgkCoVCpVKRelYoFCzLyuVytfvhDghElAD0LKKJR9jmEyiVSn30KBQKTM+YmFmWZb7z8BAE/CcAPfOfOSyCgFcCmzZt6unp6evrG6CHZVkLFiwYGBjw2h/tQCBKBKBnUco2Yg0agVKp1Nvba1lWT0+PRY++vj58fxa0NMJfnwhAz3wCDTMg0ByBZcuWMSVjf65ataq5cdALBEJPAHoW+hQjwGATKBQKcnPW09ODN0GCnU5430kC0LNO0sXYINAyAfZWiNyitTweBgCB0BKAnoU2tQgsNAQ2bdq0kB54EyQ0OUUgnSAAPesEVYwJAu0kUCqVFi5c2NPTgzdB2okVY4WOAPQsdCkNaUB///vf//SnP505c+atSB6LFy9++OGHIxn6W2fOnPnTn/7097//PaRTG2G1jQD0rG0oMVAnCHz88cejo6OpVOrnP/95Lpc7efLkq5E8tm3bNjQ0FMnQXz158mQul/v5z3+eSqVGR0c//vjjTsw0jBkCAtCzECQxtCE8++yzmUzm0qVL5cgff/zjHyPPgAC4dOlSJpN59tlnQzvpEVgLBKBnLcBD144RuH79eiqVmpqaQhEHgWoCU1NTqVTq+vXrHZuAGDiQBKBngUxbuJ2+fPny6tWrq6sYroCATmD16tWXL18O91pAdA0RgJ41hAuNO07g448/TqfTetnCOQjUIpBOp/F1WsfXZHAMQM+Ck6toeDo0NHTnzp1a9QvXQUAncOfOnaGhoWisDEQ5PwHo2fyM0MI3Ar/73e9yuZxesHAOAvUJ5HK53/3ud75NURgymQD0zOTsRM43PGmsX7tx15VAOp2O3FJBwG4EoGduVHCtGwRKpdKOHTtcCxYugkAdAjt27MC/nNKNJWucTeiZcSmJrEO/+tWv3nnnnTplC7dAwJXAO++886tf/SqyCweBSwLQM4kCJ10msHbtWtdqhYsgMC+BtWvXdnn6wrwBBKBnBiQBLlAC+PJs3qqNBrUI4Cs0VJFKpQI9wzQwhUAqlapVrXAdBOoTSKVSpsxj+NE9AtCz7rGHZTuBefWsmInH9KM/X7/G4W50CEDP7Ispor9BzyKaeAPD9qRniWyRF+l8MhZL4u+qRUey6kYKPTNwRfvvEvTMf+aw6E6gQT0r5/tj8YxQt1yS79yk4IkrvM10VtvcJdnOjo6Q5T3Vbo8oJT/IRe1XetUposIQuSmtK3PcVlldoaMIc/l+bqo6FuW5GJbsUMm5q0vaRTG4JgHFbIIbEk6SK8kMx6Ksl1VLHul0Ni4cKOeSonvZtl2WFjUapLv2KzVPaSgUAg4dNstRyDbiLolXnmsxaafQM/dFFbGr0LOIJdzgcBvUs3wyFs9O05JG6yMtvrQWcxFid0Up1IoyKcS0/lItkc3Ybo+MoIREmiAlVZjTyig5zSXZaESxeN0n0sLEgJhgF9Vd1YVKgizfrIs0VO05VSwpLTaXarnNfSVucMmRvjHdktZ5dKolkSJ60eG5cKCYiXNQOgFBSUgvdUBTQfb5gHVUcKjsqYvEVeIeF1Q5voO89iv0zOCV7Z9r0DP/WMNSfQKe9EzsMWIxoTpMUUSRpRsC/bO8kAetKMtCrGp3me42eMWXZVL0JRf0c9mAnuSSSv+YG6Q6Cx+I1grN0J0Ugsr7lsl2U0gOG19YFJ7n++l2Sg5S0yXR0e6m+E3qhCaB1Dr1RKpdWSmKcICMoClTMROvpzdaS70X3afqcKhkuhHT08QNiRiqf0LP6i+uiNyFnkUk0QEI05OeqWquBMC2FZD6wSRKyp56xhWTYqM/sZSbNqqIUjblnqymSKiyLus+3W3IIdx3OWILIvVMOVDteSJbZINLE6Si212yGZVui8pvC1/tRKVOCBR0C6i7nik6n5SKFOT7hRVt/0RUWR6ipU3PdOmSIejiJzPIgxX7VBGK60/oWQBWeOddhJ51njEseCPQqJ6pKqlXQ1u5nGeToW+JxLm+QdEFQz+3VVRV1qXY6P7ItvKu9ohSqAhpJByQHcRGinbM9lMR0geRYkB7yyecTp0jd/WtmBi26qLYnwmVko7oRlVoxWxCbLOknunwVUvbrm7+/ZkapJhNxLMZ8ThX+uN2Aj3ztshC3gp6FvIEByi8RvVMCQDdfNCtBinW5KmdKsGifKsrqrySEfiDQSlj8oS97yCLew0904dV545Baj5vJHsy+TSSfeWmBtE8l2+aqLuO/ZnDonSb1X4yFN8IErVQ+zP13Z743suFqm5UqpTUME2e6daWiRxNhOv+jMgwd4bYYm2UVzZdp3zEt2huMiavQc8CtNI75yr0rHNsMXJjBDzpmXyWJUs8K2m0IJKbooZSraKt2bdiLg/cSOmM9yfZe4+25360XzyTV68k2DZDsoqS0uw8nOaEtDhUgTVj2zJujr+r6ea52yB2l1jpp18r6m4LVyWf/rzYFFK97OcRyAePbDPHguJMHJ6zh5/OsJlEURkjt+LZnPji0P6tG3FI5ULb4SWSSfYGpsigaCnaiFBcf0LPGltsIW0NPQtpYgMY1rx65lrIWrkoKnvTY1R9taPvWpoe1aeOVM+a+wt8usJRb+W7G036Lrd99v76d4r2O87foGcBXPHtdxl61n6mGLE5AtAzZ5Hu7O+m6xndp3ranJXLZehZc4suZL2gZyFLaIDDWbNmTWcLOEYPL4E1a9YEeOrD9TYRgJ61CSSGaZnA3r17L1++HN6Si8g6ReDy5ct79+5teQJigMATgJ4FPoWhCeC9997bvXt3p2oexg0vgd27d7/33nuhWQgIpGkC0LOm0aFj+wn4/xVaeIt8hCLDl2ftX4rBHBF6Fsy8hdTrY8eOHT58OEKVGKG2TODw4cPHjh0L6YJAWI0RgJ41xgutO01gcHCw5RKHASJEYHBwsNNzEuMHhQD0LCiZioqft2/fHhoailA9RqgtEBgaGrp9+3ZU1gbinI8A9Gw+QrjvO4Hz58+vXbu2hSqHrpEgsHbt2vPnz/s+PWHQXALQM3NzE2XPisViOp2em5uLRGFGkA0SmJubS6fTxWIxymsEsVcTgJ5VM8EVIwj84x//yGazzzzzzJ07dxosd2geWgJ37tx55plnstnsP/7xDyOmKZwwiQD0zKRswJcqAh988MH69evT6fTo6Ojk5OQf/vCHaRwRI/CHP/xhcnJydHQ0nU6vX7/+gw8+qJomuAAChAD0DPMgGATu3Lnz1ltvHT58+OVIHqvoEcnQXz58+PBbb711586dYMxUeNk9AtCz7rGHZRDwTGAzPTw3R0MQiCIB6FkUs46YA0cAeha4lMFh/wlAz/xnDosg0DAB6FnDyNAhegSgZ9HLOSIOIAHoWQCTBpf9JgA985s47IFAEwSgZ01AQ5eoEYCeRS3jiDeQBKBngUwbnPaXAPTMX96wBgJNEYCeNYUNnaJFAHoWrXwj2oASgJ4FNHFw208C0DM/acMWCDRJQNezUqnU5CjoBgKhJgA9C3V6EVyQCeRyuUQiwdRL6lmpVLIsK5fLBTky+A4CHSEAPesIVgwKAq0TYNLV19dXKpWYnrErlmW1PjhGAIHwEYCehS+niCg8BAYGBhYsWNDX17eaHhY9BgYGwhMhIgGB9hGAnrWPJUYCgXYTKJVKvb29lmX19PQwMWPbtXbbwXggEAYC0LMwZBExhJjAsmXLmJKxP5ctWxbiYBEaCLRCAHrWCj30BYGOE8jlcnJz1tPTgzdBOk4cBgJLAHoW2NTB8WgQKJVKfX19cosWjaARJQg0QwB61gw19AEBPwkMDAywLRreBPETO2wFjgD0LHApg8ORI1AqlRYuXNjT04O/SR253CPgRghAzxqhhbbdJnDr1q25SB4JekQy9Llbt251e97BfjAIQM+Ckacoe3nlypUNGzakUql169bt3bv3xUge/4cekQz9xb17965bty6VSm3YsOHKlStRXguIvT4B6Fl9PrjbTQLXr18fGhrauXPnnTt3ytE+/vjHP0YbAIn+zp07O3fuHBoaun79ejfnJWybSgB6QC69KgAADlhJREFUZmpmIu/XoUOHRkZGUMRBoJrAyMjIoUOHIr9EAMBJAHrmJILfTSCwffv2sbGx6kKGKyDACIyNjW3fvt2EuQofzCEAPTMnF/CEE3iBHijcIFCfAJsnfNLgBwhUKtAzzAKzCFy5cmXdunX1CxnuggAjsG7dOrwhYtYC7qo30LOu4ofxKgKDg4Mo1iDgncDg4GDVJMKFiBKAnkU08WaGfeHChQMHDnivZWgJAgcOHLhw4YKZ8xle+UwAeuYzcJirRwAvNEKfmiAwMjJSb1bhXmQIQM8ik+ogBIqHjU1Uc3TBI8cgLG4/fISe+UEZNrwQ+Oijj7Zv347qDAKNEti+fftHH33kZY6hTbgJQM/Cnd8gRTczM3P48OFGaxnag8Dhw4dnZmaCNNfha2cIQM86wxWjNk6gUChMTk6iOoNAowQmJycLhULjMw49wkYAeha2jAY3HuhZo3Uc7RkB6FlwV317PYeetZcnRmuegFc9yyVj4ohnivVrer5fNI3FYv35+o1bv5vvjyVz5WImrtsiPiSy8zjauu0wjuDKszpQ6Fnzqy5cPaFn4cpnkKPxpGdEzOLZaVbTitlErI6kFTPxZK66+nXwiqy/yqvpbDyRTCakzx20Hr6hXXi6BQk9C/K6b6fv0LN20sRYrRDwoGdVAjadjceSfNsl9218M1TM9mfzmTjfoInNGSuRWlUkY/JNlbaXIzuqXFJus8geSxuBNVSiJYYrZpJEa3NJqaPFTDyeKdp2bNTnLHdM0zmn/2XNVe4ktZNX+1O7tHP3q/eCxCI9RAjlsjYIuyjbkIYCaZnYZQePyNV5BUrzkwg535XKXbIgVswqgc8nZRSSQIxkpFwuV/MUpG0/oWetrLsw9YWehSmbwY5lfj0jxVQTAL2m0XJMiyAtwaRG05LNKzi5yIqpJhKsv1aCSQHVHhXKMs1qPR2KNGBlWlnU/XCcy8KdT0qRqDkaC036X0fPmN7IwUlLIbckaqmm1BsZoGyvaJSJM9SuJj8SghpWbotdnZegqP4p5aOg3IhJT8o0TcIBkVzVxYGzxq/Qs2Cv/PZ5Dz1rH0uM1BoBb3omtw722pZLqu+oSPFN5omeaeInGjSuZ7T4ZtheTVOCMlERseGwOyN/00RC2ZUSQppxJ20V3MVVqUm0C9/36KogTeot5UV24npLUNJcZXtK9oFASKPo6+Z8uZ6ekY6SkiCmey4c0J0VBPRrdc6hZ62tvPD0hp6FJ5dBj8SbnmkSpVU4mx6Qmsv0TBM/Ua/lsy/yGI1suUSlpqORcfiWjjw2JOf6n9rzN/4YTjbWnJGnZDT9YI25e6yVpmd6S7qZs7kqd13T2Tg3qqkCGVMdQoSkIzQW/Y0Y7cke/z7SNgLjpj2TpGMTWXJzfl49U55pzLWLPKe2eMWzSi2GmqfQs6Cv/Xb5Dz1rF0mM0yqB+fWMyon8sE/Lm3iOp3+i5/szrdyXaUGnJVLtk7iS1dezLP+mh29BbI1r1ld+w/HoT2xEiCQIVRbnNh0V41a5Sm/kkoKADFDfA9XzUGyPdMc0r6SEcJjilvCH/BQO287n259V6av0XO1QiSjKR7J6NnXrNc6hZ62uvbD0h56FJZPBj8ODnrF9hhADtltSmx72vREp6GyPpYmEqvJVIqFu0RcQ7PszuacRJZuMyes+UQUhLW6FVi/Q5D4xJLY4vKMaTdMJsk1xl142iB4+OxcjM9mWOznulJB89YBU6RlxoOr7MyItwgG+WyXuUbz0hEWtnBdwbJtdsSFWzeg3mrRvfT0j4QjIbmCrrkHPgr/62xMB9Kw9HDFK6wQ86Zko2fxplf64Tz5Dk/sMWsEdLW0PtUj3+nomnliqkk1fvmCD6tariiwxZG9AxSOZJ5KQTPK/GCfGt8XFL1ZJr2ZaPa2jjWXs/XmxCVMOUbu0gyAjr8QzefZ6J914aYPyv+dApYVe5srt6ry0rgawmVPMORA3PWOfTki/eDanvbaq4qh5Bj1rffWFYwToWTjyGIYopqamJiYmahat0NygktDcX+3WFI7hUHsvn/C04HznPJyYmJiamgrDGkAMrRGAnrXGD73bR6BUKu3bt69zVc+UkVuQBOiZaxL37dtXKpXaNxMxUlAJQM+CmrlQ+r1mzRrXgoWLIFCHwJo1a0K5HBBUowSgZ40SQ/sOEsD/51mnauNWLQL4/zw7uCYDNTT0LFDpCruzx44dO3XqVK2yhesgUE3g1KlTx44dC/vKQHyeCEDPPGFCI98IpFKp6pqFKyBQi0AqlfJtcsKQ4QSgZ4YnKHLuHT9+/ODBg7WKF66DgE7g4MGDx48fj9wiQcA1CEDPaoDB5e4RGBkZuXDhgl62cA4C1QQuXLgwMjLSvXkKy8YRgJ4ZlxI4VKlUBgcHZ2dnq0sYroAAIzA7O4vXQFArHASgZw4g+NUUAmvWrDl8+DDKNwhUEzh8+DDe0TdloZrkB/TMpGzAFzuBgwcPDg0NTU/z/466uq7hStQITE9PDw0NHTx40D5T8BsIEALQM8wDowl89dVXu3btSqVS27dvf+ONN+bm5m7hiBiBubm5N954Y/v27alUateuXV999ZXRUxbOdY8A9Kx77GG5EQJ3796dnJzcv3//jkgeP6BHJEPfsX///snJybt37zYyX9A2igSgZ1HMOmIOHIHN9Aic23AYBPwkAD3zkzZsgUCTBKBnTYJDtygRgJ5FKduINbAEoGeBTR0c948A9Mw/1rAEAk0TgJ41jQ4do0MAehadXCPSABOAngU4eXDdLwLQM79Iww4ItEAAetYCPHSNCgHoWVQyjTgDTQB6Fuj0wXl/CEDP/OEMKyDQEgHoWUv40DkaBKBn0cgzogw4AV3PSqVSwKOB+yDQEQLQs45gxaAg0DqBUqn04IMPMvWSelYqlSzLKhQKrY+PEUAgZASgZyFLKMIJDwEmXYlEolQqMT1jVyzLCk+QiAQE2kcAetY+lhgJBNpNYNWqVQsWLEgkEqvpYdFjYGCg3XYwHgiEgQD0LAxZRAxhJVAoFHp7ey3LWrRoEROz3t5ePGwMa7oRV4sEoGctAkR3EOgsgWXLljElY38++uijnbWH0UEgsASgZ4FNHRyPBoFcLtfT0yM3Z7lcLhpxI0oQaJgA9KxhZOgAAn4SKJVKfX19covmp2nYAoFgEYCeBStf8DaKBFatWsW2aHgTJIrpR8yeCUDPPKNCQxDoEoFCobCQHngTpEsZgNlgEICeBSNP8DKyBD755JOZmZnFixd/61vfmpmZ+eSTTyKLAoGDQH0C0LP6fHAXBLpG4ODBg48//vjixYtXrFjxv+ixYsWKxYsXP/744wcPHuyaWzAMAqYSgJ6Zmhn4FWECx48f//a3v/2jH/1ocnKSYdD/zcbJyckf/ehH3/72t48fPx5hSAgdBJwEoGdOIvgdBLpL4Omnn/7Od75z+vTp+m6cPn36O9/5ztNPP12/Ge6CQHQIQM+ik2tEGgACGzZseOKJJ8rlshdfy+XyE088sWHDBi+N0QYEQk8Aehb6FCPAwBAYHx9fvnz5p59+6vD46tWrk/S4evWq49ann366fPny8fFxx3X8CgIRJAA9i2DSEbKJBMrl8kMPPfT73/9edy6Xyz388MMLFy78Fj0WLlz48MMPHzp0SG/z+9///qGHHvK4pdM74hwEQkYAehayhCKcoBLYsmVLOp3WvR8cHFy0aNF99933Te247777Fi1aNDg4qLdMp9NbtmzRr+AcBCJIAHoWwaQjZBMJLF269NKlS9KzHTt29Pb2Llq0SNMyfrpo0aLe3t4dO3bIxpcuXVq6dKn8FScgEE0C0LNo5h1Rm0Xg0qVL3/3ud3WfvvnNby5cuLBazNgVdktv/93vfleXQ/0WzkEgIgSgZxFJNMI0msD4+PhPf/pT6eLk5GQ8Hq8lZux6PB6XfzutUqn89Kc/xVshEiBOokkAehbNvCNqswhs375906ZN0qctW7bcf//99fXs/vvv178z27Rp0/bt2+UIOAGBCBKAnkUw6QjZOAJbtmz5xS9+Id3auHFjnYeN8pHjxo0bZZdf/OIXurzJ6zgBgegQgJ5FJ9eI1FwCBw4cGB4elv69+OKLS5Ysqb8/W7JkyYsvvii7DA8Pfz2I/BUnIBBBAtCzCCYdIRtH4M0331y5cqV068aNG5Zlub7cyERu0aJFlmXduHFDdlm5cuWbb74pf8UJCESQAPQsgklHyMYR+PTTT3t7e/X/C+bJJ5+ss0VbsmTJk08+KcP45JNPent7q/9hEdkAJyAQBQLQsyhkGTEGgMDAwMD+/fulo59//vkjjzyyePHi6qeOixcvfuSRRz7//HPZeP/+/fivqyUNnESWAPQssqlH4GYROH/+/NKlS//5z39Kt/76178+9thj999//+LFi++jx+LFi++///7HHnvsr3/9q2z2z3/+c+nSpefPn5dXcAIC0SQAPYtm3hG1iQRSqZT+Vghz8dy5cz/72c/+Nz1+9rOfnTt3zuH68PDw1x0dF/ErCESQAPQsgklHyIYS+PLLL1esWDE6Ourdv9HR0RUrVnz55Zfeu6AlCISVAPQsrJlFXIEkcOPGjeXLl69fv96L9+vXr1++fLn+lqOXXmgDAmElAD0La2YRV1AJ/O1vfxsYGHjssceOHz9eK4bjx48/9thjAwMDf/vb32q1wXUQiBoB6FnUMo54g0HgxIkTP/jBD5YuXZpOp1944YVT9HjhhRfS6fTSpUt/8IMfnDhxIhiRwEsQ8IsA9Mwv0rADAo0TuHz58oEDB1Kp1I/okUqlDhw4cPny5cZHQg8QCD8B6Fn4c4wIQQAEQCAKBKBnUcgyYgQBEACB8BOAnoU/x4gQBEAABKJAAHoWhSwjRhAAARAIPwHoWfhzjAhBAARAIAoE/j/eGkNOtUYd8gAAAABJRU5ErkJggg==;" vertex="1" parent="1">
          <mxGeometry x="-30" y="942" width="581" height="386" as="geometry" />
        </mxCell>
        <mxCell id="6gBzvza-OcvXsySnCAHP-21" value="" style="shape=image;verticalLabelPosition=bottom;labelBackgroundColor=default;verticalAlign=top;aspect=fixed;imageAspect=0;image=data:image/png,iVBORw0KGgoAAAANSUhEUgAAAasAAAE7CAIAAADsFTl5AAAgAElEQVR4Ae2d+48URdv351/QnwYcduGZZXeZF4HF+MMTMMa4EQnB12jmzt7mFeMLBgw/kPhoTGaXg7uNLPeisBhOcvCwCzsyEpBFEEiUBEaWCCwZXUSUQzqPSDAvZmIM6h2d96mqrurqmZ7ZOXRPn779A9tTXXXVdX2vuj5dPQ1LKIfDNQqk0+menp7BwcF9Hj8W0cPjQewbHBzs6elJp9OuWSBwxHoFQtabhMWqFEin07t37759+3bW+8fly5e9HwSJ4Pbt27t37wYEq1rR3hgEAroiT37Cnz/YJ6IABF1RIbY5AQLaJm3ZhoE/gRt3ngCCZa9l73UEAR3OGfDnTurleQUIOlwntk0PAtombRmGgb880Lj5IyBYxor2XhcQ0LGcAX9u5p2pb4CgY9Vi28QgoG3SljQM/Jkixv2NgGDJde29iyCgAzlj+Pvpp5/cX/DwsFABQNCBmrFtShDQNmmLGB4Xf6mOkHzEk4U1iBbbFBhVWrj6JZT/6aef8PcEiyxwjzWDgHVN2Lj4y2azhIAdKa3Ek/FQTMnYVu8wbFQgo8RalFHaRlAY52kw9qKfAMG6Vo5tk4GAtklbYLgc/JUgYKZb2520dDMkpuJst8IQKbEy1REi+xe9hfSkO5pUPEQqnJoylLfYeNJuGSXGN0IhgWPRyBhBPsa7tR1T3nZJuEqtaBOJRu6/hJWkFkpI85PIwJv06XSftDtEnks0ZNqJTkE9pDtoMjVRSdiknWL/9V8xJouslfAqFS9JwGw2yyC4efPmkzhsU6CgjCxuAAEtFrSEuS1bthw5ckRUWLETASMZHwRnWkFqOMt0tzCUFPCO7CJlAjKDEgELalsY1zY+OjvIvBQ3+s5U60zpI+BrhAUhjgYpPpeYgmIoj5jZZJy1aJ5njQ6QWYwtRV1iuGST8iHswZa5ms1mR5UWfi5raOSyuGcUy5LWPjw8/I9//OP/4LBHgVmzZpUoKEsugYCWyFiWkd9+++2DDz44efJk6arSWZNlmxqyh5KYQgCnlSurbcYaghj90AlIC15hTNQ2QYbdX9ZonPrG2cEcIPalFmKkRRktbNHDkrzVCCi1SP7zEZnuFiMBjZu1vOk0KJs7QCbSNpJaB0LVbp16MgH5ufTwS1ySLXMXzX6ePHny/fff/+2338pKPzpVrkA4HK58UGUjQMDK9KqxdzkQNBBQw00RAtKyzNvxsedoQUDGPr63ovBK5n/DJeOJmpQQUBQ3Uh/upKCEZLAsAqY62N6N714LDBqoVNQlMb+0B2Tsk/Z9nHqsM2VfUuIjadZ8FuZMT4C/GmuhnOEgYDkqeazPuBA0EFA8PIoTUp/kIZdDjZ/o3/pJLfxbPN5Z/x7Q8NAnjJNNpXF/V/opWN9+GvaVhQQsfIqXsJKK88dS7ifBq/YcrfkmAbeoS4JcOgFD9HtPA/VkGtJNbktM+z5BcmmcU+CvPlUHAtZH53rPUhqChIDSwR4PtWdV2m54BA6FtJfF5gQstrcSsNBKnT08hkLs+doEN2wXxuanb0tJn5aY9nJGOMnMmRCQPWvL/msz5z3wkkdY+gZWtOtvQrRZOAELXGJveMgcVCIJozL15HPig3ZX0NzRWgxAly6RU+CvbgUDAtZN6npPVBqCeSXnyo+UgNpb6VoczGNxRomVok8tM5mPle4c5h2MrcBfPUsFBKyn2vWey+MQ9AMB2c43bwNrJJ7hE/BX5yIBAesseL2n8zgEDXTw/Qfgr97lkcuBgPXXvN4zAoKeQCfwV+/CoPOBgI7IXu9JAUGXQxD4q3dJ8PlAQK6E338Cgq6FIPDnYPGBgA6KX++pGQQHBgYyOFyjwMDAAP7VR70rQZoPBJTECMDpb7/9tn///pT3j/9LD+/Hkfroo4/wj94crDwQ0EHxMXX1CmygR/XjMRIKUAVAQCwETyoAAnoybe5zGgR0X07gURkKgIBliIQu4ysAAo6vEXq4UAEQ0IVJ8aJLIKAXswafcyAgFoElCoCAlsgII/VWwISAh5+jvxeG/PHcYeLPp8/rDZ/W20HM5w0FQEBv5Ale5ilgSkABPnry6aeUg7nc9Q3TNSbmGcFHKAACYg14UoFCAl7/1zQjAUlcYhvILnkyVDhtpwIgoJ3qwrZtChQS8NPnp234nsz36fN0x/f9hmmh0LR/Xcce0LYk+MEwCOiHLAYwhgICfvrc9A3XqRASAZ8jX/9RFGIPGMBFUk7IIGA5KqGP6xQwEvBT/SWI9vLjuU/p13/k0/QNG55nm0HXRQGHHFcABHQ8BXCgGgUKCEi3e5ql6xumyx+rsY8xAVEABAxIov0WJgjot4w6FA8I6JDwmLY2BWQCqqpamzGMDq4CIGBwc++5yJPJ5IwZMxjvBAFVVQ2Hw+l02nPhwGE3KAACuiEL8KEsBRjsYrGYqqqMgKylDou4LP/QyYMK1GHxhDwoC1x2qQIrVqyIRCKxWGwlPcL0WLFihUvdhVuuVwAEdH2K4KCkgKqq0Wg0HA5PmTKF4a+5uRmPwJJCOK1MARCwMr3Q23EF2tvbGfvYn+3t7Y67BAe8qwAI6N3cBdTzZDLZ2NjI8BeNRpPJZECFQNhWKAACWqEibNRRAVVVm5ubxTawjjNjKh8qAAL6MKm+D2nFihVsG4h3IL7Ptd0BgoB2Kwz71iugqmpDQ0NjYyPegVgvbsAsgoABS3gu9/vvv9+6deu/PX78L3p4PIj/vnXr1u+//x64JeimgEFAN2XDTl+OHTu2evXqrq6uvr6+3bt3v+fx40V6eDyI93bv3t3X19fV1bV69er/SZCd+YdtcwVAQHNd/NSaSqU6OzuPHz+e9dFx+fJlH0VDQjl+/HhnZ2cqlfLT2nN/LCCg+3NUvYd//PHHqlWrhoeHfQYLH4czPDy8atWqP/74o/qsY2QlCoCAlajlqb53795NJBKqqvqYF74MTVXVRCJx9+5dTy03rzoLAno1c+P6zarIl4zwfVDs7jVuitGhdgVAwNo1dKMFRVHGxsZ8TwofBzg2NqYoihvXlr98AgH9lU8azYULF3bs2OFjOgQktB07dly4cMGHC9RNIYGAbsqGRb50dXUFhBG+D/N//qKMRYsCZswVAAHNdfFu688///zWW2/5Hg0BCfCtt976+eefvbsa3e85COj+HFXm4f79+8+fPx8QQPg+zPPnz+/fv7+yFYDelSgAAlailhf69vT0+J4LgQqwp6fHC+vOqz6CgF7NXDG/Ozs7AwUI3wfb2dlZLNdor10BELB2Dd1lIZFI+B4KgQowkUi4a4X5yxsQ0F/5zOVAQJ/xEQS0tURBQFvldcB4uQQcVVpCoXhyfFykOkL60ZEafwB6WKoACGhrFYGAtsrrgPEyCZjqCMU74qHxiJbpbimHkpaWPIwZFAABba0iENBWeR0wXh4BU/FQPJVNxUMtyqhWb6mOUEu3Emf7PY2MGaVDSXW3aHtA0Rjjo8hGkpxnRB/WNaZkkvFQTFG0/WM8f+tIBsYVbRS3lpXt8Mak5lFLd4Y4WmRglncLxRTaL0sQz3a4dAhzINPdotkhsfND3AZIT3YQh02CMqCJTKH1phOJj7SR+2+0SQyUVsY4RTabBQFtrSIQ0FZ5HTBeFgGT2u5PIgKrZ1a3hA4UHxQTOvhCFB8ZhROQ1jwvdYYMQROKJIYb0k20swpnXKCNBDQMW2SIxko+RDCaIZsRULOmDyTWmBsZJaZdLUlA0k1Cal7UVApOUjJLnvM0BL2dzE7c1mfMComIgLoIephSo5lxGYMgoK1VBALaKq8DxsshoF6ro0oLL3UOHVJ9vLwFgGhJ0s1LRpQ3wagiaCiN4p05ztjGzbAN1JmVzRq3oqz4uQPsk9THbCDpzKNgO6yMzCNOKOahBj5hWMwu8Vd2uMATzUElxveY3JSuqpBImprapKgtMhE3k/8TBLS1ikBAW+V1wHgZBJQeAMkDm7aJo0/B7AlSJqD0AKvhkm1w5D+1ojXAQsMlvSSDgPU1tAjO0h2c9mSpbxuJWb6Tktkk0Mk6iHFsI6nzSJpL3/PSLSofIsDEG8hPTRZDUDqdxDZZahLP3YKAMuxk1ApeS77phoxnIKCtVQQC2iqvA8bHJSApaVGB+naPPvrxJzK+HxRPc7Qo5T1gN3uONnQwwEIufvmclTepfA0xYnMkO2YwRYYQOJIH82IDueeCHiUJKPOL81dGtrAi6SO1Sf5IrfqMgoAy4ITnshryuWRKPgUBba0iENBWeR0wPh4Bpa/AWJ3xIiTU055bdUBIJOIMojDiW6TSBNSeEzlPpbomONC+CxPgEyd0c0f3gPpDOp/dbKCMRTIX5bvOIwlDfA9oDFBjcV6jtvmVFJD8p0/Z2veDHG36jIKA9H2L6feA7C2NiTKGScgHENDWKgIBbZXXAePjEJCXq1RopPJbujPkKbgjzl6Gyl+WUTLSx0NtnyUztCQBY/F4jA6UtpzavJRK8fw3xcQTesRTfEeWP7v5QPqCVYylc+gDtXbtBwuNcI0eLd0p/Rs9YlxrFq/IixGQbUtZb4EzdkIvyTtcrZf2TSgJrbgyUmLYKQhoaxWBgLbK64DxcQhYUGCiQf4eUDRWf8IRZm6BgszwbsS8X0Fr1QMLLDnWUFqZArdAQFurCAS0VV4HjK9ataqgiMpqAAHLkqn2ThUScNWqVQ4so8BMCQL6LdVbt269efNm7XUKC25Q4ObNm1u3bvXbGnVTPCCgm7JhhS+ZTGbv3r1uqF74ULsCe/fuzWQyVqwL2DBXAAQ018XTrVV/FVh7xcKCtQrgS0C7KxEEtFthB+zv3bv3iy++sLYUYa3+CnzxxRd79+51YAEFaUoQ0J/Zxjaw/sCyfEZsAOtQnCBgHUR2YIpvvvlGURTLaxIG66aAoijffPONA0snYFOCgL5N+JEjR95+++26VSwmslCBt99++8iRI75dmm4KDAR0Uzas9uX48eNr1qyxsDJhqg4KrFmz5vjx41avBdgzVwAENNfFN62qqnZ1dQ0NDdWhdDFFjQoMDQ11dXWpquqb5ef+QEBA9+fIAg9Pnz69cuVKRVGOHDly5cqVO3fu/D8cLlDgzp07V65cOXLkiKIoK1euPH36tAXJholKFAABK1HL433/+uuvkZGRgYGB/v7+tz1+PEsPjwfxdn9//8DAwMjIyF9//eXxxeVV90FAr2Yu4H5voEfARUD4tSsAAtauISw4oAAI6IDofpwSBPRjVgMQEwgYgCTXI0QQsB4qYw7LFQABLZc0mAZBwGDm3fNRg4CeT6E7AgAB3ZEHeFGhAiBghYKhu7kCIKC5Lmh1uQIgoMsT5BX3QECvZAp+GhQAAQ1y4EO1CoCA1SqHcY4qIBMQ/4zM0VR4e3IQ0Nv5C5T3qqrOmDGD8U4QUFXVJUuWpNPpQEmBYK1SAAS0SknYsV0BVVXD4XAsFlNVlRFQVdX29vY6LGLbY8MEDilQh8UTcig0TOtDBZYsWRKJRGKx2Ep6MPytWLHCh6EipLooAALWRWZMYpEC6XQ6Go2Gw+EpU6bMmDEjHA5HIhE8AlukbhDNgIBBzLqnY547d25YOubOnevpcOC8swqAgM7qj9krViCZTDY2NjIGRqPRZDJZsQkMgAJcARCQK4GfHlFAVdXm5maxC/SI13DTpQqAgC5NDNwqocCSJUvYNhDvQEqohEvlKAAClqMS+rhLgXQ63dDQMHHiRLwDcVdiPOiNJwn4119//Ykj2ArE6BFsDRD9n7X/7wKeIeCFCxfWrVuXSCTWrFnT29v7LxzBVuB/0yPYGiD6f/X29q5ZsyaRSKxbt+7ChQtV7EE9QMBTp04lEol9+/bdvXu3xv+NEMN9o8Dly5d9EwsCqV2Bu3fv7tu3L5FInDp1qiIOup2APT09H374Ye0CwQIUgAJBUODDDz/s6ekpH4LuJeDff//d2dmZyWSCkDbECAWggFUKZDKZzs7Ov//+uxwOupeAXV1dN27csEoU2IECUCA4Cty4caOrq8vDBFy/fv3IyEhwEoZIoQAUsFaBkZGR9evXjwtBN+4Br1y5snHjRmvlgDUoAAWCpsDGjRuvXLlSGoJuJODq1auDlirECwWggB0KrF692mME/PXXX9988007tIBNKAAFgqbAm2+++euvv5aAoOv2gIcOHTp79mzQ8oR4oQAUsEOBs2fPHjp0yEsEVBTFDiFgEwpAgWAqoCiKlwjY2dkZzDwhaigABexQoLOz00sETCQSdqgAm1AACgRTgUQiAQIGM/WIGgpAgazfCJjpbgnlHy3KKDINBaAAFDBRwIcEbOmW/7FwRomBgCaJRxMUgALZrB/3gMUJmFFi2v4wnqTZH1VaQnFF2zZKoEzGtX4xhdE01aFvLHX7Bd2y2RQfGQqFJINirZEZ6cEsJ+OhmKJoxuMp3k1MZzJXKBTiXmWzWdEznszm739jSkZ4aBylzWNyVZeIesldknpq0mWN03Vw30VP4aRooRZpRCa3pVRHSLZMutHscLupeIg7w7wfVVr4FCRwfs4lJNrouWDuVZJu7gwRhJ9LBvXkSo1kFukjU5CsNF1VzVShJ6WDJVEJy0IHU7N01hD12UR52U4oJLKWb1xOUCoughUGC9UujIhlomCInmgp5Ex3C1/qZkGJ6Wi9kJJMxoXzpARoILrlgkmlVZF/GqA9oFCKyMeSSnKgyadXEWlk8KLJyBOXrBV6lY6lC1rvRpcpW6DyGhKi87GUXCTlNFUs98I9oye8/ETK8yqfLWLjYhKLI2+h8EXG/RE2hT+kVgW4OXR0QSj1+HLUV62wo/eUNBFXKTSpD/IsmjP68jV0Kwif+074qHlC0cC94teJA1q8wityUmm6iR2JgHnJNZuFeKAnmnzo4DetUgtPmkhSTA6HuUGWB1+TGvdls7IOkh2eLFOH9am5cTlBPBaqXsGC5w5WoS0ZotGcu0e1YkvaNKhCAkrz8iXEHWY3aWaNu1n4MzgEJHXClzJPOZFPLnhyrgOI3WrokuLissVN0yaSwbppuUzFtSUoryEuuzyEtZE0a4uAb3mkNaqDidz09HrWpxAR8Snysi7VgBQC72xyVXabE5B3Jz+lEDLdLZqe3I6pdDKF+UKXZ9Gsy+7xbiQXLGr5qjaAE5Bc6hY0lH0V57wkqkk3XyrEWMnkGqjHZySjZAs8uUU8KRWsWCdaWEXMjkNAoYmEaeIMX4S68fy6kFNPzvOGFIlI35vzlaOnUpqXJ7pIkYqguBG+qOhC6tb2g5pl0Seb5TUlR51/HiwCak8I4nFMyoG4b5MyNhxkcZDbOD/YMjVUu7AzqrRo9xyTIjcMYYkwyRZZ2YaDGtRxwyufOlwGAYUtsYzEGiDrmB86VeWlrxWGHL5Y06kO3lMmILdHf9Lh/CqBgUY0Q4wMo3ph6N3oCiaOmbGY6SD/KeIS2urOUFdFmkgHDVLjpjskbpymyZU1LLibUkfkqiYLiawfM0/4rtYs2ELiEP/17Otm5SybKE/vYXmymBg3JIg9MBlWr8F/GqWhZRxttRunNIQvDBKUfHCtpDYWIAtN/lMuUn3fZyYmWx78z0ARkFcsD54uRN5I8kHOSaZ1BbWuUn3ye68ML7GGxE7N8DjJ55OHsDYxUN9Icvt8EPup40YnoHlPg//GGsiPy+SqDG6+evKc1FnJNw7cjmFq4T+/aiSgLLt2j+E7dAFKtoFqUfhNXpgkJ1QHhX17qGsiusiA4DsynmJteEXppgliNz+6rWP+m81CrPMZybmcJnLOq1pWgJ0bdjQiEu4tV1u7UMTsOAQ0c1giEZ80bxlQ9+TVKy8JNqYKbaV5JQJyWbgr/MZAPwsfyKJStG9s+ALDHpBoxKUU+um5FF+0UfDR+yfJgfZtkX6Lk3IpvsExISAdS4uWrEUKF30uqUiEJ2xPriVYc4asJO1OLtzTPaH3ea1gxMqWql0MkVFuwBBfHEyZmglII5Vvwiw4MYuZdPyBRc6OJBQZUoKA9IbEJZKkZGLy79ckTXgfvdSJIGx3RlPGKKaLbOazSboNtzThv9ksxAOZgEW/B8z3hH2DYRqstOMTnovFSZ9J6brK00HkRa8LU4eNjSS/IkApFqqeccFzsbXnzQpLiadeLlvjkuZFKha/TED+la5YYDxruvi6NcnTvNPg7AG1uzHbT7PFR8ERjxe8iqVLinXUbrxESnHI+WCNtMXQR+ucd9+WnkGYEZLReJw99gqz+ft5skDzD/1Zm8/E3m6zKhJ7WEpYPrbg7pp/lU0kfOZ7QLqLoUZalCQFFi0Gblb7qUmq2yR2KH20wpAWOiUpH8+2fgXqcW+lOjGsXdIu9ZHUY93Y1OSVfHdKe5tBTZWZbr4h1bZaBe6RO5cI0DALmV4vQuqMHq9mtpgnxYLliKGaiQSZmeU6FFFey0i+w2RedjDjZgTUHlNoNz6LnpFiERnXA5FGLiVtUvJDWz/6YuMtMtYNBOQ6cNBzAhZUme6lyZnfCGgSYommEguuxKgil/QEaB0EQYoMML5YKN6pwA5PefEhNl+RFyWdqmDrXaMDegWSShZAr9FqDemuJrklvC3iiZXBlpjdjktFIrJjKmtteoyAq1atsjJ+S9NWTZGIe1qpqIJLQLpf4Lf6UhKVd62GdFeT3BJOmXlicbAlZrfjkllEdsxjuc1Vq1Z56d8F9/f3//jjj5arAINQAAoEUIEff/yxv7/fSwQ8f/78xx9/HMBUIWQoAAUsV+Djjz8+f/68lwiYy+XwKwItXwcwCAWCqUDpXw6Yy+Vc91vyc7ncu+++e+7cuWAmDFFDAShglQLnzp179913S2wAXUrAXC6H35Nq1SKAHSgQWAVKvwVmZHTjHjCXy3355Zf4L4MDu3AROBSoXYGNGzd++eWXpTeA7t0D5nK5wcHBPXv21C4ELEABKBA0Bfbs2TM4ODgu/lxNwFwuNzQ0tH79+qAlD/FCAShQiwLr168fGhoqB39uJ2AulxsdHU0kEidOnKhFEYyFAlAgCAqcOHEikUiMjo6Wxt8zzzzT19fH+ojvAZPJZFtbW+mB1V0NVTdMHnXgwIFEIrFly5Zz587dvXs3CLlEjFAACpSjwN27d8+dO7dly5ZEInHgwAGZG8XOV65cGQ6HGQQZAZPJZDgcXrFiRbEhtbRbQEA2/a1btw4dOrRhw4aenp43cARbgYX0CLYGiP6Nnp6eDRs2HDp06NatW+VDSlXVcDgcjUb7+vrC4XAymWxsbIxGo6qqlm+k/J6WEbD8KdHT9wpsoIfvw0SANinQ3t7OIBgOhxsbG8Ph8D//+U+b5gIBbRI20GZBwECnv+bg0+l0S0tLmB8tLS3JZLJmq+YGQEBzXdBaiwIgYC3qYSx7EOYAJD/t0wQEtE/b4FoGAYObe4siZ+9DGARtegfCPAUBLcoYzEgKgICSGDitRgFVVaPRKPs20KZ3IMwtELCa9GBMaQVAwNL64Go5CrD3Ifa9A2E+gIDl5AJ9KlMABKxML/Q2UyCdTrO/DWN20bI2ENAyKWFIKAACCilwUrUC7H1I1cPLHAgClikUulWgAAhYgVjoWlwBW98Cs2lBwOLy40q1CoCA1SqHcQYFQECDHPjgFQVAQK9kyuV+goAuTxDcM1cABDTXBa0VKgACVigYurtDARDQHXnwvBcgoOdTGMwAQMBg5t3yqEFAyyWFwXooAALWQ+UAzAECBiDJfgwRBPRjVh2ICQR0QHRMWbsCIGDtGsKCB/6fECQJCggFVFV9+OGH2T9iFwRUVXXJkiXpdFp0wwkUKF8B7AHL1wo9HVaA/RumtrY2VVUZAVVVZf+43dbf7eFw2JjeTgVAQDvVhW2rFViwYEE4HG5ra1tJD4a/JUuWWD0P7AVFARAwKJn2R5zpdJr9rw5Tp06dMWNGOByORCJ4BPZHch2JAgR0RHZMWr0Cc+fOlX+5eSwWq94WRgZeARAw8EvAawIkk0n2q33Zb/e17z+48Zow8LcaBUDAalTDGAcVUFW1ublZbAPxDsTBXPhgahDQB0kMXAjsfUg4HMY7kMDl3uqAQUCrFYU9+xVIp9ORSGTixIl4B2K/2D6fAQT0eYL9Gl4sFpsyZYpfo0NcdVMABKyH1N99992mTZs6Ozu7urq6u7t7cNSswDx61GwGBnq6u7u7uro6Ozs3bdr03Xff1aMe3DQHCGhvNr766qvOzs6dO3eqqprFYZ0Cl+lhnT1YyqqqunPnzs7Ozq+++sreqnCTdRDQxmz09vZu27YNtQUFvKXAtm3bent7bSwMN5kGAe3KRldX18jIiLeWPryFAkyBkZGRrq4uu2rDTXZBQFuysXLlysuXL6OcoIB3Fbh8+fLKlSttKQ83GQUBrc9Gf3//qVOnvLv04TkUYAqcOnWqv7/f+gpxk0UQ0OJsXL9+vbe3FyUEBfyhQG9v7/Xr1y0uEjeZAwEtzsYbb7zxyy+/+GP1Iwoo8Msvv7zxxhsWF4mbzIGAVmbj3r17iqKgbKCAnxRQFOXevXtW1ombbIGAVmZjeHj49OnTflr9iAUKnD59enh42Mo6cZMtENDKbKxduxYFAwX8p8DatWutrBM32QIBrcxGV1eX/1Y/IoICPv67gSCglQRMJBKoFijgPwUSiYSVdeImWyCgldkAAf1X/Igom82CgLVgIlTLYG+NLY+AGSUW4kc8VbrCRpUW3jUUalFGS/eu/WoqHoqnssTDeJJbS8aFCy3dGd6Kn95XYFRpiSmZbCo+3tICAWsBEQgolwrFXwfnHoFLCQim4mSB1vMQBOS0JR7yc0pGQLCe+bB3Lp2AJRYhcQEEBAHLUmD8PWAB8lIdIc4UfW+o7b+S8XgyxTdgHEPaqpVKIxkPaXdysVcjJ/FkNtUhtnLEDt/WFUykG8soHYS5qQ5WEqQnd492IntSeknaGIZCok+BZdpf6WYbWR6CPJ2+HSYua3cGfefLW/Qh2SzZs4hD2CyYmvJa9NONC8/F3WxN9l4AABLuSURBVEVMx+5MksKZ7haqrW6cGWzpPiZvkyWdmaOkf7xb27/rAoqpTXKhC24yUHgoS8T9l5YQu4FRH8RcUjd5AdDzVJyErCXdoLHxAwhYVv0X6YQ9oL6aUh2hkNgA6s3kjFxii5WsXVLYpPzE/os00iKR6lMzoBGQfTI80YjKpKY0Auo+8ImMjkifSOEJxEjt2Ww2GReBZLpbWJEXhpBlpUtD5jSR7WSUmLAvqpcALt+gPIgQUPBCG24WlJlx6g8tfgo1Vv/aIz/vrytMUcsJQkghfTlAwtFSKfwRXjJi8nwxDSUxhRTCCNfQbCAlPoOXrrDuJFk5HLLcE30uEaZ8OzQEIpwucQICFoFbWc0goL60pMWqN9IzeVGS85bujCgPQwdp6WsmxiUgHaJo+8H8zSDfF+T5Qz+SQmKsKbhqQkCTECgBZcaJc2aQQ4d8kquXT6pXsuyA+HJADDcNSlyVjMtaiZuKZpv7zxUm949u9k2Z8Fbso7MkNHHHyr+raRlkw0ySLrtBO/Fcmw2U/RQZEbPTe2ceAQVhiW0+l7gd5qGcOVn6TxCwLNQV6QQC6qtL36robexMrmHtrs73BVpXbQWTGhAHBQpf4rSfyR6QDeQFQPc1wgDfbeW7wz6bA4heMyGgSQiUgBxnhHFlEFAueJMhFD0acQTjTIMSV3UCGtAgaMIwEeLbcwYX+U9NHY5I/SMJhwurtdIfhp6CgCT74tC3lsx5ppLZQCKIfFANxyWgPILexgyz64/hsttFz0HAInArqxkElBaWobxJO8ecvPTJObmrS5TR79vS0tdu76UJyHcxvFALMSS5l3/KPdHb+U5N8q1UCDJD5XPNoAmkDNA0GUI2NXzLI4abBiWu6gQUGyIyf0EuNFRRhbUts6y28SmY507hj+S6RixZkpM8m2JDbUgZHai1yILz88LOWWkHWmwPmL8tlUlNLJfa+8uh0HMQsCzUFekEAsoLiiw+/v0RK0JtW6R/xUMqkzVKhS3KQK5J1igukXmkIey7RX635wQklaA5QPgyXiXozpCS1503ISC1LB4M9S+/tG+pDPsvTRIzSJEQtCG6JrqE8hD93Cwo/arxEZuFLGLhTBcoobJo38nKahcQkMKai6l7yIViUgiI68ClU9OrIikczfolalwsAy1NREOGUckxscc0hpm/rvS5CgMxOG/yAQQsAreymkHAvCVFV7n2kKItU9pDb9fvz6waSWfeU2/hjaUJyPcCeQXA5uf7lDwPjR9J6fKDWyMVy8/5HpBXPu2rhUC8jce1pz/xOCzsm0GKbXC0CfOHENLlH/rzI7vCgypiXITDn0MpVujQPGYZt1r6Nly4XxQlJJXxDk03nk2R3xYlyb9g1bPJ8ms6kO74tKhNl4GsCFdMhMk3nnkLgHulB1PiDAQsC3VFOoGAJZaW3y9RAvK//WhBsFIZM2v6Ds4C65WaKBodBZn4K+UVmK16YAVzVNEVBCwCt7KaA0TAlStXVrG8/DykKCOqDNpFBKSbrCI7qapBVvXAKvUsc5iP/8MQ/LvgsiheZqeNGzfevn27zFWFblDAEwrcvn1748aNZZaA57qBgFambGRk5NChQ55Y1nASCpSpwKFDh0ZGRqysEzfZAgEtzgZ+RWCZdYVuXlHAx78cMJfLgYAWE3DLli2jo7b/ChevFA/89LoCo6OjW7ZssbhI3GQOBLQ+G52dnV5f9/AfCjAFOjs7ra8QN1kEAa3Pxueff75161aUEBTwugJbt279/PPPra8QN1kEAW3Jxs6dO/fu3ev1AoD/QVZg7969O3futKU83GQUBLQrG7t3737nnXeCXEKI3bsKvPPOO7t377arNtxkFwS0MRtnzpxJJBLpdNq7lQDPg6ZAOp1OJBJnzpyxsTDcZBoEtD0bH3zwQSKReP/998fGxoJWTojXKwqMjY29//77iUTigw8+sL0k3DQBCFinbFy9enVgYGDt2rWrcFihwAJ6WGEJNlatXbt2YGDg6tWrdSoGN00DAropG/ClbAU20KPs7ugIBcwVAAHNdUGryxUAAV2eIK+4BwJ6JVPw06AACGiQAx+qVQAErFY5jHNUARDQUfn9MzkI6J9cBioSEDBQ6bYvWBDQPm1h2UYFQEAbxQ2SaRAwSNn2UawgoI+S6WQoIKCT6mPuqhUAAauWDgNlBUBAWQ2ce0YBENAzqXK3oyCgu/MD7yQF0un0ww8/zBpkAq5YsSKdTksdcQoFylUABCxXKfRzXAFVVcPhcFtbWy6XEwRcsGBBOBxWVdVx9+CAFxUAAb2YteD63N7eHolE2traGAEZ/pYsWRJcRRB5bQqAgLXph9H1VSCdTjc2NjY3N0+dOrWtrS0cDjc2NuIRuL5J8NVsIKCv0un7YFRVnTt3LgNfmB++jxoB2qcACGiftrBsiwJ9fX3RaJTRLxqN9vX12TINjAZDARAwGHn2UZSqqjY3N/P9H96B+Ci1ToQCAjqhOuasTYH29nZGQLwDqU1IjMb/mI414EEF0ul0hB54B+LB7LnLZewB3ZUPeFOOAteuXWttbQ2Hw3/88Uc5/dEHChRTAAQspgzaXafAxYsXe3p65s2b19zc/B/0aG5unjdvXk9Pz8WLF13nLhzyggIgoBeyFHgfr169umzZsscee2zz5s1ff/11LpdT6ZHL5b7++uvNmzc/9thjy5YtC+b/9RP41VGTACBgTfJhcB0UOHDgQDQa3blzZ+m5du7cGY1GDxw4ULobrkIBWQEQUFYD565TYN++fY888sjo6Gg5no2Ojj7yyCP79u0rpzP6QIFcDu+CsQpcrMCZM2fa2tq+/fbbQh9v0aOw/dtvv21raztz5kzhJbRAgUIFsAcs1AQtblHgySefPHLkiOzN1atXn3/++YkTJ7K/DTNx4sTnn38+7+u/I0eOPPnkk/IonEOBYgqAgMWUQbvDCgwMDCxbtkx2Ymho6P777580adLkyZPZu+DJkydPmjTp/vvvHxoaknsuW7ZsYGBAbsE5FDBVAAQ0lQWNziuwcOFC+S88Hzt2bMKECQ0NDYx98p8NDQ0TJkw4duyYcDqdTi9cuFB8xAkUKKYACFhMGbQ7qcD169fnzp0rezB79uxIJCKDTz6PRCKzZ8+W+8+dO/f69etyC86hQKECIGChJmhxXoHDhw8vX75c+HH27NmmpiYZeYXnTU1NZ8+eFUOWL19++PBh8REnUMBUARDQVBY0OqzA9u3be3t7hRNbt26NRqOF1JNbotHo1q1bxZDe3t7t27eLjziBAqYKgICmsqDRYQX6+/s3bdoknFi3bl1jY6PMu8LzxsZGGZqbNm3q7+8XFnACBUwVAAFNZUGjwwrs2rVLURThxO7du6dNm1ZIPbll2rRpe/bsEUMURdm1a5f4iBMoYKoACGgqCxodVuDkyZOLFy8WToyNjZm+BZYJ2NDQMDY2JoYsXrz45MmT4iNOoICpAiCgqSxodFiBO3fuzJw5U3Zi3rx5U6dOlZEnn0+dOnXevHly/5kzZ965c0duwTkUKFQABCzUBC2uUGDRokXyy9xr165FIpEpU6bI4GPnU6ZMiUQi165dE34fPnx40aJF4iNOoEAxBUDAYsqg3WEFjh079swzz8hOXLp06cEHH2xtbWX/LIT9g5DW1tYHH3zw0qVLcs9nnnlG/gvS8iWcQwFZARBQVgPn7lJg8eLFhX+j5b333mtvb2+iR3t7+3vvvZfn9Pbt2+XvEPOu4iMUkBUAAWU1cO4uBW7evDl79uyjR4+W79bRo0dnz5598+bN8oegZ5AVAAGDnH0PxH727NlYLJZMJsvxNZlMxmIx+V+GlDMKfYKsAAgY5Ox7I/ZMJrNgwYJXXnlFfteR5/q1a9deeeWVBQsWZDKZvEv4CAVKKAAClhAHl1ykwObNm2fOnPnSSy8NDg6Ojo6y35A6Ojo6ODj40ksvzZw5c/PmzS5yF654RAEQ0COJgpu53J9//vnJJ5+8/vrrTz/99Bx6PP3006+//vonn3zy559/QiEoUIUCIGAVomEIFIACPlEABPRJIhEGFIACVSgAAlYhGoZAASjgEwVAQJ8kEmFAAShQhQIgYBWiYQgUgAI+UQAE9EkiEQYUgAJVKAACViEahkABKOATBUBAnyQSYUABKFCFAiBgFaJhCBSAAj5RAAT0SSIRBhSAAlUoAAJWIRqGQAEo4BMFQECfJBJhQAEoUIUCIGAVomEIFIACPlEABPRJIhEGFIACVSgAAlYhGoZAASjgEwVAQJ8kEmFAAShQhQIgYBWiYQgUgAI+UQAE9EkiEQYUgAJVKAACViEahkABKOATBUBAnyQSYUABKFCFAiBgFaJhiCsU+AkHFKhZARDQFcUMJypVYMOGDU1NTbNwQIHaFFi0aFGla6/S/qFKB6A/FBhXgQ30GLcbOkABxxUAAR1PgQ8dAAF9mFSfhgQC+jSxjoYFAjoqPyavQAEQsAKx0LVMBUDAMoVCN8cVAAEdT4EPHQABfZhUn4YEAvo0sY6GBQI6Kj8mr0ABELACsdC1TAVAwDKFQjfHFQABHU+BDx0AAX2YVJ+GBAL6NLGOhgUCOio/Jq9AARCwArHQtYQC6XT64YcfZh1kAq5YsSKdTpcYiEtQwEEFQEAHxffV1KqqhsPhtra2XC4nCLhgwYJwOKyqqq9CRTA+UgAE9FEynQ6lvb09Eom0tbUxAjL8LVmyxGm/MD8UKKoACFhUGlyoVIF0Ot3Y2Njc3Dx16tS2trZwONzY2IhH4EplRP96KgAC1lNtn8+lqurcuXMZ+ML88HnMCM/jCoCAHk+gy9zv6+uLRqOMftFotK+vz2UOwh0oYFAABDTIgQ81KqCqanNzM9//4R1IjXJiuO0KgIC2Sxy0Cdrb2xkB8Q4kaKn3YrwgoBez5mqf0+l0hB54B+LqPME5qgAIiIVgsQI3btxobW0Nh8P//ve/LTYNc1DAagVAQKsVDaq9S5curV27dv78+U1NTVPo0dTUNH/+/LVr1166dCmoqiButysAAro9Q+737/vvv3/55ZcfffTR/v7+TCaTy+VUeuRyuUwm09/f/+ijj7788svff/+9+2OBh0FTAAQMWsYtjvfgwYNNTU07duwobXfHjh1NTU0HDx4s3Q1XoUCdFQAB6yy4r6YbGhqaM2fOhQsXyonqwoULc+bMGRoaKqcz+kCB+igAAtZHZx/Okk6nZ82adfny5cLYbtOjsP3y5cuzZs3CO+JCZdDilAIgoFPKe37e+fPnDw8Py2F8//33L7zwwgMPPMD+NswDDzzwwgsv5H39Nzw8PH/+fHkUzqGAgwqAgA6K7+GpBwcHly5dKgfw0Ucf3XfffQ0NDZMnT/4PekyePLmhoeG+++776KOP5J5Lly4dHByUW3AOBZxSAAR0Snlvz/vUU0+dOXNGxPDZZ59NmDChoaGBsU/+s6GhYcKECZ999pnofObMmaeeekp8xAkUcFABENBB8b069Y0bN+bMmSN7/9BDD0UiERl88nkkEnnooYfk/nPmzLlx44bcgnMo4IgCIKAjsnt70uHh4eXLl4sYzp4929TUJCOv8Lypqens2bNiyPLly/O+QxSXcAIF6qkACFhPtX0y1/bt23t7e0Uw27Zti0ajhdSTW6LR6LZt28SQ3t7e7du3i484gQJOKQACOqW8h+ftp4cIYN26dY2NjTLvCs8bGxtlaOZZEKZwAgXqrAAIWGfB/TDdrl27FEURkezatWvatGmF1JNbpk2btmfPHjFEUZRdu3aJjziBAk4pAAI6pbyH5z1x4sTixYtFAGNjY6ZvgWUCNjQ0jI2NiSGLFy8+ceKE+IgTKOCUAiCgU8p7eN47d+7MmjVLDuCJJ54o8TKkqanpiSeekPvPmjXrzp07cgvOoYAjCoCAjsju+UkXLVokv8z94YcfIpGI+LvQ8u5v8uTJkUjkhx9+EDEPDw8vWrRIfMQJFHBQARDQQfE9PPXRo0efffZZOYCLFy9Onz69tbV10qRJk+kxadKk1tbW6dOnX7x4Ue757LPPHj16VG7BORRwSgEQ0CnlPT/viy++WPhLsXbt2vX444+zPeDjjz9e+Lpjx44dL774oueDRwB+UQAE9Esm6x7HjRs32trajh07Vv7Mx44da2trw78GKV8x9LRbARDQboX9bD+dTre2tu7fv7+cIPfv39/a2opfjVWOVuhTNwVAwLpJ7c+JLl26NH/+/FdffbXEzu7GjRuvvvrq/Pnz8R+G+HMReDkqENDL2XON75s2bZo+ffrSpUv37duXyWTYb0jNZDL79u1bunTp9OnTN23a5Bpn4QgU0BUAAXUtcFaLAvfu3Tt48OBrr722cOHC/6THwoULX3vttYMHD967d68WyxgLBexTAAS0T1tYhgJQwO0KgIBuzxD8gwJQwD4FQED7tIVlKAAF3K4ACOj2DME/KAAF7FMABLRPW1iGAlDA7QqAgG7PEPyDAlDAPgX+PzrYQ4WW8AP8AAAAAElFTkSuQmCC;" vertex="1" parent="1">
          <mxGeometry x="584" y="1240" width="427" height="315" as="geometry" />
        </mxCell>
      </root>
    </mxGraphModel>
  </diagram>
</mxfile>
